<svg xmlns="http://www.w3.org/2000/svg" xmlns:xlink="http://www.w3.org/1999/xlink" id="Layer_1" width="270" height="270" x="0" style="enable-background:new 0 0 270 270" y="0" version="1.1" viewBox="0 0 270 270" xml:space="preserve"><style type="text/css">.st0{opacity:.2}.st1{fill:none;stroke:#3f5d69;stroke-width:.5069;stroke-miterlimit:10}.st2{fill:#4f5764}.st3{fill:url(#SVGID_1_)}.st4{fill:url(#SVGID_2_)}.st5{fill:url(#SVGID_3_)}.st6{fill:url(#SVGID_4_)}</style><g class="st0"><polyline points="15.4 124.2 133.9 248.4 208.8 34.2 15.4 124.2" class="st1"/><polyline points="220.2 158.5 137.4 17.4 248.8 115.6 219.4 161.2" class="st1"/><polyline points="248.8 115.6 15.4 124.2 52.4 55.6 137.4 17.4" class="st1"/><g><circle cx="248.8" cy="115.6" r="4.1" class="st2"/><circle cx="15.4" cy="124.2" r="4.6" class="st2"/><circle cx="137.4" cy="17.4" r="4.1" class="st2"/><circle cx="52.4" cy="55.6" r="3.3" class="st2"/><circle cx="133.9" cy="248.4" r="3.8" class="st2"/><circle cx="208.8" cy="34.2" r="4.7" class="st2"/><circle cx="219.4" cy="161.2" r="5.3" class="st2"/></g></g><g><linearGradient id="SVGID_1_" x1="126.354" x2="138.747" y1="93.257" y2="93.257" gradientUnits="userSpaceOnUse"><stop offset="0" style="stop-color:#4f5764"/><stop offset=".668" style="stop-color:#293942"/><stop offset="1" style="stop-color:#111c21"/></linearGradient><rect width="12.4" height="26" x="126.4" y="80.3" class="st3"/><linearGradient id="SVGID_2_" x1="96.795" x2="114.252" y1="187.505" y2="97.101" gradientUnits="userSpaceOnUse"><stop offset="0" style="stop-color:#d0d1d3"/><stop offset=".522" style="stop-color:#cdd2d1"/><stop offset=".994" style="stop-color:#f2f2f2"/></linearGradient><rect width="16.2" height="90.6" x="97.4" y="97.1" class="st4"/><linearGradient id="SVGID_3_" x1="80.999" x2="126.354" y1="93.257" y2="93.257" gradientUnits="userSpaceOnUse"><stop offset="0" style="stop-color:#4f5764"/><stop offset=".668" style="stop-color:#293942"/><stop offset="1" style="stop-color:#111c21"/></linearGradient><rect width="45.4" height="15.7" x="81" y="85.4" class="st5"/><linearGradient id="SVGID_4_" x1="145.871" x2="190.581" y1="185.065" y2="87.234" gradientUnits="userSpaceOnUse"><stop offset="0" style="stop-color:#3d96d2"/><stop offset="1" style="stop-color:#069fb0"/></linearGradient><path d="M181.1,81.2l-2,0.9v10.7l-8.6,5.7l-7.6-5.7V82.2l-1.4-0.7l-8.1,11.6v12.3l9.5,8.5v73.8h16.3v-74.2l9.8-8.9 V93.2L181.1,81.2z M171.2,182.4c-1.7,0-3-1.4-3-3c0-1.7,1.4-3,3-3c1.7,0,3,1.4,3,3C174.2,181,172.9,182.4,171.2,182.4z" class="st6"/></g></svg>