<svg xmlns="http://www.w3.org/2000/svg" xmlns:xlink="http://www.w3.org/1999/xlink" id="Layer_1" width="1780" height="850" x="0" y="0" version="1.1" viewBox="755 -290 1780 850" xml:space="preserve" style="enable-background:new 755 -290 1780 850"><style type="text/css">.st0{fill:url(#sky_x2F_space_2_)}.st1{fill:url(#river_2_)}.st2{opacity:.9}.st3{fill:url(#SVGID_1_)}.st4{fill:url(#SVGID_2_)}.st5{opacity:.8}.st6{fill:url(#SVGID_3_)}.st7{fill:#fdd8cd}.st8{fill:url(#SVGID_4_)}.st9{fill:url(#SVGID_5_)}.st10,.st11{opacity:.8;fill:url(#SVGID_6_);enable-background:new}.st11{fill:url(#SVGID_7_)}.st12{fill:#445763}.st13{fill:url(#SVGID_8_)}.st14{fill:url(#SVGID_9_)}.st15{opacity:3.000000e-02}.st15,.st16,.st17,.st18{fill:#fff;enable-background:new}.st16{opacity:4.000000e-02}.st17{opacity:6.000000e-02}.st18{opacity:.1}.st19,.st20{fill:#575c7a}.st20{display:none}.st21{opacity:.8;fill:#fff4cf;enable-background:new}.st22{fill:url(#SVGID_10_)}.st23{fill:url(#SVGID_11_)}.st24{fill:url(#SVGID_12_)}.st25{fill:url(#SVGID_13_)}.st26{opacity:5.000000e-02;fill:#fff;enable-background:new}.st27{clip-path:url(#SVGID_15_)}.st28{fill:url(#SVGID_16_)}.st29{fill:url(#SVGID_17_)}.st30{fill:url(#SVGID_18_)}.st31{fill:url(#SVGID_19_)}.st32{fill:url(#SVGID_20_)}.st33{fill:url(#SVGID_21_)}.st34{fill:url(#SVGID_22_)}.st35{fill:url(#SVGID_23_)}.st36{fill:url(#SVGID_24_)}.st37{fill:url(#SVGID_25_)}.st38{fill:url(#SVGID_26_)}.st39{fill:url(#SVGID_27_)}.st40{fill:url(#SVGID_28_)}.st41{fill:url(#SVGID_29_)}.st42{fill:#293942}.st43{fill:url(#SVGID_30_)}.st44{fill:url(#SVGID_31_)}.st45{fill:url(#SVGID_32_)}.st46{fill:url(#SVGID_33_)}.st47{fill:url(#SVGID_34_)}.st48{fill:url(#SVGID_35_)}.st49{fill:url(#SVGID_36_)}.st50{fill:#808184}.st51{fill:url(#SVGID_37_)}.st52{fill:url(#SVGID_38_)}.st53{fill:url(#SVGID_39_)}.st54{fill:url(#SVGID_40_)}.st55{fill:url(#SVGID_41_)}.st56{fill:url(#SVGID_42_)}.st57{fill:url(#SVGID_43_)}.st58{fill:url(#SVGID_44_)}.st59{opacity:.17;fill:#efefef;enable-background:new}.st60{fill:url(#SVGID_45_)}.st61{fill:url(#SVGID_46_)}.st62{fill:url(#SVGID_47_)}.st63{fill:url(#SVGID_48_)}.st64{fill:url(#SVGID_49_)}.st65{fill:url(#SVGID_50_)}.st66{fill:#273d44}.st67{fill:url(#SVGID_51_)}.st68{fill:url(#SVGID_52_)}.st69{fill:url(#SVGID_53_)}.st70{fill:url(#SVGID_54_)}.st71{fill:url(#SVGID_55_)}.st72{fill:url(#SVGID_56_)}.st73{fill:#929497}.st74{fill:url(#SVGID_57_)}.st75{fill:#fff}.st76{fill:url(#SVGID_58_)}.st77{fill:url(#SVGID_59_)}.st78{fill:url(#SVGID_60_)}.st79,.st80{opacity:.6;fill:#4e4d50;enable-background:new}.st80{opacity:.21;fill:#231f20}.st81{fill:url(#SVGID_61_)}.st82{fill:url(#SVGID_62_)}.st83,.st84{opacity:.39;fill:url(#SVGID_63_);enable-background:new}.st84{fill:url(#SVGID_64_)}.st85{fill:url(#SVGID_65_)}.st86{fill:url(#SVGID_66_)}.st87{fill:url(#SVGID_67_)}.st88{fill:url(#SVGID_68_)}.st89{fill:url(#SVGID_69_)}.st90{fill:url(#SVGID_70_)}.st91{fill:url(#SVGID_71_)}.st92,.st93{opacity:.59;fill:url(#SVGID_72_);enable-background:new}.st93{opacity:.45;fill:#bfbebe}.st94{fill:url(#SVGID_73_)}.st95{fill:url(#SVGID_74_)}.st96{fill:url(#SVGID_75_)}.st97{opacity:7.000000e-02;fill:url(#SVGID_76_);enable-background:new}</style><linearGradient id="sky_x2F_space_2_" x1="1671.445" x2="1628.921" y1="377.765" y2="1176.912" gradientTransform="matrix(1 0 0 -1 0 903.9999)" gradientUnits="userSpaceOnUse"><stop style="stop-color:#f3c187" offset="0"/><stop style="stop-color:#f4aa8d" offset=".053"/><stop style="stop-color:#df7d66" offset=".119"/><stop style="stop-color:#4e5763" offset=".306"/><stop style="stop-color:#0c3c4c" offset=".591"/><stop style="stop-color:#0e1c22" offset="1"/></linearGradient><rect id="sky_x2F_space_1_" width="1782.3" height="705.1" x="755.6" y="-290" class="st0"/><linearGradient id="river_2_" x1="1619.423" x2="1762.788" y1="694.478" y2="188.643" gradientTransform="matrix(1 0 0 -1 0 903.9999)" gradientUnits="userSpaceOnUse"><stop style="stop-color:#c5817e" offset=".079"/><stop style="stop-color:#57606d" offset=".364"/><stop style="stop-color:#33434c" offset=".699"/><stop style="stop-color:#2d3a41" offset="1"/></linearGradient><polygon id="river_1_" points="2541.2 561 1149.9 561 848.4 561.3 1015.5 471.6 1149.9 389.8 2541.2 389.8" class="st1"/><g id="mountain_1_" class="st2"><linearGradient id="SVGID_1_" x1="1319.921" x2="1319.921" y1="514.14" y2="647.342" gradientTransform="matrix(1 0 0 -1 0 903.9999)" gradientUnits="userSpaceOnUse"><stop style="stop-color:#425b6a" offset="0"/><stop style="stop-color:#30414a" offset="1"/></linearGradient><polygon points="1116.7 391.8 1100.8 391.9 1101.5 390 1155.1 360.5 1172.4 356 1177.1 347.5 1186.7 344.3 1194.3 339.3 1205.4 345.5 1210 346.7 1219.2 345.4 1239.8 330.3 1264.3 313.3 1272.3 314.4 1291.3 295 1298.8 298.5 1302.5 292.9 1310.8 289.5 1318.8 280.5 1326.5 275.7 1336 264.8 1342.2 267.8 1351.8 275.6 1361.8 283.7 1370.4 286.8 1375.1 290.6 1376.7 291.3 1383.8 289.3 1387.7 293.2 1392 297.5 1396.4 301.9 1399 300.2 1409.5 308.9 1421.4 317.2 1431.8 327.7 1432.3 330.2 1438 329.6 1443.9 333.6 1448.5 333.6 1467.4 347.3 1539 391.8" class="st3"/><linearGradient id="SVGID_2_" x1="1463.891" x2="1571.066" y1="500.522" y2="548.657" gradientTransform="matrix(1 0 0 -1 0 903.9999)" gradientUnits="userSpaceOnUse"><stop style="stop-color:#475e6d" offset="0"/><stop style="stop-color:#30414a" offset="1"/></linearGradient><polygon points="1560.3 391.8 1593.5 391.8 1548.9 375.5 1512.5 356.1 1494.7 344.8 1485.1 347.4 1467.8 360.9 1457.2 367.8 1441.4 378 1428.7 384.2 1409.5 391.8 1412.1 391.8" class="st4"/><g class="st5"><linearGradient id="SVGID_3_" x1="1327.721" x2="1396.421" y1="616.8" y2="616.8" gradientTransform="matrix(1 0 0 -1 0 903.9999)" gradientUnits="userSpaceOnUse"><stop style="stop-color:#fdd8cd" offset="0"/><stop style="stop-color:#e9b8ad" offset="1"/></linearGradient><polygon points="1350.1 289.4 1342.5 280.5 1339.1 267.6 1336 264.8 1342.2 267.8 1351.8 275.6 1361.8 283.7 1370.4 286.8 1375.1 290.6 1378 293.6 1381.1 294.9 1383.8 289.3 1396.4 301.9 1391.3 304.8 1389.7 308.2 1386.3 305.4 1379.8 308 1371.9 301.9 1364.8 297.1 1375.8 309.2 1374.2 309.6 1366.4 304.7 1360.5 298.7 1354.1 293.6 1356.8 299.4 1353 299.5 1338 285.5 1327.7 276.6 1334.6 279.7 1338.9 280.6" class="st6"/><polygon points="1353.1 309.2 1357.6 314.9 1352.9 312.6 1345 310.5 1353.2 318.7 1360.3 323.1 1360.3 323.1 1361.3 324.1 1367.1 321.7 1369.5 320.7" class="st7"/><linearGradient id="SVGID_4_" x1="1392.361" x2="1465.81" y1="581.508" y2="533.996" gradientTransform="matrix(1 0 0 -1 0 903.9999)" gradientUnits="userSpaceOnUse"><stop style="stop-color:#fdd8cd" offset="0"/><stop style="stop-color:#e9b8ad" offset="1"/></linearGradient><polygon points="1471.4 349.9 1458.9 341.1 1448.5 333.6 1449.1 338.3 1443.9 333.6 1438 329.6 1436.2 329.8 1431.8 327.7 1425.7 321.5 1421.4 317.2 1412.8 311.1 1409.5 308.9 1399 300.2 1397.8 309.7 1399.7 316.5 1386.3 305.4 1383.6 311.8 1385.2 314.4 1396.9 325.2 1387.1 319.7 1377.4 316.7 1380 323.5 1385.6 327.5 1397.7 338.4 1394.3 338 1397.9 342 1382.7 336.7 1379.9 336.8 1368.1 329 1368.7 333.8 1382.4 342.6 1387.5 343.4 1420.1 352.2 1412.4 346.8 1431.3 354.8 1442.2 355.7 1445.6 356 1419.5 334.1 1452.1 354.6 1464.5 359.3 1467.8 360.9 1477.2 353.6" class="st8"/><linearGradient id="SVGID_5_" x1="1494.221" x2="1548.865" y1="543.85" y2="543.85" gradientTransform="matrix(1 0 0 -1 0 903.9999)" gradientUnits="userSpaceOnUse"><stop style="stop-color:#fdd8cd" offset="0"/><stop style="stop-color:#bf8980" offset="1"/></linearGradient><polygon points="1504.6 365.7 1495.2 358.4 1504.9 363.8 1503.6 361.9 1507.6 364 1496.4 351.7 1494.2 347.6 1496.4 348.8 1494.7 344.8 1512.5 356.1 1548.9 375.5 1527.8 368.7 1517.2 362.9 1524.2 369.1 1517.8 367.4 1513.6 370" class="st9"/></g></g><g id="mountain_-_foreground_1_"><linearGradient id="SVGID_6_" x1="1096.721" x2="1419.121" y1="544.1" y2="544.1" gradientTransform="matrix(1 0 0 -1 0 903.9999)" gradientUnits="userSpaceOnUse"><stop style="stop-color:#3b4952" offset="0"/><stop style="stop-color:#3f515e" offset=".636"/><stop style="stop-color:#4e6271" offset="1"/></linearGradient><polygon points="1419.1 391.8 1373.4 368.6 1355.7 358.2 1342 350.1 1337.3 347.3 1328 340.1 1316.5 330.9 1313.1 330.8 1308.4 328 1297.5 335.1 1295.8 333.9 1278.3 343.9 1275.5 343.9 1270.3 346.4 1270.3 348.6 1266.2 350.5 1258.8 355 1253 358 1246.5 361.2 1245.2 361.9 1238 363.6 1227.9 358.8 1220.6 353.9 1213.2 347.9 1209.4 346.7 1205.5 345.5 1194.4 339.3 1186.9 344.3 1177.3 347.5 1172.5 356 1155.9 360.2 1101 390.3 1096.7 391.8 1116.6 391.8" class="st10"/><linearGradient id="SVGID_7_" x1="1314.644" x2="1359.184" y1="566.308" y2="531.077" gradientTransform="matrix(1 0 0 -1 0 903.9999)" gradientUnits="userSpaceOnUse"><stop style="stop-color:#fdd8cd" offset=".029"/><stop style="stop-color:#d9a499" offset=".465"/><stop style="stop-color:#bf8980" offset="1"/></linearGradient><polygon points="1376.5 370.5 1350.4 355.4 1337.2 346.5 1329 340.8 1316.5 330.9 1321.4 339.9 1315.3 336.8 1316 338.1 1315.8 339.3 1317.5 340.9 1321.7 345.6 1332 352.7 1332.9 355.4 1318.9 345.6 1314.6 343.1 1304.1 336.2 1305.1 338.6 1295.8 333.9 1296.8 336.2 1299.4 338.4 1300.3 340.5 1300.3 342.5 1327.2 358.7 1331.6 360.2 1324.7 354.3 1336.6 360.4 1346.3 363 1358 365.9 1351.1 360.3 1362.9 367.1" class="st11"/></g><path id="land-right3_1_" d="M2263.8,371.6h-40.2l-59.5-1.1h-10.2l-22.3-1.1l-34.4-3.4l-24.4,4.5l-20.4-3.5l-21.3,4.1	l-32.5-12l-38.4,7l-51.5,8.3l-54.4-2.3l-28.5,3l-12.9,7l-13.1-6.2l-56.5,3.9l-51.7-3.9l-48.6,8.9l-61.4,2.2l-68.7,3.8l-18.6,1	l14.9,4.2l8.2,1l23.9,2.5l41.9,3.8l87.8,10.5l93.8-1.6l372.3-7.6c0,0,136.4,5,136.4-23.7L2263.8,371.6z" class="st12"/><linearGradient id="SVGID_8_" x1="2253.213" x2="1988.486" y1="109.996" y2="459.662" gradientUnits="userSpaceOnUse"><stop style="stop-color:#f4b49c" offset="0"/><stop style="stop-color:#5a576c" offset=".365"/><stop style="stop-color:#3d4e59" offset=".995"/></linearGradient><polygon points="2537.1 345.3 2514.5 349.4 2504.9 345.4 2464.2 344.4 2409.5 352.7 2351.7 350.4 2321.4 353.4 2261 347.3 2196.9 359.6 2130.9 363.8 2071.2 361.7 2030.2 373.7 1972.3 375.8 1946.2 382.1 1898.7 386.5 1839.1 389.6 1803.8 395.9 1777.1 389.5 1751 395.9 1729 393.5 1702.9 395.9 1695.8 403.4 1644.5 407.3 1624.6 412.9 1601.9 418.8 1595.8 420.6 1514.3 428.4 1551.2 430.3 1774.7 428.7 1807.7 434 1980 434 2326.1 430.4 2326.1 404.2 2537.6 391.9" class="st13"/><linearGradient id="SVGID_9_" x1="2096.754" x2="2026.665" y1="186.273" y2="849.425" gradientUnits="userSpaceOnUse"><stop style="stop-color:#f6d59b" offset="0"/><stop style="stop-color:#bea39b" offset=".147"/><stop style="stop-color:#676279" offset=".26"/><stop style="stop-color:#3a4c57" offset=".402"/><stop style="stop-color:#3a4850" offset="1"/></linearGradient><polygon points="2510.5 350.2 2445.6 341.4 2411.8 350.2 2383.4 361.1 2364.5 361.2 2329.3 357 2294.2 371.7 2273.4 366.4 2249.8 375.8 2196 384.6 2177.1 387.8 2165.6 385.5 2165.6 384.5 2156.7 383.7 2154.1 383.2 2153.5 383.4 2132.6 381.4 2093.6 373.9 2076.2 378.4 2047.8 388.2 2030.2 400.9 2005.5 392.3 1986.6 392.4 1970.4 392.4 1951.3 388.2 1916.3 402.9 1895.5 397.6 1871.8 407 1846.2 411.3 1818.1 415.8 1799.2 419 1776.2 414.4 1758.8 420 1731 437.6 1702.9 447.2 1687.8 451.8 1669.5 451.8 1644.5 457.9 1627 458.4 1604.1 468.9 1592.1 468.9 1580.7 473 1664.5 473.8 1651.3 478.2 1637.9 478.2 1626.7 481.7 1609.1 483.5 1626.7 485.6 1648.1 489.6 1664.5 489.6 1680.3 489.6 1692.1 494.4 1717.8 500.4 1732.8 500.4 1745.7 500.4 1757.5 500.7 1761.5 501.3 1785.4 504.5 1801.2 507 1801.2 506.5 1834.5 510.9 1913.4 543.8 1948.8 540 2008.1 555.2 2070.1 559.1 2187.9 560.9 2543.5 554.9 2543.5 353.3" class="st14"/><polygon points="2138.3 347.3 1591 347.3 1585.6 351.5 1591 355.7 1738.1 355.7 1736.3 359.4 1736.3 359.4 1743.8 365.3 2126.4 365.3 2143.7 351.5" class="st15"/><path d="M1662.9,336.3l6.6-5.1h749c3.6,0,6.6,2.3,6.6,5.1l0,0c0,2.8-3,5.1-6.6,5.1h-749L1662.9,336.3z" class="st15"/><polygon points="833.1 362.8 1200.5 362.8 1206.8 358.2 1206.8 358.2 1200.5 353.7 833.1 353.7 826.7 358.2 826.7 358.2" class="st15"/><polygon points="1545.4 307.9 1844.4 307.9 1852.7 302 1852.7 302 1844.4 296.1 1545.4 296.1 1537 302 1537 302" class="st16"/><path d="M1934.8,300.9h539.3c3.2,0,5.9-1.7,5.9-3.7l0,0c0-2-2.7-3.7-5.9-3.7h-539.3l-5.9,3.7l0,0L1934.8,300.9z" class="st17"/><polygon points="2258 316.6 1786.1 316.6 1782.3 314.3 1782.3 314.3 1786.1 311.9 2258 311.9 2261.8 314.3 2261.8 314.3" class="st18"/><g id="stars_1_"><rect width="4.8" height="4.8" x="915.7" y="3.7" class="st19" transform="matrix(-0.7071 -0.7071 0.7071 -0.7071 1563.0316 659.5538)"/><rect width="4" height="4" x="1059.5" y="-53.3" class="st19" transform="matrix(-0.7071 -0.7071 0.7071 -0.7071 1848.4188 662.966)"/><rect width="2.8" height="2.8" x="1323.6" y="33.3" class="st19" transform="matrix(-0.7071 -0.7071 0.7071 -0.7071 2237.3521 996.1814)"/><rect width="4" height="4" x="1236.5" y="-105.2" class="st19" transform="matrix(-0.7071 -0.7071 0.7071 -0.7071 2187.2107 699.5422)"/><rect width="4.8" height="4.8" x="1198.4" y="-19.3" class="st20" transform="matrix(-0.7071 -0.7071 0.7071 -0.7071 2061.9399 820.251)"/><rect width="4.8" height="4.8" x="1737" y="-99.4" class="st19" transform="matrix(-0.7071 -0.7071 0.7071 -0.7071 3038.0195 1064.313)"/><rect width="4.8" height="4.8" x="1326" y="87.4" class="st19" transform="matrix(-0.7071 -0.7071 0.7071 -0.7071 2204.2629 1092.5753)"/><rect width="4" height="4" x="1475.7" y="-128" class="st19" transform="matrix(-0.7071 -0.7071 0.7071 -0.7071 2611.7444 829.806)"/><rect width="4.8" height="4.8" x="1315.3" y="179.1" class="st19" transform="matrix(-0.7071 -0.7071 0.7071 -0.7071 2121.1331 1241.5906)"/><rect width="4" height="4" x="1346.1" y="-107.2" class="st19" transform="matrix(-0.7071 -0.7071 0.7071 -0.7071 2375.7822 773.6954)"/><rect width="4.8" height="4.8" x="1211.9" y="113.1" class="st19" transform="matrix(-0.7071 -0.7071 0.7071 -0.7071 1991.267 1055.7705)"/><rect width="4.8" height="4.8" x="1387.2" y="7.2" class="st19" transform="matrix(-0.7071 -0.7071 0.7071 -0.7071 2365.4409 998.9232)"/><rect width="4.8" height="4.8" x="885.8" y="119.9" class="st20" transform="matrix(-0.7071 -0.7071 0.7071 -0.7071 1429.8162 836.8798)"/><rect width="4.8" height="4.8" x="988.1" y="-29.6" class="st19" transform="matrix(-0.7071 -0.7071 0.7071 -0.7071 1710.1062 653.9354)"/><rect width="4.8" height="4.8" x="1250.1" y="66.2" class="st19" transform="matrix(-0.7071 -0.7071 0.7071 -0.7071 2089.6621 1002.842)"/><rect width="4.8" height="4.8" x="1096.3" y="9" class="st19" transform="matrix(-0.7071 -0.7071 0.7071 -0.7071 1867.5848 796.3354)"/><rect width="4.8" height="4.8" x="859.7" y="165.3" class="st19" transform="matrix(-0.7071 -0.7071 0.7071 -0.7071 1353.1357 895.9366)"/><rect width="4.8" height="4.8" x="1191.2" y="79.4" class="st19" transform="matrix(-0.7071 -0.7071 0.7071 -0.7071 1979.7188 983.718)"/><rect width="4.8" height="4.8" x="943.5" y="-57" class="st19" transform="matrix(-0.7071 -0.7071 0.7071 -0.7071 1653.3042 575.6423)"/><rect width="4" height="4" x="886.5" y="-107.4" class="st19" transform="matrix(-0.7071 -0.7071 0.7071 -0.7071 1591.3003 448.4042)"/><rect width="4.8" height="4.8" x="806.5" y="18.7" class="st19" transform="matrix(-0.7071 -0.7071 0.7071 -0.7071 1366.041 607.9534)"/><rect width="4.8" height="4.8" x="805.3" y="-82.4" class="st19" transform="matrix(-0.7071 -0.7071 0.7071 -0.7071 1435.4351 434.5282)"/><rect width="4" height="4" x="952.1" y="-141" class="st19" transform="matrix(-0.7071 -0.7071 0.7071 -0.7071 1727.0977 437.4051)"/><rect width="4.8" height="4.8" x="1054.6" y="-27.5" class="st20" transform="matrix(-0.7071 -0.7071 0.7071 -0.7071 1822.1133 704.5616)"/><rect width="4.8" height="4.8" x="1503.9" y="52.7" class="st19" transform="matrix(-0.7071 -0.7071 0.7071 -0.7071 2532.4568 1159.173)"/><rect width="4.8" height="4.8" x="1126.4" y="136.1" class="st19" transform="matrix(-0.7071 -0.7071 0.7071 -0.7071 1829.0918 1034.5917)"/><rect width="4.8" height="4.8" x="1076.4" y="-137" class="st19" transform="matrix(-0.7071 -0.7071 0.7071 -0.7071 1936.8528 533.0907)"/><rect width="4.8" height="4.8" x="1742.7" y="-116" class="st19" transform="matrix(-0.7071 -0.7071 0.7071 -0.7071 3059.4675 1040.071)"/><rect width="4.8" height="4.8" x="1179.8" y="-35.1" class="st19" transform="matrix(-0.7071 -0.7071 0.7071 -0.7071 2041.2988 780.0361)"/><rect width="4.8" height="4.8" x="1050.3" y="110.6" class="st20" transform="matrix(-0.7071 -0.7071 0.7071 -0.7071 1717.162 937.2349)"/><rect width="4.8" height="4.8" x="1002.1" y="19.6" class="st20" transform="matrix(-0.7071 -0.7071 0.7071 -0.7071 1699.2999 747.8704)"/><rect width="2.8" height="2.8" x="1280.5" y="-18.5" class="st19" transform="matrix(-0.7071 -0.7071 0.7071 -0.7071 2200.498 877.2072)"/><rect width="4.8" height="4.8" x="766.5" y="83.4" class="st19" transform="matrix(-0.7071 -0.7071 0.7071 -0.7071 1251.9856 690.1944)"/><rect width="4.8" height="4.8" x="1066.9" y="123.7" class="st19" transform="matrix(-0.7071 -0.7071 0.7071 -0.7071 1736.2426 971.351)"/><rect width="4.8" height="4.8" x="1123" y="-4.1" class="st19" transform="matrix(-0.7071 -0.7071 0.7071 -0.7071 1922.4464 792.9031)"/><rect width="3.1" height="3.1" x="1080.6" y="-6.7" class="st19" transform="matrix(-0.7071 -0.7071 0.7071 -0.7071 1851.063 756.3925)"/><rect width="3.1" height="3.1" x="896" y="98.3" class="st19" transform="matrix(-0.7071 -0.7071 0.7071 -0.7071 1461.6084 805.181)"/><rect width="3.1" height="3.1" x="874.3" y="-36.5" class="st19" transform="matrix(-0.7071 -0.7071 0.7071 -0.7071 1519.9043 559.7296)"/><rect width="3.1" height="3.1" x="947.7" y="153.8" class="st19" transform="matrix(-0.7071 -0.7071 0.7071 -0.7071 1510.6416 936.4649)"/><rect width="3.1" height="3.1" x="934" y="67.1" class="st19" transform="matrix(-0.1174 -0.9931 0.9931 -0.1174 977.1617 1005.7779)"/><rect width="4.8" height="4.8" x="1879.7" y="-107.5" class="st19" transform="matrix(-0.7071 -0.7071 0.7071 -0.7071 3287.3025 1151.4741)"/><rect width="4.8" height="4.8" x="1822.8" y="-158.1" class="st19" transform="matrix(-0.7071 -0.7071 0.7071 -0.7071 3225.8518 1024.782)"/><rect width="4.8" height="4.8" x="1171.8" y="-119.3" class="st19" transform="matrix(-0.7071 -0.7071 0.7071 -0.7071 2087.1201 630.677)"/><rect width="4.8" height="4.8" x="1297" y="-119.3" class="st19" transform="matrix(-0.7071 -0.7071 0.7071 -0.7071 2300.8479 719.2596)"/><rect width="3.4" height="3.4" x="903" y="52.8" class="st20" transform="matrix(-0.7071 -0.7071 0.7071 -0.7071 1505.9103 732.8422)"/><rect width="4.8" height="4.8" x="797.5" y="123.3" class="st19" transform="matrix(-0.7071 -0.7071 0.7071 -0.7071 1276.6259 780.2032)"/><rect width="3.4" height="3.4" x="1013.9" y="79.6" class="st19" transform="matrix(-0.7071 -0.7071 0.7071 -0.7071 1676.2266 856.9667)"/><rect width="4.8" height="4.8" x="1122.3" y="16.8" class="st20" transform="matrix(-0.7071 -0.7071 0.7071 -0.7071 1906.4038 828.0554)"/><rect width="3.4" height="3.4" x="936.6" y="59.6" class="st20" transform="matrix(-0.7071 -0.7071 0.7071 -0.7071 1558.4745 768.1852)"/><rect width="4.8" height="4.8" x="1366.4" y="97.5" class="st19" transform="matrix(-0.7071 -0.7071 0.7071 -0.7071 2266.0813 1138.4192)"/><rect width="3.4" height="3.4" x="972.1" y="23.8" class="st20" transform="matrix(-0.7071 -0.7071 0.7071 -0.7071 1644.3455 732.1605)"/><rect width="4.8" height="4.8" x="1139.9" y="70.7" class="st20" transform="matrix(-0.7071 -0.7071 0.7071 -0.7071 1898.2675 932.4588)"/><rect width="4" height="4" x="1221.4" y="12.1" class="st19" transform="matrix(-0.7071 -0.7071 0.7071 -0.7071 2078.5095 889.1704)"/><rect width="4.8" height="4.8" x="1163.1" y="-88.8" class="st19" transform="matrix(-0.7071 -0.7071 0.7071 -0.7071 2050.696 676.6244)"/><rect width="4.8" height="4.8" x="1194.6" y="172" class="st19" transform="matrix(-0.7071 -0.7071 0.7071 -0.7071 1920.161 1144.0782)"/><rect width="4" height="4" x="1014.1" y="-92.9" class="st19" transform="matrix(-0.7071 -0.7071 0.7071 -0.7071 1798.8662 563.3763)"/><rect width="3.4" height="3.4" x="962.7" y="1" class="st19" transform="matrix(-0.7071 -0.7071 0.7071 -0.7071 1644.4244 686.4934)"/><rect width="3.4" height="3.4" x="1064.7" y="143.4" class="st19" transform="matrix(-0.7071 -0.7071 0.7071 -0.7071 1717.8607 1001.7477)"/><rect width="3.4" height="3.4" x="1035.9" y="25.2" class="st19" transform="matrix(-0.7071 -0.7071 0.7071 -0.7071 1752.3525 779.6621)"/><rect width="4.8" height="4.8" x="921.9" y="-55.1" class="st19" transform="matrix(-0.7071 -0.7071 0.7071 -0.7071 1615.2178 563.5792)"/><rect width="4.8" height="4.8" x="1487.4" y="127" class="st19" transform="matrix(-0.7071 -0.7071 0.7071 -0.7071 2451.7903 1274.3387)"/><rect width="4.8" height="4.8" x="1481.9" y="-41" class="st19" transform="matrix(-0.7071 -0.7071 0.7071 -0.7071 2561.2119 983.6158)"/><rect width="3.4" height="3.4" x="891.2" y="26.2" class="st19" transform="matrix(-0.7071 -0.7071 0.7071 -0.7071 1504.5836 679.025)"/><rect width="4.8" height="4.8" x="1328.5" y="-67.4" class="st19" transform="matrix(-0.7071 -0.7071 0.7071 -0.7071 2318.0154 830.1688)"/><rect width="2.8" height="2.8" x="1307" y="32.9" class="st19" transform="matrix(-0.7071 -0.7071 0.7071 -0.7071 2209.3726 983.6793)"/><rect width="3.1" height="3.1" x="836" y="64.9" class="st19" transform="matrix(-0.7071 -0.7071 0.7071 -0.7071 1382.7362 705.5958)"/><rect width="4.8" height="4.8" x="2017.2" y="-152.3" class="st19" transform="matrix(-0.7071 -0.7071 0.7071 -0.7071 3553.678 1172.2275)"/><rect width="3.1" height="3.1" x="1663.6" y="60.3" class="st19" transform="matrix(0.9282 0.3721 -0.3721 0.9282 142.5879 -615.1415)"/><rect width="3.1" height="3.1" x="1736.5" y="175.7" class="st19" transform="matrix(0.9282 0.3721 -0.3721 0.9282 190.754 -633.9777)"/><rect width="3.1" height="3.1" x="1594.2" y="29.6" class="st19" transform="matrix(0.9282 0.3721 -0.3721 0.9282 126.1614 -591.5273)"/><rect width="3.1" height="3.1" x="1641" y="103.9" class="st19" transform="matrix(0.4985 0.8669 -0.8669 0.4985 915.1265 -1371.0625)"/><rect width="3.1" height="3.1" x="1926.5" y="69.8" class="st19" transform="matrix(0.9282 0.3721 -0.3721 0.9282 165.0054 -712.3162)"/><rect width="3.1" height="3.1" x="2016.3" y="49.6" class="st19" transform="matrix(0.9282 0.3721 -0.3721 0.9282 163.9134 -747.1843)"/><rect width="3.4" height="3.4" x="1974.3" y="83.1" class="st19" transform="matrix(0.9282 0.3721 -0.3721 0.9282 173.4542 -729.1678)"/><rect width="3.4" height="3.4" x="1562.1" y="123.7" class="st19" transform="matrix(0.9282 0.3721 -0.3721 0.9282 158.9638 -572.8952)"/><rect width="3.4" height="3.4" x="1845.2" y="133.9" class="st19" transform="matrix(0.9282 0.3721 -0.3721 0.9282 183.0552 -677.4747)"/><rect width="3.4" height="3.4" x="1907.2" y="132.7" class="st19" transform="matrix(0.9282 0.3721 -0.3721 0.9282 187.0859 -700.663)"/><rect width="3.4" height="3.4" x="1640" y="175.8" class="st19" transform="matrix(0.9282 0.3721 -0.3721 0.9282 183.9393 -598.1312)"/><rect width="3.4" height="3.4" x="1563.2" y="182.3" class="st19" transform="matrix(0.9282 0.3721 -0.3721 0.9282 180.8532 -569.086)"/><rect width="3.4" height="3.4" x="1695.9" y="124.6" class="st19" transform="matrix(0.9282 0.3721 -0.3721 0.9282 168.8961 -622.6212)"/><rect width="3.1" height="3.1" x="1731.9" y="67.4" class="st19" transform="matrix(0.9282 0.3721 -0.3721 0.9282 150.1326 -640.0532)"/><rect width="3.1" height="3.1" x="1973" y="68.2" class="st19" transform="matrix(0.9282 0.3721 -0.3721 0.9282 167.7194 -729.703)"/><rect width="3.1" height="3.1" x="2007.1" y=".6" class="st19" transform="matrix(0.9282 0.3721 -0.3721 0.9282 145.0381 -747.2466)"/><rect width="4.8" height="4.8" x="1903.7" y="-49.2" class="st19" transform="matrix(0.9917 0.1285 -0.1285 0.9917 9.7879 -245.3306)"/><rect width="4.8" height="4.8" x="1579.5" y="-82.3" class="st19" transform="matrix(0.9917 0.1285 -0.1285 0.9917 2.8449 -203.9344)"/><rect width="4.8" height="4.8" x="1542.6" y="-11.7" class="st19" transform="matrix(0.9917 0.1285 -0.1285 0.9917 11.6118 -198.6057)"/><rect width="4.8" height="4.8" x="1433.3" y="23.8" class="st19" transform="matrix(0.9917 0.1285 -0.1285 0.9917 15.2674 -184.2672)"/><rect width="4.8" height="4.8" x="1726.9" y="-7.3" class="st19" transform="matrix(0.9917 0.1285 -0.1285 0.9917 13.7045 -222.2522)"/><rect width="4.8" height="4.8" x="1594.6" y="-17.2" class="st19" transform="matrix(0.9917 0.1285 -0.1285 0.9917 11.3368 -205.3352)"/><rect width="4.8" height="4.8" x="1918.6" y="-19.5" class="st19" transform="matrix(0.9917 0.1285 -0.1285 0.9917 13.7273 -246.9864)"/><rect width="4.8" height="4.8" x="1386.5" y="-84.9" class="st19" transform="matrix(0.9917 0.1285 -0.1285 0.9917 0.9125 -179.1653)"/><rect width="4.8" height="4.8" x="1801.7" y="-11.9" class="st19" transform="matrix(0.9917 0.1285 -0.1285 0.9917 13.7347 -231.9135)"/><rect width="4.8" height="4.8" x="1610.5" y="-31.9" class="st19" transform="matrix(0.9917 0.1285 -0.1285 0.9917 9.58 -207.4994)"/><rect width="4.8" height="4.8" x="1918.8" y="24.4" class="st19" transform="matrix(0.9917 0.1285 -0.1285 0.9917 19.3704 -246.6601)"/><rect width="4.8" height="4.8" x="1838.8" y="50.8" class="st19" transform="matrix(-0.7071 -0.7071 0.7071 -0.7071 3105.594 1392.7416)"/><rect width="4.8" height="4.8" x="1783.4" y="78.2" class="st19" transform="matrix(-0.7071 -0.7071 0.7071 -0.7071 2991.5715 1400.3748)"/><rect width="4.8" height="4.8" x="1936.7" y="161.9" class="st19" transform="matrix(-0.7071 -0.7071 0.7071 -0.7071 3194.1262 1651.6552)"/><rect width="4.8" height="4.8" x="1970.1" y="-70.7" class="st19" transform="matrix(-0.7071 -0.7071 0.7071 -0.7071 3415.5681 1278.2234)"/><rect width="4.8" height="4.8" x="1954.7" y="3.6" class="st19" transform="matrix(-0.7071 -0.7071 0.7071 -0.7071 3336.699 1394.1958)"/><rect width="3.1" height="3.1" x="1791.4" y="-128.9" class="st19" transform="matrix(-0.7071 -0.7071 0.7071 -0.7071 3150.7847 1050.3667)"/><rect width="3.4" height="3.4" x="1808.3" y="-66.4" class="st19" transform="matrix(-0.7071 -0.7071 0.7071 -0.7071 3135.6228 1169.4209)"/><rect width="3.1" height="3.1" x="1753.1" y="-27.5" class="st19" transform="matrix(-0.7071 -0.7071 0.7071 -0.7071 3013.687 1196.4033)"/><rect width="4.8" height="4.8" x="1858.8" y="-275.4" class="st19" transform="matrix(-0.7071 -0.7071 0.7071 -0.7071 3370.3579 849.985)"/><rect width="4.8" height="4.8" x="1803.3" y="-248.1" class="st19" transform="matrix(-0.7071 -0.7071 0.7071 -0.7071 3256.2944 857.3764)"/><rect width="4.8" height="4.8" x="2490.3" y="-255.4" class="st19" transform="matrix(-0.7071 -0.7071 0.7071 -0.7071 4434.1929 1330.7004)"/><rect width="4.8" height="4.8" x="2065.5" y="-251.5" class="st19" transform="matrix(-0.7071 -0.7071 0.7071 -0.7071 3706.2478 1037.0061)"/><rect width="4.8" height="4.8" x="1999.3" y="-277" class="st19" transform="matrix(-0.7071 -0.7071 0.7071 -0.7071 3611.3601 946.6501)"/><rect width="3.1" height="3.1" x="2232.9" y="-267.7" class="st19" transform="matrix(-0.1174 -0.9931 0.9931 -0.1174 2761.0764 1921.6085)"/><rect width="3.4" height="3.4" x="2312.9" y="-255.3" class="st19" transform="matrix(-0.7071 -0.7071 0.7071 -0.7071 4130.6304 1203.7783)"/><rect width="3.1" height="3.1" x="2135" y="-269.9" class="st19" transform="matrix(-0.7071 -0.7071 0.7071 -0.7071 3837.04 1052.6488)"/><rect width="4.8" height="4.8" x="1506.6" y="-247.3" class="st19" transform="matrix(-0.7071 -0.7071 0.7071 -0.7071 2749.2097 648.9236)"/><rect width="4.8" height="4.8" x="1430.6" y="-268.5" class="st19" transform="matrix(-0.7071 -0.7071 0.7071 -0.7071 2634.5381 559.0198)"/><rect width="4.8" height="4.8" x="1371.8" y="-255.2" class="st19" transform="matrix(-0.7071 -0.7071 0.7071 -0.7071 2524.6653 540.0662)"/><rect width="3.1" height="3.1" x="1615.2" y="-252.4" class="st19" transform="matrix(-0.7071 -0.7071 0.7071 -0.7071 2937.3269 714.9719)"/><rect width="4.8" height="4.8" x="2071.6" y="73.7" class="st19" transform="matrix(-0.7071 -0.7071 0.7071 -0.7071 3486.7136 1596.4404)"/><rect width="4.8" height="4.8" x="2293.2" y="-13.2" class="st19" transform="matrix(-0.7071 -0.7071 0.7071 -0.7071 3926.436 1604.8817)"/><rect width="4" height="4" x="2437" y="-70.2" class="st19" transform="matrix(-0.7071 -0.7071 0.7071 -0.7071 4211.8232 1608.2937)"/><rect width="3.4" height="3.4" x="2055.6" y="-140.1" class="st19" transform="matrix(-0.7071 -0.7071 0.7071 -0.7071 3609.9001 1218.4811)"/><rect width="4.8" height="4.8" x="2365.5" y="-46.5" class="st19" transform="matrix(-0.7071 -0.7071 0.7071 -0.7071 4073.469 1599.0217)"/><rect width="4.8" height="4.8" x="2473.8" y="-7.9" class="st19" transform="matrix(-0.7071 -0.7071 0.7071 -0.7071 4231.0186 1741.4514)"/><rect width="4.8" height="4.8" x="2237.1" y="148.4" class="st19" transform="matrix(-0.7071 -0.7071 0.7071 -0.7071 3716.4988 1841.0231)"/><rect width="4.8" height="4.8" x="2086.9" y="-154.6" class="st19" transform="matrix(-0.7071 -0.7071 0.7071 -0.7071 3674.2319 1217.5073)"/><rect width="4.8" height="4.8" x="2320.9" y="-73.9" class="st19" transform="matrix(-0.7071 -0.7071 0.7071 -0.7071 4016.6675 1520.7291)"/><rect width="4" height="4" x="2264" y="-124.2" class="st19" transform="matrix(-0.7071 -0.7071 0.7071 -0.7071 3954.7046 1393.7321)"/><rect width="4.8" height="4.8" x="2104.4" y="-121.1" class="st19" transform="matrix(-0.7071 -0.7071 0.7071 -0.7071 3680.4109 1287.0858)"/><rect width="4.8" height="4.8" x="2184.1" y="1.8" class="st19" transform="matrix(-0.7071 -0.7071 0.7071 -0.7071 3729.5457 1553.2399)"/><rect width="4.8" height="4.8" x="2182.8" y="-99.4" class="st19" transform="matrix(-0.7071 -0.7071 0.7071 -0.7071 3799.0396 1379.5732)"/><rect width="4" height="4" x="2329.6" y="-157.8" class="st19" transform="matrix(-0.7071 -0.7071 0.7071 -0.7071 4090.502 1382.7335)"/><rect width="4.8" height="4.8" x="2453.8" y="-153.8" class="st19" transform="matrix(-0.7071 -0.7071 0.7071 -0.7071 4300.0454 1478.2478)"/><rect width="4.8" height="4.8" x="2143.9" y="66.5" class="st19" transform="matrix(-0.7071 -0.7071 0.7071 -0.7071 3615.1777 1635.3516)"/><rect width="4.8" height="4.8" x="2077.8" y="41.1" class="st19" transform="matrix(-0.7071 -0.7071 0.7071 -0.7071 3520.3604 1545.1663)"/><rect width="4.8" height="4.8" x="2444.4" y="106.7" class="st19" transform="matrix(-0.7071 -0.7071 0.7071 -0.7071 4099.8472 1916.3961)"/><rect width="3.1" height="3.1" x="2458.1" y="-23.5" class="st19" transform="matrix(-0.7071 -0.7071 0.7071 -0.7071 4214.4678 1701.7208)"/><rect width="3.1" height="3.1" x="2273.5" y="81.5" class="st19" transform="matrix(-0.7071 -0.7071 0.7071 -0.7071 3825.0129 1750.509)"/><rect width="3.1" height="3.1" x="2251.8" y="-53.3" class="st19" transform="matrix(-0.7071 -0.7071 0.7071 -0.7071 3883.3086 1505.0575)"/><rect width="3.1" height="3.1" x="2325.2" y="137" class="st19" transform="matrix(-0.7071 -0.7071 0.7071 -0.7071 3874.0464 1881.7933)"/><rect width="3.1" height="3.1" x="2311.4" y="50.4" class="st19" transform="matrix(-0.1174 -0.9931 0.9931 -0.1174 2532.9299 2354.9553)"/><rect width="4.8" height="4.8" x="2174.9" y="106.4" class="st19" transform="matrix(-0.7071 -0.7071 0.7071 -0.7071 3639.9893 1725.29)"/><rect width="3.4" height="3.4" x="2391.4" y="62.8" class="st19" transform="matrix(-0.7071 -0.7071 0.7071 -0.7071 4039.6313 1802.2948)"/><rect width="3.4" height="3.4" x="2135.1" y="-57.9" class="st19" transform="matrix(-0.7071 -0.7071 0.7071 -0.7071 3687.5222 1414.9343)"/><rect width="3.4" height="3.4" x="2077.7" y="-81.3" class="st19" transform="matrix(-0.7071 -0.7071 0.7071 -0.7071 3606.0667 1334.5453)"/><rect width="4" height="4" x="2391.5" y="-109.8" class="st19" transform="matrix(-0.7071 -0.7071 0.7071 -0.7071 4162.229 1508.4626)"/><rect width="3.4" height="3.4" x="2340.1" y="-16" class="st19" transform="matrix(-0.7071 -0.7071 0.7071 -0.7071 4007.7874 1631.5796)"/><rect width="3.4" height="3.4" x="2442.2" y="126.6" class="st19" transform="matrix(-0.7071 -0.7071 0.7071 -0.7071 4081.2651 1947.0759)"/><rect width="3.4" height="3.4" x="2413.4" y="8.4" class="st19" transform="matrix(-0.7071 -0.7071 0.7071 -0.7071 4115.7568 1724.9896)"/><rect width="4.8" height="4.8" x="2299.4" y="-72" class="st19" transform="matrix(-0.7071 -0.7071 0.7071 -0.7071 3978.6519 1508.8369)"/><rect width="3.4" height="3.4" x="2268.6" y="9.3" class="st19" transform="matrix(-0.7071 -0.7071 0.7071 -0.7071 3867.9463 1624.1117)"/><rect width="4.8" height="4.8" x="2104.4" y="6.3" class="st19" transform="matrix(-0.7071 -0.7071 0.7071 -0.7071 3590.3247 1504.5693)"/><rect width="3.1" height="3.1" x="2213.4" y="48.1" class="st19" transform="matrix(-0.7071 -0.7071 0.7071 -0.7071 3746.1406 1650.924)"/><rect width="4.8" height="4.8" x="2522.8" y="-17.5" class="st19" transform="matrix(-0.7071 -0.7071 0.7071 -0.7071 4321.4858 1759.8218)"/><rect width="3.4" height="3.4" x="2497.4" y="13.1" class="st19" transform="matrix(-0.7071 -0.7071 0.7071 -0.7071 4255.8042 1792.3795)"/><rect width="4.8" height="4.8" x="882.6" y="-284.1" class="st19" transform="matrix(-0.7071 -0.7071 0.7071 -0.7071 1710.0118 144.9557)"/><rect width="4.8" height="4.8" x="1063.1" y="-278.8" class="st19" transform="matrix(-0.7071 -0.7071 0.7071 -0.7071 2014.3531 281.5668)"/><rect width="4.8" height="4.8" x="773.3" y="-269.1" class="st19" transform="matrix(-0.7071 -0.7071 0.7071 -0.7071 1512.8092 93.1845)"/><rect width="3.1" height="3.1" x="900.7" y="-220.6" class="st19" transform="matrix(-0.1174 -0.9931 0.9931 -0.1174 1225.7474 651.2886)"/><rect width="3.4" height="3.4" x="1002.7" y="-262.6" class="st19" transform="matrix(-0.7071 -0.7071 0.7071 -0.7071 1899.1207 264.8931)"/><rect width="3.4" height="3.4" x="858" y="-261.6" class="st19" transform="matrix(-0.7071 -0.7071 0.7071 -0.7071 1651.3517 164.2561)"/><rect width="3.1" height="3.1" x="802.8" y="-222.8" class="st19" transform="matrix(-0.7071 -0.7071 0.7071 -0.7071 1529.5457 191.0687)"/><rect width="4.8" height="4.8" x="1220.3" y="-249.8" class="st19" transform="matrix(-0.7071 -0.7071 0.7071 -0.7071 2262.2993 442.1956)"/><rect width="4.8" height="4.8" x="1247.1" y="-262.9" class="st19" transform="matrix(-0.7071 -0.7071 0.7071 -0.7071 2317.1606 438.7633)"/><rect width="3.1" height="3.1" x="1204.7" y="-265.5" class="st19" transform="matrix(-0.7071 -0.7071 0.7071 -0.7071 2245.8481 402.4235)"/><rect width="3.4" height="3.4" x="1086.7" y="-257.8" class="st19" transform="matrix(-0.7071 -0.7071 0.7071 -0.7071 2039.1385 332.4947)"/><rect width="3.4" height="3.4" x="1159.9" y="-233.5" class="st19" transform="matrix(-0.7071 -0.7071 0.7071 -0.7071 2146.8962 425.7344)"/><rect width="2.8" height="2.8" x="1323.6" y="-218.4" class="st19" transform="matrix(-0.7071 -0.7071 0.7071 -0.7071 2415.2886 566.4091)"/><rect width="4.8" height="4.8" x="1326" y="-164.3" class="st19" transform="matrix(-0.7071 -0.7071 0.7071 -0.7071 2382.2703 662.9736)"/><rect width="4.8" height="4.8" x="1250" y="-185.4" class="st19" transform="matrix(-0.7071 -0.7071 0.7071 -0.7071 2267.428 573.1404)"/><rect width="4.8" height="4.8" x="1191.2" y="-172.2" class="st19" transform="matrix(-0.7071 -0.7071 0.7071 -0.7071 2157.7258 554.1164)"/><rect width="4.8" height="4.8" x="1503.9" y="-199" class="st19" transform="matrix(-0.7071 -0.7071 0.7071 -0.7071 2710.4641 729.4299)"/><rect width="4.8" height="4.8" x="766.5" y="-168.2" class="st19" transform="matrix(-0.7071 -0.7071 0.7071 -0.7071 1429.8219 260.6636)"/><rect width="3.1" height="3.1" x="895.9" y="-153.3" class="st19" transform="matrix(-0.7071 -0.7071 0.7071 -0.7071 1639.3744 375.4792)"/><rect width="3.1" height="3.1" x="933.9" y="-184.5" class="st19" transform="matrix(-0.1174 -0.9931 0.9931 -0.1174 1226.9402 724.5278)"/><rect width="3.4" height="3.4" x="1013.9" y="-172.1" class="st19" transform="matrix(-0.7071 -0.7071 0.7071 -0.7071 1854.1633 427.1943)"/><rect width="4.8" height="4.8" x="1366.4" y="-154.1" class="st19" transform="matrix(-0.7071 -0.7071 0.7071 -0.7071 2443.9177 708.8886)"/><rect width="2.8" height="2.8" x="1307" y="-218.8" class="st19" transform="matrix(-0.7071 -0.7071 0.7071 -0.7071 2387.3799 554.0778)"/><rect width="3.1" height="3.1" x="836" y="-186.8" class="st19" transform="matrix(-0.7071 -0.7071 0.7071 -0.7071 1560.8141 276.0235)"/><rect width="3.1" height="3.1" x="1663.6" y="-191.4" class="st19" transform="matrix(0.9282 0.3721 -0.3721 0.9282 48.9355 -633.2235)"/><rect width="3.1" height="3.1" x="1640.9" y="-147.8" class="st19" transform="matrix(0.4985 0.8669 -0.8669 0.4985 696.9011 -1497.1425)"/><rect width="3.1" height="3.1" x="1926.6" y="-181.9" class="st19" transform="matrix(0.9282 0.3721 -0.3721 0.9282 71.3529 -730.3982)"/><rect width="3.1" height="3.1" x="2016.4" y="-202.1" class="st19" transform="matrix(0.9282 0.3721 -0.3721 0.9282 70.2611 -765.2662)"/><rect width="3.4" height="3.4" x="1974.2" y="-168.5" class="st19" transform="matrix(0.9282 0.3721 -0.3721 0.9282 79.8239 -747.2188)"/><rect width="3.1" height="3.1" x="1731.8" y="-184.2" class="st19" transform="matrix(0.9282 0.3721 -0.3721 0.9282 56.5021 -658.1041)"/><rect width="3.1" height="3.1" x="1972.9" y="-183.5" class="st19" transform="matrix(0.9282 0.3721 -0.3721 0.9282 74.089 -747.7539)"/><rect width="4.8" height="4.8" x="1838.9" y="-200.9" class="st19" transform="matrix(-0.7071 -0.7071 0.7071 -0.7071 3283.6721 963.1694)"/><rect width="4.8" height="4.8" x="1783.3" y="-173.5" class="st19" transform="matrix(-0.7071 -0.7071 0.7071 -0.7071 3169.3374 970.6729)"/><rect width="4.8" height="4.8" x="2071.6" y="-178" class="st19" transform="matrix(-0.7071 -0.7071 0.7071 -0.7071 3664.7207 1166.8386)"/><rect width="4.8" height="4.8" x="2143.9" y="-185.1" class="st19" transform="matrix(-0.7071 -0.7071 0.7071 -0.7071 3793.1851 1205.7501)"/><rect width="4.8" height="4.8" x="2077.8" y="-210.6" class="st19" transform="matrix(-0.7071 -0.7071 0.7071 -0.7071 3698.3677 1115.5646)"/><rect width="4.8" height="4.8" x="2444.4" y="-144.9" class="st19" transform="matrix(-0.7071 -0.7071 0.7071 -0.7071 4277.6841 1486.8654)"/><rect width="3.1" height="3.1" x="2273.5" y="-170.2" class="st19" transform="matrix(-0.7071 -0.7071 0.7071 -0.7071 4003.0203 1320.7661)"/><rect width="3.1" height="3.1" x="2311.4" y="-201.4" class="st19" transform="matrix(-0.1174 -0.9931 0.9931 -0.1174 2782.917 2073.6677)"/><rect width="4.8" height="4.8" x="2174.9" y="-145.2" class="st19" transform="matrix(-0.7071 -0.7071 0.7071 -0.7071 3817.8257 1295.759)"/><rect width="3.4" height="3.4" x="2391.4" y="-188.9" class="st19" transform="matrix(-0.7071 -0.7071 0.7071 -0.7071 4217.6387 1372.552)"/><rect width="3.1" height="3.1" x="2213.5" y="-203.6" class="st19" transform="matrix(-0.7071 -0.7071 0.7071 -0.7071 3924.2185 1221.3513)"/></g><path id="moon_1_" d="M1528.4,110c1.5,1.7,2.4,3.9,2.4,6.3c0,5.3-4.3,9.6-9.6,9.6c-1.7,0-3.3-0.4-4.6-1.2	c1.8,2,4.4,3.3,7.3,3.3c5.3,0,9.6-4.3,9.6-9.6C1533.4,114.9,1531.4,111.7,1528.4,110z" class="st21"/><linearGradient id="SVGID_10_" x1="1413.029" x2="1540.968" y1="-57.047" y2="-55.096" gradientTransform="matrix(0.999 4.384206e-02 -4.384206e-02 0.999 14.0717 -168.1321)" gradientUnits="userSpaceOnUse"><stop style="stop-color:#f2fafe" offset="0"/><stop style="stop-color:#f3c187" offset=".209"/><stop style="stop-color:#eb8d80" offset=".432"/><stop style="stop-color:#c77e75" offset=".465"/><stop style="stop-color:#996b66" offset=".512"/><stop style="stop-color:#705a59" offset=".562"/><stop style="stop-color:#504c4e" offset=".613"/><stop style="stop-color:#364146" offset=".665"/><stop style="stop-color:#243a41" offset=".719"/><stop style="stop-color:#19353d" offset=".775"/><stop style="stop-color:#16343c" offset=".84"/></linearGradient><path d="M1436.4-164.7c-2.4-0.1-4.8-0.2-7.2-0.3l-1.2,0.6l1.1,0.7c5.4,0.2,10.9,0.4,16.5,0.6	c46.1,2,86.9,5.8,112.1,9.8C1534.1-158,1488.7-162.4,1436.4-164.7z" class="st22"/><linearGradient id="SVGID_11_" x1="768.234" x2="1256.541" y1="-115.589" y2="-133.835" gradientTransform="matrix(1 0 0 -1 0 270)" gradientUnits="userSpaceOnUse"><stop style="stop-color:#404f58" offset="0"/><stop style="stop-color:#41535d" offset=".342"/><stop style="stop-color:#445e6d" offset=".882"/><stop style="stop-color:#456171" offset="1"/></linearGradient><polygon points="1263.6 404.7 1263.3 404.4 1257.7 403.3 1250.5 398.5 1248.8 397.7 1257.2 397 1260.6 394.7 1267.9 395.4 1288.4 389.7 1274.6 389.8 1268.3 389.8 1253.6 388.1 1249.1 388.9 1244.4 388.1 1229.9 389.4 1211.3 384.9 1192.3 385.5 1185.4 387.7 1171.9 385.9 1166.6 383.2 1153.3 385 1141.9 385.2 1131.1 382.6 1113.1 382.6 1096.3 382.6 1087.1 377.3 1063.7 377.3 1033.4 377.3 1022.9 370.2 986.1 377.9 957.6 370.7 878.8 373.4 834.4 358.4 802.9 360.9 757.3 355.9 755.6 354.9 755.6 406.5 877.4 406.5 929.9 412.2 963.4 423.1 1061.5 416.7 1102 424.8 1143.3 423.1 1179.5 425.5 1167.3 419.2 1181.1 412.9 1186.6 414.8 1191.8 411.9 1211.5 410.7 1215.1 409.9 1242.6 409.4 1260 409.4 1261.8 409.4 1263.6 409 1271.8 408.3 1269 406.7" class="st23"/><linearGradient id="SVGID_12_" x1="1123.218" x2="1035.703" y1="99.067" y2="-117.29" gradientTransform="matrix(1 0 0 -1 0 270)" gradientUnits="userSpaceOnUse"><stop style="stop-color:#334d5a" offset=".114"/><stop style="stop-color:#384a56" offset="1"/></linearGradient><polygon points="1293.4 431.4 1269.7 426.7 1237.2 424.2 1215.5 417.2 1198.4 415.3 1159.6 419.4 1102.2 404.9 1047.2 411.9 998.7 403.2 956.6 405.5 922.4 401.1 911.2 393.3 875.1 389.7 846 389.7 840.7 393.7 820.9 387.3 803.8 385.4 765 389.5 755.6 384.5 755.6 454.6 767.2 446.8 780.6 448.8 785.8 477.3 820.8 477 885.6 475.2 964 476.7 1069.9 476.2 1106.9 476.7 1137.2 457.6 1167.2 459.2 1199.6 449.2 1213.8 440.9 1240.8 436.8 1279.1 437.5 1298.2 433.5" class="st24"/><linearGradient id="SVGID_13_" x1="1586.706" x2="927.542" y1="-183.447" y2="-219.452" gradientTransform="matrix(1 0 0 -1 0 270)" gradientUnits="userSpaceOnUse"><stop style="stop-color:#303d44" offset="0"/><stop style="stop-color:#34424a" offset=".564"/><stop style="stop-color:#223239" offset=".972"/></linearGradient><polygon points="1169.1 493.4 1137.4 478.9 1109.8 480.8 1081.3 464.5 1032.8 453.2 988.5 442.6 936.7 443.2 862.6 430.9 836 433.4 836 433.3 755.6 425.4 755.6 561.3 827.1 561.3 833.7 561.3 859.4 561.3 875.8 561.3 892.9 561.3 928.7 561.3 962.2 561 1042.3 544.2 1078.9 541.1 1112 533.1 1137 519.9 1158.8 517.2 1169.9 518.6 1196.7 516.6 1220.6 512" class="st25"/><polygon points="1265.6 305.3 1259.9 301.3 755.6 301.3 755.6 317.1 1088 317.1 1096.4 311.2 1096 309.2 1259.9 309.2" class="st26"/><polygon points="1181.5 328 755.6 328 755.6 336.5 1181.5 336.5 1187.6 332.2" class="st26"/><g><g><defs><rect id="SVGID_14_" width="1780" height="850" x="755.6" y="-290"/></defs><clipPath id="SVGID_15_"><use style="overflow:visible" xlink:href="#SVGID_14_"/></clipPath><g class="st27"><g><g><linearGradient id="SVGID_16_" x1="5488.925" x2="5493.544" y1="-372.682" y2="-316.67" gradientTransform="matrix(-1 0 0 -1 7486.832 270)" gradientUnits="userSpaceOnUse"><stop style="stop-color:#293942" offset=".264"/><stop style="stop-color:#0f1b21" offset="1"/></linearGradient><polygon points="2183 566.5 2170.7 614.1 2117.2 631.9 1939.9 647.8 1881.3 642.9 1834.5 631.1 1807.1 620.3 1803.1 601.6 1834.5 500.4 2111.9 459.2 2176 482.2" class="st28"/></g><linearGradient id="SVGID_17_" x1="5497.643" x2="5496.401" y1="-178.296" y2="-331.123" gradientTransform="matrix(-1 0 0 -1 7486.832 270)" gradientUnits="userSpaceOnUse"><stop style="stop-color:#4e5663" offset="0"/><stop style="stop-color:#a6a8ab" offset=".272"/><stop style="stop-color:#a6a8ab" offset=".809"/><stop style="stop-color:#cfd0d2" offset=".927"/></linearGradient><polygon points="2221.6 421.2 2229.3 457.7 2224.8 498.7 2212.3 541.6 2180.1 589.8 2132.7 608.7 2069.4 630.8 2037.5 614.8 1937.8 582.8 1906.4 582.8 1855.8 600.5 1835 617.4 1819.8 625.3 1802.2 623.8 1779.7 573.1 1749.2 459.2 1757.8 411.5 1777.5 401.2 1861.1 395.9 1922.9 451.1 2176.3 413.2" class="st29"/><g><linearGradient id="SVGID_18_" x1="1136.086" x2="1087.105" y1="1216.315" y2="1186.368" gradientTransform="matrix(0.8368 -0.5475 -0.5475 -0.8368 1543.1561 2041.3521)" gradientUnits="userSpaceOnUse"><stop style="stop-color:#929497" offset="0"/><stop style="stop-color:#293942" offset="1"/></linearGradient><polygon points="1821 466.5 1812.9 443.1 1808.6 416.1 1810.6 400.7 1807.2 394.7 1803.4 413.8 1807.4 444 1814.2 469.3" class="st30"/><linearGradient id="SVGID_19_" x1="1125.051" x2="1067.018" y1="1219.035" y2="1152.497" gradientTransform="matrix(0.8223 -0.569 -0.569 -0.8223 1592.6705 2110.0261)" gradientUnits="userSpaceOnUse"><stop style="stop-color:#5b3528" offset="0"/><stop style="stop-color:#5b3427" offset=".17"/><stop style="stop-color:#743a21" offset=".206"/><stop style="stop-color:#8f411c" offset=".253"/><stop style="stop-color:#a24517" offset=".301"/><stop style="stop-color:#ad4815" offset=".35"/><stop style="stop-color:#b14914" offset=".402"/><stop style="stop-color:#5b3528" offset=".572"/></linearGradient><polygon points="1835.6 460.9 1842.7 480.7 1855.7 521.4 1810.8 531.7 1797 517 1785.7 490 1786 472.2 1823.1 458" class="st31"/><linearGradient id="SVGID_20_" x1="1273.679" x2="1211.37" y1="1467.878" y2="1397.918" gradientTransform="matrix(0.7678 -0.6407 -0.6407 -0.7678 1768.0566 2342.6887)" gradientUnits="userSpaceOnUse"><stop style="stop-color:#cfd0d2" offset="0"/><stop style="stop-color:#293942" offset="1"/></linearGradient><polygon points="1782.4 400 1781.4 418.7 1782.3 438.6 1785.7 457.3 1790.6 470.9 1801.5 501.3 1826.1 488.9 1814.6 461.2 1809.5 448.7 1806.3 432.8 1804.7 413.5 1807.2 394.7" class="st32"/><g><linearGradient id="SVGID_21_" x1="1249.43" x2="1233.079" y1="1437.479" y2="1454.596" gradientTransform="matrix(0.7678 -0.6407 -0.6407 -0.7678 1768.0566 2342.6887)" gradientUnits="userSpaceOnUse"><stop style="stop-color:#455a65" offset=".264"/><stop style="stop-color:#0f1b21" offset="1"/></linearGradient><polygon points="1806.7 435 1782.9 441.5 1782.4 439.2 1806.3 432.8" class="st33"/></g><g><linearGradient id="SVGID_22_" x1="1260.831" x2="1244.893" y1="1453.861" y2="1470.547" gradientTransform="matrix(0.7678 -0.6407 -0.6407 -0.7678 1768.0566 2342.6887)" gradientUnits="userSpaceOnUse"><stop style="stop-color:#455a65" offset=".264"/><stop style="stop-color:#0f1b21" offset="1"/></linearGradient><polygon points="1805 414.8 1781.4 421.1 1781.4 418.7 1804.9 413.5" class="st34"/></g><g><linearGradient id="SVGID_23_" x1="1566.123" x2="1548.987" y1="1793.645" y2="1811.584" gradientTransform="matrix(0.6238 -0.7816 -0.7816 -0.6238 2235.1965 2795.8059)" gradientUnits="userSpaceOnUse"><stop style="stop-color:#455a65" offset=".264"/><stop style="stop-color:#0f1b21" offset="1"/></linearGradient><polygon points="1810 450.5 1786.2 459.2 1785.7 457.3 1809.5 448.7" class="st35"/></g><linearGradient id="SVGID_24_" x1="1114.295" x2="1070.946" y1="1219.229" y2="1169.526" gradientTransform="matrix(0.8223 -0.569 -0.569 -0.8223 1592.6705 2110.0261)" gradientUnits="userSpaceOnUse"><stop style="stop-color:#283840" offset="0"/><stop style="stop-color:#0f1b21" offset="1"/></linearGradient><polygon points="1788.5 481 1826.1 467.6 1837.9 501.3 1824.6 523.6 1799.1 514" class="st36"/></g><g><linearGradient id="SVGID_25_" x1="5412.511" x2="5502.911" y1="-242.45" y2="-242.45" gradientTransform="matrix(-1 0 0 -1 7486.832 270)" gradientUnits="userSpaceOnUse"><stop style="stop-color:#3b2314" offset="0"/><stop style="stop-color:#754c28" offset="1"/></linearGradient><polygon points="2066.9 465.2 2072 472.4 2074.3 480.6 2058.9 506.9 2065.1 530.1 2036.4 559.7 1986.9 541.1 1983.9 535.2 2031.1 547.7 2052.5 529.2 2046.5 503.6" class="st37"/><linearGradient id="SVGID_26_" x1="5254.61" x2="5450.511" y1="-167.7" y2="-167.7" gradientTransform="matrix(-1 0 0 -1 7486.832 270)" gradientUnits="userSpaceOnUse"><stop style="stop-color:#929497" offset="0"/><stop style="stop-color:#293942" offset="1"/></linearGradient><polygon points="2224.8 416 2232.2 439.2 2229.3 457.7 2218.9 424.2 2176.6 414 2150.8 417.9 2128.1 425.1 2102.5 438.6 2081.1 454.2 2056.7 476.8 2048.7 475.7 2036.3 474.1 2076.1 430.2 2108.9 411.7 2137.3 402.9 2168.9 398.6 2201 404.8" class="st38"/><linearGradient id="SVGID_27_" x1="5464.878" x2="5453.689" y1="-276.035" y2="-191.232" gradientTransform="matrix(-1 0 0 -1 7486.832 270)" gradientUnits="userSpaceOnUse"><stop style="stop-color:#0f1b21" offset="0"/><stop style="stop-color:#5b3427" offset=".17"/><stop style="stop-color:#683827" offset=".182"/><stop style="stop-color:#924625" offset=".225"/><stop style="stop-color:#b45124" offset=".268"/><stop style="stop-color:#cf5a23" offset=".312"/><stop style="stop-color:#e26023" offset=".356"/><stop style="stop-color:#ed6422" offset=".402"/><stop style="stop-color:#f16522" offset=".451"/><stop style="stop-color:#404041" offset=".778"/></linearGradient><polygon points="2066.9 465.2 2072 472.4 2051.3 505.7 2059.5 529.1 2034.4 554.2 1983.9 535.2 1984.7 522.4 1993.1 499.1 2013.8 465.3 2024.9 460.3" class="st39"/><linearGradient id="SVGID_28_" x1="5262.011" x2="5467.511" y1="-171.55" y2="-171.55" gradientTransform="matrix(-1 0 0 -1 7486.832 270)" gradientUnits="userSpaceOnUse"><stop style="stop-color:#fff" offset="0"/><stop style="stop-color:#293942" offset="1"/></linearGradient><polygon points="2144.4 395.3 2112.6 400.3 2087.5 412.1 2064.9 425.7 2047.4 444.2 2030.4 463.3 2019.3 483.6 2041.6 487.8 2079 446.8 2094.3 432.4 2120.5 418.4 2151.3 408.3 2177.9 405.2 2224.8 416 2188.4 399.2" class="st40"/><linearGradient id="SVGID_29_" x1="5481.248" x2="5443.553" y1="-243.811" y2="-204.348" gradientTransform="matrix(-1 0 0 -1 7486.832 270)" gradientUnits="userSpaceOnUse"><stop style="stop-color:#455a65" offset=".264"/><stop style="stop-color:#0f1b21" offset="1"/></linearGradient><polygon points="2059.7 476.5 2020.3 470.9 2001.9 501.3 2008.7 516 2036.6 508.8" class="st41"/><g><polygon points="2174.8 405.5 2177.9 405.2 2144 395.3 2141.8 395.7" class="st42"/></g><g><polygon points="2148.9 409.1 2151.3 408.3 2112.6 400.3 2110.9 401.1" class="st42"/></g><g><polygon points="2118.6 419.4 2120.2 418.5 2088.9 411.5 2087 412.5" class="st42"/></g><g><polygon points="2092.5 434.1 2094.3 432.4 2064.9 425.7 2063.7 427.3" class="st42"/></g><g><polygon points="2077.1 449.1 2079 446.8 2049.8 441.6 2048.2 443.4" class="st42"/></g></g><g id="left_arm_3_"><linearGradient id="SVGID_30_" x1="5749.132" x2="5551.577" y1="-461.125" y2="-581.91" gradientTransform="matrix(-0.9939 -0.1105 0.1105 -0.9939 7469.0146 628.814)" gradientUnits="userSpaceOnUse"><stop style="stop-color:#f2c086" offset="0"/><stop style="stop-color:#bbb3ae" offset=".091"/><stop style="stop-color:#caccce" offset=".316"/><stop style="stop-color:#9ea0a3" offset=".75"/></linearGradient><polygon points="1778.9 407.3 1777.5 401.2 1752.4 412.1 1736.3 428.4 1722.4 459.2 1718.2 518.6 1721.5 554.2 1739.8 586.8 1766.8 608.2 1810.2 627.6 1860.5 623.4 1911 602.8 1957.7 566.6 1918.7 533.1 1895.3 507.2 1843.4 497.4 1821.2 500.2 1798.4 506.2 1789.8 480.1 1785.7 463.7 1782.3 438.6 1781.7 412.6" class="st43"/><linearGradient id="SVGID_31_" x1="5614.699" x2="5699.918" y1="-56.737" y2="-56.737" gradientTransform="matrix(-0.9968 8.036253e-02 -8.036253e-02 -0.9968 7478.0454 1.8949)" gradientUnits="userSpaceOnUse"><stop style="stop-color:#794d3a" offset="0"/><stop style="stop-color:#36444c" offset="1"/></linearGradient><polygon points="1884.9 504.9 1823.5 528.9 1800.3 509 1800.9 502.3 1885 499.1" class="st44"/><linearGradient id="SVGID_32_" x1="5652.031" x2="5694.511" y1="-40.622" y2="-74.313" gradientTransform="matrix(-0.9968 8.036253e-02 -8.036253e-02 -0.9968 7478.0454 1.8949)" gradientUnits="userSpaceOnUse"><stop style="stop-color:#5b3427" offset="0"/><stop style="stop-color:#663827" offset=".062"/><stop style="stop-color:#844126" offset=".171"/><stop style="stop-color:#b45124" offset=".314"/><stop style="stop-color:#f16522" offset=".474"/><stop style="stop-color:#f28f3f" offset=".668"/><stop style="stop-color:#ed693c" offset=".888"/><stop style="stop-color:#e83e39" offset="1"/></linearGradient><polygon points="1859 484.3 1800.9 502.3 1824 522.2 1885 499.1" class="st45"/><g><linearGradient id="SVGID_33_" x1="6199.422" x2="6139.885" y1="-142.114" y2="-164.697" gradientTransform="matrix(-0.8525 -4.484851e-03 6.155488e-03 -1.1701 7001.8003 299.3015)" gradientUnits="userSpaceOnUse"><stop style="stop-color:#ce9179" offset="0"/><stop style="stop-color:#929497" offset=".643"/><stop style="stop-color:#293942" offset="1"/></linearGradient><polygon points="1777.5 401.2 1751.1 423.3 1742.5 438.4 1739.5 443.7 1736.1 455.5 1725.7 492.8 1719 508.4 1715.6 506.7 1719.8 468.6 1733.2 432.1 1754.4 406.3" class="st46"/><linearGradient id="SVGID_34_" x1="6655.565" x2="6592.678" y1="-142.07" y2="-165.923" gradientTransform="matrix(-0.7379 -3.882011e-03 6.155459e-03 -1.1701 6627.3071 297.3315)" gradientUnits="userSpaceOnUse"><stop style="stop-color:#f2c086" offset="0"/><stop style="stop-color:#f3a98c" offset=".081"/><stop style="stop-color:#d37a6d" offset=".184"/><stop style="stop-color:#cfd0d2" offset=".466"/><stop style="stop-color:#ccd1d0" offset=".777"/></linearGradient><polygon points="1770.7 402.7 1748.2 421.1 1739.3 435.6 1732.8 451.6 1722.4 489.8 1715.6 506.7 1713.8 501.9 1719 469.3 1730 435.4 1742.2 416.7 1754.4 406.3" class="st47"/></g><linearGradient id="SVGID_35_" x1="5552.21" x2="5641.011" y1="-283.6" y2="-283.6" gradientTransform="matrix(-1 0 0 -1 7486.832 270)" gradientUnits="userSpaceOnUse"><stop style="stop-color:#4e5663" offset="0"/><stop style="stop-color:#a6a8ab" offset="1"/></linearGradient><polygon points="1934.6 584.5 1903.9 559.7 1866.2 512.3 1845.8 520.2 1885.5 566.4 1921.3 594.9" class="st48"/></g><g id="right_arm_3_"><linearGradient id="SVGID_36_" x1="5303.532" x2="5547.081" y1="-315.928" y2="-153.002" gradientTransform="matrix(-1 0 0 -1 7486.832 270)" gradientUnits="userSpaceOnUse"><stop style="stop-color:#f2c086" offset="0"/><stop style="stop-color:#947f7e" offset=".091"/><stop style="stop-color:#cfd0d2" offset=".316"/><stop style="stop-color:#a6a8ab" offset=".717"/><stop style="stop-color:#aaacaf" offset=".746"/><stop style="stop-color:#b5b7b9" offset=".869"/><stop style="stop-color:#b9bbbd" offset="1"/></linearGradient><path d="M2221.8,491.7l-11.9,31.9l-34.7,46.3l-51.7,27l-65,28.4l-86.5-10.7l-68.2-54.9l-35.9-45.9l-30.1-22.9 l19.4-6.8l51.5-17.5L1945,477l101.1,17.8l9.2-18.5l28.3-30.8c0,0,39-22.2,52.7-25.4c13.6-3.2,47.7-3.7,47.7-3.7l37.7,34.1 L2221.8,491.7L2221.8,491.7z" class="st49"/><polygon points="1893.7 547.3 1942.7 585 1973.4 605.2 2055.6 617.6 2136 590.4 2123.6 596.9 2058.5 625.4 1972 614.7 1903.9 559.7" class="st50"/><linearGradient id="SVGID_37_" x1="5541.71" x2="5649.31" y1="-234.65" y2="-234.65" gradientTransform="matrix(-1 0 0 -1 7486.832 270)" gradientUnits="userSpaceOnUse"><stop style="stop-color:#293942" offset="0"/><stop style="stop-color:#0f1b21" offset="1"/></linearGradient><path d="M1945.1,476.8c0,0-17.2,8.4-31.6,27.9c-12.4,16.7-19.8,42.6-19.8,42.6l-27.4-34.8l-28.8-21.6l32.2-25.6 l37.9-3.3L1945.1,476.8z" class="st51"/><linearGradient id="SVGID_38_" x1="1254.805" x2="1338.545" y1="-1484.397" y2="-1484.397" gradientTransform="matrix(0.8356 0.5493 0.5493 -0.8356 1725.4907 -1454.0673)" gradientUnits="userSpaceOnUse"><stop style="stop-color:#3b2314" offset="0"/><stop style="stop-color:#754c28" offset="1"/></linearGradient><polygon points="1971.8 476.5 1945.3 495.8 1945.2 502.8 2017 524 2041.5 501.9 2041.5 494" class="st52"/><linearGradient id="SVGID_39_" x1="1245.734" x2="1314.997" y1="-1446.887" y2="-1479.9" gradientTransform="matrix(0.841 0.5411 0.5411 -0.841 1709.3239 -1427.2511)" gradientUnits="userSpaceOnUse"><stop style="stop-color:#5b3427" offset="0"/><stop style="stop-color:#914625" offset=".164"/><stop style="stop-color:#c55723" offset=".341"/><stop style="stop-color:#e56122" offset=".474"/><stop style="stop-color:#f16522" offset=".548"/><stop style="stop-color:#f28f3f" offset=".701"/><stop style="stop-color:#ed693c" offset=".888"/><stop style="stop-color:#e83e39" offset="1"/></linearGradient><polygon points="1971.8 476.5 1945.3 495.8 2017 516.1 2041.5 494" class="st53"/></g><g><g id="neck_tube_3_"><linearGradient id="SVGID_40_" x1="5720.134" x2="5279.455" y1="-118.565" y2="-140.381" gradientTransform="matrix(-1 0 0 -1 7486.832 270)" gradientUnits="userSpaceOnUse"><stop style="stop-color:#293942" offset=".264"/><stop style="stop-color:#29373e" offset="1"/></linearGradient><polygon points="1761.1 373.2 1776.2 395.5 1778.9 407.3 1784.9 418.7 1792 426.2 1794.8 438.5 1815.7 453.2 1851.7 451.7 1907.6 462.1 1930.3 469.3 2031.6 453.4 2083.4 427.4 2130.4 406.4 2168.6 400.4 2201.9 406 2218.8 413.2 2205.4 395.6 2213.2 368.3 2202.1 361.9 2192.3 337 2189 353.9 2123.3 370.3 1867.5 379.9 1810.2 373.2" class="st54"/><linearGradient id="SVGID_41_" x1="5463.511" x2="5621.911" y1="-133.3" y2="-133.3" gradientTransform="matrix(-1 0 0 -1 7486.832 270)" gradientUnits="userSpaceOnUse"><stop style="stop-color:#293942" offset="0"/><stop style="stop-color:#0f1b21" offset="1"/></linearGradient><polygon points="1864.9 397.4 1895.2 403.3 1948.4 409.8 1983.3 408.7 2012.4 402.2 2023.3 396.8 2001.6 398.3 1986.1 402.9 1942.4 402.5 1899.1 400.2" class="st55"/><linearGradient id="SVGID_42_" x1="5354.11" x2="5536.31" y1="-145.45" y2="-145.45" gradientTransform="matrix(-1 0 0 -1 7486.832 270)" gradientUnits="userSpaceOnUse"><stop style="stop-color:#293942" offset="0"/><stop style="stop-color:#162329" offset="1"/></linearGradient><polygon points="2072.8 398.8 2013.4 403.9 1969.9 419 1950.5 432.1 1971.1 431.6 2010.8 421.6 2033.3 422 2102.7 415.9 2132.7 403.8" class="st56"/><linearGradient id="SVGID_43_" x1="5440.911" x2="5618.81" y1="-179.5" y2="-179.5" gradientTransform="matrix(-1 0 0 -1 7486.832 270)" gradientUnits="userSpaceOnUse"><stop style="stop-color:#293942" offset="0"/><stop style="stop-color:#0f1b21" offset="1"/></linearGradient><polygon points="2045.9 446.1 2008.5 448.9 1977.5 447.1 1942 451.4 1868 437 1894.6 448.8 1935.8 462 2031.6 453.4" class="st57"/><linearGradient id="SVGID_44_" x1="5618.31" x2="5698.31" y1="-139.05" y2="-139.05" gradientTransform="matrix(-1 0 0 -1 7486.832 270)" gradientUnits="userSpaceOnUse"><stop style="stop-color:#293942" offset="0"/><stop style="stop-color:#0f1b21" offset="1"/></linearGradient><polygon points="1788.5 390.9 1842.3 413.2 1868.5 427.2 1833.4 416.2 1813.9 408.2" class="st58"/></g></g><g id="space_yeti"><path d="M1732-37l130.4-26.7L2033.1-16l108.6,88l-15,120.3l-89.8,43.4l-34.2,87.4l-51.1,4.1l-111.4-1.1 l-82.4-14.2l-2.9-0.5c-36-38.8-67.7-115-67-191c0.4-40.8,3.9-73,18.4-106L1732-37z" class="st59"/><linearGradient id="SVGID_45_" x1="5686.71" x2="5712.176" y1="98.9" y2="98.9" gradientTransform="matrix(-1 0 0 -1 7486.832 270)" gradientUnits="userSpaceOnUse"><stop style="stop-color:#0d1d24" offset=".339"/><stop style="stop-color:#322e2f" offset=".757"/></linearGradient><polygon points="1800.1 167.4 1800.1 180.1 1775.2 175 1774.7 162.1" class="st60"/><linearGradient id="SVGID_46_" x1="314.557" x2="411.505" y1="334.882" y2="334.882" gradientTransform="matrix(1 9.884079e-03 9.884079e-03 -1 1426.4011 241.4948)" gradientUnits="userSpaceOnUse"><stop style="stop-color:#4e5663" offset="0"/><stop style="stop-color:#0d1c21" offset=".582"/></linearGradient><path d="M1779.9-160.8c0.6-11.6-7.4-11.6-14.7-0.1c-8.1,12.6-16.3,33.3-18.6,44.3c-8.7,41.7,7.2,77.3,49,105.9 c0.1,0,0.1,0.1,0.2,0.1l0,0c0.1,0.1,0.1,0.1,0.2,0.2c2.7,1.9,14.9-11.1,27.2-28.9c12.3-17.9,20-33.9,17.3-35.8 c-0.2-0.1-0.4-0.2-0.6-0.2C1809.6-96,1777.9-123.4,1779.9-160.8z" class="st61"/><linearGradient id="SVGID_47_" x1="5267.335" x2="5734.453" y1="-126.481" y2="-126.481" gradientTransform="matrix(-1 -9.884079e-03 9.884079e-03 -1 7485.5806 301.3857)" gradientUnits="userSpaceOnUse"><stop style="stop-color:#c9a170" offset="0"/><stop style="stop-color:#b2675c" offset=".095"/><stop style="stop-color:#273d44" offset=".356"/><stop style="stop-color:#3a484e" offset=".469"/><stop style="stop-color:#4d5458" offset=".623"/><stop style="stop-color:#585b5e" offset=".782"/><stop style="stop-color:#5c5d60" offset=".951"/></linearGradient><path d="M2217.2,352.9l-0.2,18.5c-0.1,15.1-104.8,26.2-233.8,25s-233.4-14.5-233.3-29.6l0.2-18.5L2217.2,352.9z" class="st62"/><linearGradient id="SVGID_48_" x1="5749.917" x2="5260.591" y1="-103.486" y2="-103.486" gradientTransform="matrix(-1 -9.884079e-03 9.884079e-03 -1 7485.5806 301.3857)" gradientUnits="userSpaceOnUse"><stop style="stop-color:#929592" offset="0"/><stop style="stop-color:#7b797a" offset=".389"/><stop style="stop-color:#273d44" offset="1"/></linearGradient><path d="M1750.1,348.2c-0.1,15.1,104.3,28.3,233.3,29.6c129,1.3,233.7-9.9,233.8-25s-104.3-28.3-233.3-29.6 C1855,322,1750.3,333.2,1750.1,348.2z" class="st63"/><linearGradient id="SVGID_49_" x1="5648.995" x2="5771.452" y1="124.384" y2="102.516" gradientTransform="matrix(-1 -9.884079e-03 9.884079e-03 -1 7485.5806 301.3857)" gradientUnits="userSpaceOnUse"><stop style="stop-color:#0f1b21" offset="0"/><stop style="stop-color:#293942" offset="1"/></linearGradient><polygon points="1754.5 311.2 1746.9 234.2 1812.4 184.4 1809.3 122.6 1809.4 112.7 1756.5 71.4 1726.1 38.8 1710.2 11.5 1707.6 5.5 1711.6 -10.9 1744.5 -55.2 1832.3 -131.4 1967.2 -164.6 2083.2 -111.6 2223.1 5.3 2217.7 142.9 2148.8 284.8 2035.8 351.8 1918.4 360.8" class="st64"/><linearGradient id="SVGID_50_" x1="5273.585" x2="5715.61" y1="-96.486" y2="-96.486" gradientTransform="matrix(-1 -9.884079e-03 9.884079e-03 -1 7485.5806 301.3857)" gradientUnits="userSpaceOnUse"><stop style="stop-color:#f2c086" offset="0"/><stop style="stop-color:#d37a6d" offset=".091"/><stop style="stop-color:#cfd0d2" offset=".316"/><stop style="stop-color:#a6a8ab" offset=".96"/><stop style="stop-color:#b5ada3" offset=".964"/><stop style="stop-color:#d0b596" offset=".972"/><stop style="stop-color:#e3bb8d" offset=".981"/><stop style="stop-color:#eebf87" offset=".99"/><stop style="stop-color:#f2c085" offset="1"/></linearGradient><path d="M2204.6,321.6l-0.3,27.2c-0.1,11.6-98.1,20-218.9,18.8s-218.6-11.5-218.5-23.1l0.3-27.2l37.8,5.9 l36.6,4.3L2204.6,321.6z" class="st65"/><path d="M2096.2,299.7c66,5.1,108.4,12.3,108.3,19.9c-0.1,7.6-42.5,13.9-108.3,17.4V299.7z" class="st66"/><linearGradient id="SVGID_51_" x1="5265.811" x2="5715.572" y1="-33.788" y2="-33.788" gradientTransform="matrix(-1 -9.884079e-03 9.884079e-03 -1 7485.5806 301.3857)" gradientUnits="userSpaceOnUse"><stop style="stop-color:#f2c086" offset="0"/><stop style="stop-color:#c68269" offset=".091"/><stop style="stop-color:#cfd0d2" offset=".316"/><stop style="stop-color:#a6a8ab" offset=".967"/></linearGradient><path d="M1843.8,338.2l159.7-8.6l14.7-38.1l22.3-58.1l44.1-21.6l50-18.7l78.3,56l-17.3,26.3 c0,0-28.5,29.3-39,39.1l-28.5,7.1l-24.4,5.7l-5.6,9.5c77.8-3.9,106.4-11.9,106.5-17.3l-0.3,29.1 c-0.1,11.6-98.1,22.6-218.9,21.4s-218.6-10.4-218.5-22l0.3-30.9C1767.2,318.2,1843.1,337.2,1843.8,338.2z" class="st67"/><linearGradient id="SVGID_52_" x1="5251.304" x2="5471.822" y1="400.531" y2="242.71" gradientTransform="matrix(-1 -9.884079e-03 9.884079e-03 -1 7485.5806 301.3857)" gradientUnits="userSpaceOnUse"><stop style="stop-color:#f2c086" offset="0"/><stop style="stop-color:#f3a98c" offset=".081"/><stop style="stop-color:#a79189" offset=".184"/><stop style="stop-color:#bdbfc1" offset=".668"/><stop style="stop-color:#ccd1d0" offset=".846"/><stop style="stop-color:#a6a8ab" offset="1"/></linearGradient><path d="M2159,52.2L1898.1-93.5l-110.7-4.1c24.6-56.7,104.5-88.8,195-83.9c153.1,8.4,278.4,140,276.9,293.3 C2259,142.8,2159,52.2,2159,52.2z" class="st68"/><linearGradient id="SVGID_53_" x1="5228.584" x2="5332.69" y1="338.416" y2="338.416" gradientTransform="matrix(-1 -9.884079e-03 9.884079e-03 -1 7485.5806 301.3857)" gradientUnits="userSpaceOnUse"><stop style="stop-color:#6c6f71" offset="0"/><stop style="stop-color:#4e5663" offset=".427"/><stop style="stop-color:#0d1c21" offset="1"/></linearGradient><path d="M2224.1-165.2c0.3-10.3,7.7-11.6,15.6,0.2c9.3,13.9,16.5,35.6,18.7,47.3c8.3,44.3-9.2,81.6-54,111.1 c-0.1,0-2.1,1.4-2.2,1.5c-2.9,1.9-18.3-11.1-30.9-30.2c-12.6-19.2-17.4-37.1-14.4-39c0.2-0.1,1.8-1.5,2-1.5 C2191.2-97.3,2223-125.4,2224.1-165.2z" class="st69"/><linearGradient id="SVGID_54_" x1="5279.502" x2="5381.227" y1="-46.848" y2="-46.848" gradientTransform="matrix(-1 -9.884079e-03 9.884079e-03 -1 7485.5806 301.3857)" gradientUnits="userSpaceOnUse"><stop style="stop-color:#4e5663" offset=".416"/><stop style="stop-color:#273d44" offset=".668"/><stop style="stop-color:#273d44" offset="1"/></linearGradient><path d="M2206.1,260c0,0-8.3,48.1-9.2,53.4s-1,5.1-4.2,6.5c-3.9,1.6-13.2,3.3-22.7,4.7 c-18.8,2.8-66.3,6.5-66.3,6.5v-3.7c0,0,41.2-11.7,59-23.3C2187.6,287.8,2206.1,260,2206.1,260z" class="st70"/><linearGradient id="SVGID_55_" x1="5699.071" x2="5563.533" y1="295.018" y2="75.672" gradientTransform="matrix(-1 0 0 -1 7486.832 270)" gradientUnits="userSpaceOnUse"><stop style="stop-color:#273d44" offset="0"/><stop style="stop-color:#be918a" offset=".205"/><stop style="stop-color:#c7c9cb" offset=".373"/><stop style="stop-color:#ccd1d0" offset=".687"/></linearGradient><path d="M1823.2,2l-27.1-8.2l-33.9,10.9l25.2,19.3l-31.4,5.8l-15.2,17.9l25.5,11.4l9.4,11.4 c0,0,14.1,75.2,15.5,116.3s-3.2,133.9-3.2,133.9l49.7,7.7h108.9l50.8-5.8l32.9-97.8l36.5-17.5c0,0,12.1-81.3,11.3-91.7 s-15.5-41.3-18.1-45.3c-3.2-4.8-27.1-22.7-27.1-22.7s-44.3-27.1-59.9-33.3s-27.7-7.4-27.7-7.4l-106.4-30.5L1823.2,2z" class="st71"/><radialGradient id="SVGID_56_" cx="5561.656" cy="113.696" r="184.971" gradientTransform="matrix(-1 -9.884079e-03 9.884079e-03 -1 7485.5806 301.3857)" gradientUnits="userSpaceOnUse"><stop style="stop-color:#0f1b21;stop-opacity:0" offset="0"/><stop style="stop-color:#0f1b21;stop-opacity:.6512" offset=".676"/><stop style="stop-color:#19272e;stop-opacity:.7396" offset=".758"/><stop style="stop-color:#24343b;stop-opacity:.8777" offset=".886"/><stop style="stop-color:#283840" offset="1"/></radialGradient><path d="M2065.6,217.2c0,0,14-91.3,12.6-101.6s-14.5-39.9-18.1-45.3c-3.6-5.4-27.1-22.7-27.1-22.7 s-45.6-27.4-59.9-33.3s-62.8-16.7-62.8-16.7l-67.9-3.2L1823.2,2c0,0-19.9-3.1-28.6-3.1s-32.4,5.9-32.4,5.9l25.2,19.3l-31.4,5.8 l-15.2,17.9l25.5,11.4l9.4,11.4l3.1,18.2l-22.3-17.4L1726,38.8l-15.9-27.3l-1.7-3.9l14.9-36.3l54.4-28.2l61.8-6.2l37.7,1.7 l33.5,2.6l55,16.8l162.9,65l6,47.2l-14.3,124.1L2065.6,217.2z" class="st72"/><g class="st2"><polygon points="1879.5 293.4 1872.3 299.6 1862.6 283.9 1861.9 284.9 1871.2 307.3 1880.1 302.5 1891.3 312.3 1911.4 303.5 1916.7 310.3 1937.2 281.2 1919.5 296.9 1913.4 292.3 1892.2 302.8" class="st73"/></g><linearGradient id="SVGID_57_" x1="5474.672" x2="5622.217" y1="485.233" y2="379.637" gradientTransform="matrix(-1 -9.884079e-03 9.884079e-03 -1 7485.5806 301.3857)" gradientUnits="userSpaceOnUse"><stop style="stop-color:#f2c086" offset="0"/><stop style="stop-color:#f1f1f2" offset="1"/></linearGradient><path d="M1936.5-175.2l-51.8,12.7l-31.8,18.1l-45.3,47.5l-20.2-0.7c24.6-56.7,104.5-88.8,195-83.9 c2.4,0.1,4.8,0.3,7.2,0.5L1936.5-175.2z" class="st74"/><g class="st5"><path d="M1834.3,204.4c-6.1,0-11.7,1.1-15.9,2.8c-0.2,0-0.5,0.1-0.7,0.1c-6-5.1-10-14.6-10-25.6 c0-16.3,9-29.5,20-29.5s20,13.2,20,29.5c0,9.3-2.9,17.6-7.5,23C1838.3,204.6,1836.3,204.4,1834.3,204.4z" class="st75"/><linearGradient id="SVGID_58_" x1="5643.411" x2="5665.371" y1="89.4" y2="89.4" gradientTransform="matrix(-1 0 0 -1 7486.832 270)" gradientUnits="userSpaceOnUse"><stop style="stop-color:#293942" offset="0"/><stop style="stop-color:#0f1b21" offset="1"/></linearGradient><ellipse cx="1832.4" cy="180.6" class="st76" rx="11" ry="18"/><ellipse cx="1836.5" cy="167.4" class="st75" rx="4.1" ry="6.8"/></g><g class="st2"><path d="M1952.3,208c-3.5,0-6.8,0.2-10,0.6c-5.3-6.7-8.6-16.2-8.6-26.8c0-20.1,11.8-36.4,26.4-36.4 s26.4,16.3,26.4,36.4c0,12.4-4.5,23.3-11.3,29.8C1968.9,209.3,1961,208,1952.3,208z" class="st75"/><linearGradient id="SVGID_59_" x1="5504.378" x2="5532.915" y1="89.3" y2="89.3" gradientTransform="matrix(-1 0 0 -1 7486.832 270)" gradientUnits="userSpaceOnUse"><stop style="stop-color:#293942" offset="0"/><stop style="stop-color:#0f1b21" offset="1"/></linearGradient><ellipse cx="1968.2" cy="180.7" class="st77" rx="14.3" ry="21"/><ellipse cx="1974.7" cy="165.7" class="st75" rx="5.3" ry="7.9"/></g><path d="M1956.4,116.1c-10.3,1.4-19.4,5.3-26.3,10.6c3.4-11.3,12.7-20.1,24.7-21.7c12-1.7,23.4,4.2,29.7,14.1 C1976.5,115.9,1966.7,114.6,1956.4,116.1z" class="st73"/><linearGradient id="SVGID_60_" x1="5639.411" x2="5683.31" y1="140.925" y2="140.925" gradientTransform="matrix(-1 0 0 -1 7486.832 270)" gradientUnits="userSpaceOnUse"><stop style="stop-color:#a0a2a4" offset="0"/><stop style="stop-color:#9d867b" offset="1"/></linearGradient><path d="M1827.1,128.7c-8.3-2.2-16.5-1.7-23.6,0.8c6.6-9.2,16.8-14.1,26.5-11.6s16.2,11.8,17.4,23 C1842.4,135.2,1835.4,130.8,1827.1,128.7z" class="st78"/><path d="M1925.8,262.2c1.5-0.5-22.9,0-61.3-7.2c0,0,0.3-3.1-0.1-6.5c-0.2-2.1-0.7-4.2-1.7-6 c0,0-3.4,12.8-6.8,15.2c0,0,7.3,7.2,26,10.4c0,0-10.2-4.5-14.4-7.7C1867.6,260.5,1909.8,268,1925.8,262.2z" class="st79"/><path d="M1813.7,322.6l-11.6-1.8l-14-2.7c0,0,1.9-33.2,2.8-73.9c0.4,3,0.8,6,1.3,8.9 C1797,284.6,1803.8,310.8,1813.7,322.6z" class="st80"/><radialGradient id="SVGID_61_" cx="5534.935" cy="82.681" r="156.298" gradientTransform="matrix(-1 0 0 -1.4143 7486.832 304.2477)" gradientUnits="userSpaceOnUse"><stop style="stop-color:#e6e7e8" offset="0"/><stop style="stop-color:#e3e4e5" offset=".17"/><stop style="stop-color:#d8dbdc" offset=".316"/><stop style="stop-color:#c6cbcd" offset=".454"/><stop style="stop-color:#adb5b7" offset=".586"/><stop style="stop-color:#8d989c" offset=".714"/><stop style="stop-color:#66757a" offset=".84"/><stop style="stop-color:#384c52" offset=".961"/><stop style="stop-color:#273d44" offset="1"/></radialGradient><path d="M2013,239.6l17.2-40.6l10.3-47.4l4.1-42.7l-12.5-34.2l-12.2-18l-22.3-17.4l-22.3-14.9l-30-17.3 c0,0,3.9,0.5,8.8,1.7c3,0.7,6.5,1.9,9.4,2.7c9,2.5,16.6,6.3,16.6,6.3l15.5,8.3l37.4,21.7c0,0,24.9,18.6,27.1,22.7 s16.8,32.8,18.1,45.3s-11.3,91.7-11.3,91.7l-36.5,17.5l-32.3,95.9l-32.7,4.7l-27.3,1.1l39.5-23.3L2013,239.6z" class="st81"/><polygon points="1869.9 15.2 1845 28.4 1811.1 54.8 1813.3 25.8 1818.3 2.9 1823.8 -4.1 1873.8 9.5 1879.5 12.2" class="st80"/><g><linearGradient id="SVGID_62_" x1="5689.386" x2="5569.073" y1="245.274" y2="222.512" gradientTransform="matrix(-1 -9.884079e-03 9.884079e-03 -1 7485.5806 301.3857)" gradientUnits="userSpaceOnUse"><stop style="stop-color:#f2c086" offset="0"/><stop style="stop-color:#f3a98c" offset=".081"/><stop style="stop-color:#df9283" offset=".184"/><stop style="stop-color:#cfd0d2" offset=".466"/></linearGradient><path d="M1867.4,13.2c0,0-18.3,4.2-27.7,9.3s-28,22.7-28,22.7s1.7-28.5,3.7-34.2c2.4-6.8,5.7-18.1,14.3-27.8 c3.2-3.6,15.4-15,15.4-15s37,6.1,44.8,7.2c12.5,1.7,55.5,31.7,55.5,31.7" class="st82"/></g><g class="st5"><linearGradient id="SVGID_63_" x1="5692.83" x2="5421.818" y1="78.702" y2="78.702" gradientTransform="matrix(-1 0 0 -1 7486.832 270)" gradientUnits="userSpaceOnUse"><stop style="stop-color:#e6968b" offset="0"/><stop style="stop-color:#a4a7a9" offset=".466"/><stop style="stop-color:#a8acad" offset=".709"/><stop style="stop-color:#293942" offset=".976"/></linearGradient><path d="M1855.3,171.7c0,0,3.9,1.2,6.3,3.4l6.6,4.2l12.7-3.6l0,0c1.1-0.3,2.3-0.5,3.6-0.5 c6.2,0,14.3,4.6,14.3,4.6l4.5,26.1c0,0,2.4,8.7,6.8,13.7s12.1,6.8,12.1,6.8l37,5.2c0,0,18.4-0.5,28.1-1.5s19.3-5.4,21.2-11.2 s9.1-34.4,9.1-34.4l1.9-12.5l5.6,0.3l45.7,8.4l2.2-13.2l-34.7-6.9c0,0-40-6.8-63.3-8.7c-60.7-4.9-77.2,11.7-77.2,11.7 s-6.6-1-12.8-1s-13.4,2.4-13.4,2.4s-20.8-6.9-30.8-7.8c-10-1-28.9-0.2-28.9-0.2l-16.5,2.8l-5.9,1.3l1.1,12.4 c7-4.4,23.8-7,23.8-7s15.1-0.2,24.4,1.2C1848.1,169,1855.3,171.7,1855.3,171.7z M1910.2,171.7c0.8-2,12.3-4.4,12.3-4.4 s25.8-6.1,44.5-5.6s34.7,6,34.7,6s5.1,2.3,5.1,7.6c0.1,5.3-8.1,34-9.1,37.3c-1.5,4.8-9.8,6.6-9.8,6.6l-27.6,1.7 c0,0-35.3-3.6-40.2-7c-4.9-3.4-6.8-12.6-7.6-19.6C1911.6,187.4,1909.3,173.7,1910.2,171.7z" class="st83"/><linearGradient id="SVGID_64_" x1="5702.421" x2="5591.994" y1="43.454" y2="77.942" gradientTransform="matrix(-1 0 0 -1 7486.832 270)" gradientUnits="userSpaceOnUse"><stop style="stop-color:#e6968b" offset="0"/><stop style="stop-color:#a4a7a9" offset=".466"/><stop style="stop-color:#a8acad" offset=".709"/><stop style="stop-color:#293942" offset=".976"/></linearGradient><path d="M1791.5,206.3c1,1.3,9,4.5,10.1,5.1c9.2,5.5,41.1,9.4,50.6,0.2c0.1-0.1,8.7-6.9,8.8-7.1l-5.3,17.8 c-4.1,0.9-15.8,2.7-15.8,2.7s-11.5,1-17.5,0.6c-4.8-0.3-25-4.7-31.1-6.9L1791.5,206.3z" class="st84"/></g><linearGradient id="SVGID_65_" x1="5417.875" x2="5722.146" y1="142.412" y2="142.412" gradientTransform="matrix(-0.9997 2.462571e-02 -2.462571e-02 -0.9997 7493.6323 191.1092)" gradientUnits="userSpaceOnUse"><stop style="stop-color:#0d1d24" offset=".339"/><stop style="stop-color:#322e2f" offset=".757"/></linearGradient><path d="M1769.3,160c-1.4,1.8,2.2,9.2,2.2,9.2l4.6,6.4c0,0,4.6,19.1,6.2,23.1s5.2,11.3,9,14.4 c2.6,2.1,20.4,6.6,26.5,7s17.5-0.6,17.5-0.6s14.1-1.4,18.8-5.4c4.6-4.1,6-7.2,7.9-11.7s7.3-28.7,7.3-28.7s4.4-3.9,10.6-3.9 s14.3,4.6,14.3,4.6l6.7,26.5c0,0,1.1,9.3,5.5,14.3s7.1,5.5,13.5,7.4s20.7,3.6,32.2,3.6s20.5-0.9,28.1-1.5s19.7-5.3,22.7-16.2 c1.6-5.9,6.4-18.7,7.6-29.3c0.7-6.6,1.9-12.5,1.9-12.5l5.6,0.3l53.7,9.5l1.7-12.8c0,0-27.2-5.6-38.4-7.2 c-13.6-2-22.5-3.8-30.5-5.2c-12.1-2.2-22.1-5.2-36.2-6.3c-60.7-4.9-73,13.8-73,13.8s-10.2-2.2-16.4-2.2s-12.1,3.1-12.1,3.1 s-14.9-6.8-24.8-8.3c-12.8-2-24.4-2-36.2-1.1c-11.8,0.9-29.1,6.4-29.1,6.4S1770.7,158.2,1769.3,160z M1905.5,166.4 c0.9-2,8.5-5.3,13.3-6.4c4.8-1.1,22.2-4.2,40.9-3.6s34.7,6,34.7,6s4.1,1.5,3.9,6.9c-0.5,11.7-5.7,31.5-6.8,34.7 c-3.2,9.1-14,10.1-14,10.1l-24.5,1.5c0,0-30.1,0.1-36.1-4.2c-4.8-3.4-6.6-15.5-8.4-22.7C1906.7,181.7,1904,169.5,1905.5,166.4z M1785.7,177.3c-1.3-5.9-2.7-8.9,2.7-11.6c5.1-2.6,12.9-4.2,21.8-5c8.1-0.7,14.6-0.8,23.9,0.6c9.4,1.3,16.4,5,16.4,5 s7.7,2.5,8.3,6.5c0.6,4.1-5.1,27.3-11.3,33.3c-9.5,9.2-41.4,5.3-50.6-0.2C1790.3,201.9,1787.5,185.6,1785.7,177.3z" class="st85"/><path d="M1732-37l130.4-26.7L2033.1-16l108.6,88l-15,120.3l-89.8,43.4l-34.2,87.4l-51.1,4.1l-111.4-1.1 l-82.4-14.2l-2.9-0.5c-36-38.8-67.7-115-67-191c0.4-40.8,3.9-73,18.4-106L1732-37z" class="st59"/><linearGradient id="SVGID_66_" x1="5742.145" x2="5354.809" y1="-13.841" y2="-20.505" gradientTransform="matrix(-1 -9.884079e-03 9.884079e-03 -1 7485.5806 301.3857)" gradientUnits="userSpaceOnUse"><stop style="stop-color:#293942" offset=".381"/><stop style="stop-color:#1f2c32" offset="1"/></linearGradient><path d="M2118.7,182.5l-88.3,42.3l-32.3,95.9c0,0-34,4.2-60,5.9c-26,1.7-73.8,0.4-99.8-1.1s-83.6-14.4-83.6-14.4 l12.9,21.2c0,0,44.2,11.6,72.7,13.8c28.6,2.2,76,4,111.2,2c35.2-1.9,68.5-4.2,68.5-4.2l32.7-106.3l96.5-45.3L2118.7,182.5z" class="st86"/><linearGradient id="SVGID_67_" x1="5289.868" x2="5436.763" y1="-74.609" y2="-74.609" gradientTransform="matrix(-0.9619 -9.226510e-02 9.727631e-02 -1.0142 7350.1436 556.044)" gradientUnits="userSpaceOnUse"><stop style="stop-color:#455a65" offset=".264"/><stop style="stop-color:#19262c" offset="1"/></linearGradient><path d="M2196.9,19.7c5,0.2,18.6,1.2,18.6,1.2l12.2,16.4c19.9,21.9,31,62.6,26.7,107.8c-4.1,43-21.2,79.3-43.2,98 l-6.7,8.2c0,0-26.7,3.9-31.7,3.5c-38.2-3.7-62.5-57.8-59.5-123.2C2116.3,65.8,2158.6,18.4,2196.9,19.7z" class="st87"/><linearGradient id="SVGID_68_" x1="5422.39" x2="5583.445" y1="13.715" y2="-101.668" gradientTransform="matrix(-0.8946 -7.587446e-02 8.664025e-02 -0.9962 7145.8877 501.8214)" gradientUnits="userSpaceOnUse"><stop style="stop-color:#f2c086" offset="0"/><stop style="stop-color:#f2c085" offset=".072"/><stop style="stop-color:#e2b39b" offset=".146"/><stop style="stop-color:#daaca6" offset=".202"/><stop style="stop-color:#d9aea8" offset=".223"/><stop style="stop-color:#d2c7c7" offset=".508"/><stop style="stop-color:#cfd0d2" offset=".668"/><stop style="stop-color:#c4c7c9" offset=".726"/><stop style="stop-color:#a7aeb2" offset=".828"/><stop style="stop-color:#78858d" offset=".961"/><stop style="stop-color:#6a7982" offset=".997"/></linearGradient><path d="M2142.7,130.2c-6.1,63.7,17.6,118,53,121.4c35.4,3.4,69-45.5,75.1-109.1s-17.6-118-53-121.4 C2182.5,17.7,2148.8,66.6,2142.7,130.2z" class="st88"/><linearGradient id="SVGID_69_" x1="5309.004" x2="5235.579" y1="133.607" y2="122.369" gradientTransform="matrix(-1 0 0 -1 7486.832 270)" gradientUnits="userSpaceOnUse"><stop style="stop-color:#4d6370" offset="0"/><stop style="stop-color:#212e34" offset="1"/></linearGradient><path d="M2224.2,86.3l-1.2,12.3c15.2,1.5,25.7,22.4,23.4,46.7s-16.6,42.9-31.8,41.4l-1.2,12.3 c-19.5-1.9-32.9-28.6-29.9-59.8S2204.7,84.4,2224.2,86.3z" class="st89"/><linearGradient id="SVGID_70_" x1="5725.73" x2="5279.543" y1="290.525" y2="290.525" gradientTransform="matrix(-1.0216 -1.009815e-02 9.884084e-03 -0.9999 7556.438 302.0592)" gradientUnits="userSpaceOnUse"><stop style="stop-color:#5b3528" offset="0"/><stop style="stop-color:#19262c" offset="1"/></linearGradient><path d="M1881.6-155.7c140.7-13.9,250.9,76.3,291.1,182.4c-14.5,5.9-26.6,43.7-26.6,43.7l-11.4,0.4 c0,0-3.4-0.3-3.4-0.4c-68.2-73-162.9-120.8-294-122.1c-30.2-0.3-76.7,6.4-110.5,25.6l-0.1,0.1l-7.8,14.6l-8,14.8l-2.1,4.4 c0,0-8.3-12.6-4.4-24.3C1725.8-74.2,1789.9-146.7,1881.6-155.7z" class="st90"/><linearGradient id="SVGID_71_" x1="5344.226" x2="5643.787" y1="121.982" y2="387.679" gradientTransform="matrix(-1.0216 -1.009815e-02 9.884084e-03 -0.9999 7556.438 302.0592)" gradientUnits="userSpaceOnUse"><stop style="stop-color:#273d44" offset="0"/><stop style="stop-color:#f16522" offset=".487"/><stop style="stop-color:#f28f3f" offset=".668"/><stop style="stop-color:#ed693c" offset=".888"/><stop style="stop-color:#e83e39" offset="1"/></linearGradient><path d="M1881.7-163.5c140.7-13.9,261.2,83.1,301.4,189.1c-16.2,9.6-26.7,24.8-37,44.9 c-68.8-77-170.9-130-306.4-131.3c-21.8-0.2-53.5,3.9-82.2,13.4c-12.4,4.1-24.2,9.3-34.5,15.5c-8.7,5.3-20.3,17.2-19.2,27.8 c-5-11.9,3.8-25.1,8.2-33.4C1740.9-91.8,1802.1-155.7,1881.7-163.5z" class="st91"/><linearGradient id="SVGID_72_" x1="5599.816" x2="5785.608" y1="329.326" y2="329.326" gradientTransform="matrix(-1 -9.884079e-03 9.884079e-03 -1 7485.5806 301.3857)" gradientUnits="userSpaceOnUse"><stop style="stop-color:#f16522" offset=".057"/><stop style="stop-color:#f3ddbd" offset="1"/></linearGradient><path d="M1711.9-37.5c28.2-54.3,88.1-118.2,166-126c4-0.4,8-0.7,11.9-0.9c0,0-65.2,21.5-104.1,56.7 c-38.5,34.8-53.8,70.7-53.8,70.7c-3.2,1.6-6.2,3.3-9.1,5.2c-8.5,5.3-19.9,17.2-18.8,27.8C1699-16,1707.6-29.2,1711.9-37.5z" class="st92"/><path d="M1709.5,6.1l17-32.1l7.8-4.3l10.4-4.6l-20.4,41.1c-14.6,33.4-21.4,69.4-21.8,110.8 c-0.8,77,31.4,154.2,67.9,193.5l4,4.8l-15.6-3.2l-4.3-1c-36.5-39.3-67.6-117.3-66.9-194.2C1688.1,75.5,1694.9,39.5,1709.5,6.1z" class="st93"/></g><g><linearGradient id="SVGID_73_" x1="5265.573" x2="5372.018" y1="-244.96" y2="-186.844" gradientTransform="matrix(-1 0 0 -1 7486.832 270)" gradientUnits="userSpaceOnUse"><stop style="stop-color:#f3a98c" offset="0"/><stop style="stop-color:#929497" offset=".86"/><stop style="stop-color:#6e7482" offset="1"/></linearGradient><path d="M2200.7,521.1c7.9-9.4,12.9-16.6,15.6-30.6c2.7-14,5.9-27.7,1.9-40.2s-5.5-15.7-12.8-22 s-11-8.7-20.6-10.7s-17.2-1.7-27.5,1.7c-12.5,4.1-22.2,16.2-29.9,28.6c-7.6,12.5-12.3,20.3-15.5,41.2 c-3.2,20.9,3.1,37.1,7.9,44.9c4.8,7.8,11.6,13.9,22.7,15.3c13.1,1.6,23.2-2.1,31.9-6.5C2183,538.4,2192.8,530.4,2200.7,521.1z" class="st94"/><linearGradient id="SVGID_74_" x1="5258.961" x2="5365.406" y1="-244.966" y2="-186.85" gradientTransform="matrix(-1 0 0 -1 7486.832 270)" gradientUnits="userSpaceOnUse"><stop style="stop-color:#e8cfbe" offset="0"/><stop style="stop-color:#d0d2d3" offset=".668"/><stop style="stop-color:#beb0ad" offset=".997"/></linearGradient><path d="M2207.3,521.1c7.9-9.4,12.9-16.6,15.6-30.6s5.9-27.7,1.9-40.2s-5.5-15.7-12.8-22s-11-8.7-20.6-10.7 c-9.7-2-17.2-1.7-27.5,1.7c-12.5,4.1-22.2,16.2-29.9,28.6c-7.6,12.5-12.3,20.3-15.5,41.2c-3.2,20.9,3.1,37.1,7.9,44.9 c4.8,7.8,11.6,13.9,22.7,15.3c13.1,1.6,23.2-2.1,31.9-6.5S2199.4,530.4,2207.3,521.1z" class="st95"/></g><g><linearGradient id="SVGID_75_" x1="2171.836" x2="2230.399" y1="-140.884" y2="-140.884" gradientTransform="matrix(1.0102 -5.115486e-02 -0.1058 -1.0536 -61.489 447.7819)" gradientUnits="userSpaceOnUse"><stop style="stop-color:#4f5764" offset="0"/><stop style="stop-color:#293942" offset=".668"/><stop style="stop-color:#0f1c20" offset="1"/></linearGradient><path d="M2157.1,473.8c9.8-18.9,24.6-30.3,38.4-23.5c5.8,2.9,8.8,8,9.5,13.9l-8.2,6.7c-0.7-4.8-2.2-8.3-6.6-10.5 c-7.9-3.8-17.7,4-23.7,15.4c-0.3,0.4-0.7,1.2-0.9,1.9c4.5-3.2,11.9-5.8,17.4-3c8.4,4.2,12,15.1,4.7,29 c-6.5,12-18.3,18.6-28.7,13.5C2144.9,510.3,2147.5,492,2157.1,473.8z M2178.8,500.1c4.3-8,1.6-14.1-3.4-16.5 c-4-1.9-9.4-1-14.1,2.6c-3.4,7.2-4.9,16.9,2.3,20.5C2169.5,509.9,2176,505.3,2178.8,500.1z" class="st96"/></g></g><linearGradient id="SVGID_76_" x1="5362.803" x2="5621.447" y1="420.503" y2="-319.154" gradientTransform="matrix(-1 0 0 -1 7486.832 270)" gradientUnits="userSpaceOnUse"><stop style="stop-color:#4e5663" offset="0"/><stop style="stop-color:#283841" offset=".668"/><stop style="stop-color:#0f1b21" offset="1"/></linearGradient><path d="M1754.5,311.2l12.5,20.6l-0.1,6.5c-10.8,3-16.8,6.4-16.9,10l-0.2,18.5c0,2.2,2.1,4.3,6.1,6.3 c2.4,1.4,4.9,2,6.9,2.8l13.2,19.6l1.3,5.8h-0.1l-6.8,1.5l0,0l-16.3,3.6l-12.2,10.4l-12.3,18.7l-10.9,33.9l-5.2,32.6l1.8,4.8 l3.3,1.7l-0.7,10.2l3.4,35.6l18.3,32.6l0.6,0.5l-0.6-0.3c0,0,25.5,20.2,26.1,20.7c0,0,0.2,0.1,0.5,0.3l0.4,0.3l10.2,4.6 c4.3,1.9,9.2,4.2,14,6.4l1,14.3l8.3,5.7l2.9,48.9l7.7,51.5l2.3,40.1l-10.9,9.9l-0.2,3.7l-9.4,10.6l-5.7,7.3h-3.2l-13,16.9 l-2.3,19.7l9.2,18.4l29,7.9l6.8-0.2l32.4-1l23.7-10.8v-1.5l42.2-20.2l33.4-25.9l2.8-44.8l4.7-24.7l0.3-0.1l4.8-17.9l7-11.3 l14.4,0.2l15.6,40.9l15.2,46.3l-0.5,0.1l-5.1,11.4l1,2.6l0.8-2.5l-2.9,8.8l-10.5,25.8l-1.4,0.4l-5.8,15.3l5.9,21.6l18.3,13.6 l0.6,0.2v0.2l6.1,1.5l23.5,6.6l4.1-0.4l3-0.2v-0.1l27-2.9v0.1l2-0.3l3-0.3l31.1-9.4l12.1-16.2l9.2-10.5l14.2-19.4l10.3-18 l5.1-58.9l1.3-26.8h-0.2l7.5-56.4l0.6-51.9l0.3-0.1l7.6-4.5v-27.2l-4.9-1.7l3.3-12.6l3.5-1.4l32.2-48.2l12.5-42.9l4.4-41 l2.9-18.4l-7.4-23.2l-6.2-2.9l-13.3-17.5l5.1-18.1c4.2-1.9,6.5-3.5,6.5-6.2l0.2-16.6c0-1.6,0.6-3.3-1.1-4.5 c-1.6-1.9-6.9-4.6-11.6-6.4l0.1-20.8c0,0,0-2.1-0.2-4.2c-0.5-1.4-2.2-2.9-7.6-5c1.4-8.2,9.4-53.9,9.4-53.9s-0.9,1.3-2.5,3.6 l9.3-14.3l0,0c28.2-10.8,53.7-50.8,58.4-103.6c1.1-12.7,1.1-25.1,0-36.7c-1.9-26.3-9-49.2-19.8-65c-5.4-22.5-15-47-25.5-67.3 c17.9-17.3,29.3-34.3,32.6-55.2c2.4-12.3,2.3-25.4-0.2-39.1c-2.2-11.7-9.4-33.5-18.7-47.3c-7.9-11.8-15.3-10.5-15.6-0.2 c0,0.2,0,0.3,0,0.5c-0.6,1.3-1,3.1-1,5.2c-0.1,2.8-0.3,5.6-0.7,8.3c-5.5,25.1-23.3,45-44.2,61.4 c-48.6-51.1-115.2-85.3-188.7-91.2c-2.4-0.2-4.8-0.4-7.2-0.5c-14.1-0.8-28-0.6-41.5,0.3c-8.1,0.6-16,1.5-23.7,2.7 c-2.6,0.4-5.1,0.8-7.7,1.3c-15.2,2.8-29.6,6.8-42.8,11.8c-2.2,0.8-4.4,1.7-6.5,2.6c-3.1,1.3-6.1,2.7-9.1,4.1 c-23.3,6.4-44.6,17.6-63.5,31.6c-1.6-3.1-3.1-6.3-4.2-9.6c-1.1-5.1-1.6-10.3-1.3-15.8c0.2-4.1-0.7-6.7-2.2-7.9c0-0.2,0-0.3,0-0.5 c0.6-11.6-7.4-11.6-14.7-0.1c-8.1,12.6-16.3,33.3-18.6,44.3c-2.2,10.5-2.8,20.6-1.9,30.3c-13.4,16-24.5,32.7-32.8,48.7 c-4.3,8.3-12.9,21.5-8,33.4v-0.1v0.1l0,0c1.1,5.1,3.3,9.2,4.2,10.9l0.4,0.8l0.2,0.4c-1.6,3.7-3.1,7.4-4.5,11.1 c-9.2,22.5-13.4,44.9-15.2,70.1c-0.8,9-1.2,18.2-1.3,27.7c-0.1,7.4,0.2,14.8,0.6,22.2c2.6,45,15.9,88.9,33.8,124 c0.3,0.6,0.6,1.2,0.9,1.7c0.2,0.3,0.3,0.6,0.5,0.9C1732.9,283.7,1743.5,299.2,1754.5,311.2z M1766.3,59.1l-25.5-11.4l15.2-17.9 l31.4-5.8l-25.2-19.3l33.9-10.9l23,6.9c2.1-5.3,5.2-11.4,10.5-17.5c0.3-0.3,0.6-0.7,1-1.1c0.1-0.1,0.2-0.2,0.3-0.3 c0.4-0.4,0.9-0.9,1.3-1.4l0,0l0,0c4.7-4.8,12.7-12.2,12.7-12.2s37,6.1,44.8,7.2c12.5,1.7,55.5,31.7,55.5,31.7s12.1,1.2,27.7,7.4 s59.9,33.3,59.9,33.3s24,17.9,27.1,22.7c2.6,4,17.3,34.9,18.1,45.3s-11.3,91.7-11.3,91.7l-36.5,17.5l-32.9,97.8l-50.8,5.8h-108.9 l-49.7-7.7c0,0,4.6-92.8,3.2-133.9s-15.5-116.3-15.5-116.3L1766.3,59.1z" class="st97"/></g></g></g></svg>