<svg xmlns="http://www.w3.org/2000/svg" xmlns:xlink="http://www.w3.org/1999/xlink" id="Layer_1" width="1780" height="850" x="0" style="enable-background:new 755 -290 1780 850" y="0" version="1.1" viewBox="755 -290 1780 850" xml:space="preserve"><style type="text/css">.st0{fill:url(#sky_x2F_space_2_)}.st1{fill:url(#river_2_)}.st2{opacity:.9}.st3{fill:url(#SVGID_1_)}.st4{fill:url(#SVGID_2_)}.st5{opacity:.8}.st6{fill:url(#SVGID_3_)}.st7{fill:#fdd8cd}.st8{fill:url(#SVGID_4_)}.st9{fill:url(#SVGID_5_)}.st10,.st11{opacity:.8;fill:url(#SVGID_6_);enable-background:new}.st11{fill:url(#SVGID_7_)}.st12{fill:#445763}.st13{fill:url(#SVGID_8_)}.st14{fill:url(#SVGID_9_)}.st15{opacity:.1;fill:#fff;enable-background:new}.st16,.st17{fill:#575c7a}.st17{display:none}.st18{opacity:.8;fill:#fff4cf;enable-background:new}.st19{fill:url(#SVGID_10_)}.st20{fill:url(#SVGID_11_)}.st21{fill:url(#SVGID_12_)}.st22{fill:url(#SVGID_13_)}.st23{clip-path:url(#SVGID_15_)}.st24{fill:url(#SVGID_16_)}.st25{fill:url(#SVGID_17_)}.st26{fill:url(#SVGID_18_)}.st27{fill:url(#SVGID_19_)}.st28{fill:url(#SVGID_20_)}.st29{fill:url(#SVGID_21_)}.st30{fill:url(#SVGID_22_)}.st31{fill:url(#SVGID_23_)}.st32{fill:url(#SVGID_24_)}.st33{fill:url(#SVGID_25_)}.st34{fill:url(#SVGID_26_)}.st35{fill:url(#SVGID_27_)}.st36{fill:url(#SVGID_28_)}.st37{fill:url(#SVGID_29_)}.st38{fill:#293942}.st39{fill:url(#SVGID_30_)}.st40{fill:url(#SVGID_31_)}.st41{fill:url(#SVGID_32_)}.st42{fill:url(#SVGID_33_)}.st43{fill:url(#SVGID_34_)}.st44{fill:url(#SVGID_35_)}.st45{fill:url(#SVGID_36_)}.st46{fill:url(#SVGID_37_)}.st47{fill:url(#SVGID_38_)}.st48{fill:url(#SVGID_39_)}.st49{fill:url(#SVGID_40_)}.st50{fill:url(#SVGID_41_)}.st51{fill:url(#SVGID_42_)}.st52{fill:url(#SVGID_43_)}.st53{fill:url(#SVGID_44_)}.st54{opacity:.17;fill:#efefef;enable-background:new}.st55{fill:url(#SVGID_45_)}.st56{fill:url(#SVGID_46_)}.st57{fill:url(#SVGID_47_)}.st58{fill:url(#SVGID_48_)}.st59{fill:url(#SVGID_49_)}.st60{fill:url(#SVGID_50_)}.st61{fill:#273d44}.st62{fill:url(#SVGID_51_)}.st63{fill:url(#SVGID_52_)}.st64{fill:url(#SVGID_53_)}.st65{fill:url(#SVGID_54_)}.st66{fill:url(#SVGID_55_)}.st67{fill:url(#SVGID_56_)}.st68{fill:#929497}.st69{fill:url(#SVGID_57_)}.st70{fill:#fff}.st71{fill:url(#SVGID_58_)}.st72{fill:url(#SVGID_59_)}.st73{fill:url(#SVGID_60_)}.st74,.st75{opacity:.6;fill:#4e4d50;enable-background:new}.st75{opacity:.21;fill:#231f20}.st76{fill:url(#SVGID_61_)}.st77{fill:url(#SVGID_62_)}.st78,.st79{opacity:.39;fill:url(#SVGID_63_);enable-background:new}.st79{fill:url(#SVGID_64_)}.st80{fill:url(#SVGID_65_)}.st81{fill:url(#SVGID_66_)}.st82{fill:url(#SVGID_67_)}.st83{fill:url(#SVGID_68_)}.st84{fill:url(#SVGID_69_)}.st85{fill:url(#SVGID_70_)}.st86{fill:url(#SVGID_71_)}.st87,.st88{opacity:.59;fill:url(#SVGID_72_);enable-background:new}.st88{opacity:.45;fill:#bfbebe}.st89{fill:url(#SVGID_73_)}.st90{fill:url(#SVGID_74_)}.st91{fill:url(#SVGID_75_)}.st92{opacity:.1;fill:url(#SVGID_76_);enable-background:new}</style><linearGradient id="sky_x2F_space_2_" x1="1663.347" x2="1617.276" y1="-52.344" y2="-918.142" gradientTransform="matrix(1 0 0 1 0 633.9999)" gradientUnits="userSpaceOnUse"><stop offset="0" style="stop-color:#f3c187"/><stop offset=".053" style="stop-color:#f4aa8d"/><stop offset=".119" style="stop-color:#df7d66"/><stop offset=".306" style="stop-color:#4e5763"/><stop offset=".591" style="stop-color:#0c3c4c"/><stop offset="1" style="stop-color:#0e1c22"/></linearGradient><rect id="sky_x2F_space_1_" width="1807.1" height="770.5" x="733.1" y="-305.9" class="st0"/><linearGradient id="river_2_" x1="1618.38" x2="1761.745" y1="-375.027" y2="130.808" gradientTransform="matrix(1 0 0 1 0 633.9999)" gradientUnits="userSpaceOnUse"><stop offset=".079" style="stop-color:#c5817e"/><stop offset=".364" style="stop-color:#57606d"/><stop offset=".699" style="stop-color:#33434c"/><stop offset="1" style="stop-color:#2d3a41"/></linearGradient><polygon id="river_1_" points="2540.2 610.4 1148.9 610.4 847.4 610.8 1014.5 521.1 1148.9 439.2 2540.2 439.2" class="st1"/><g id="mountain_1_" class="st2"><linearGradient id="SVGID_1_" x1="1539.628" x2="1539.628" y1="-194.429" y2="-310.173" gradientTransform="matrix(1 0 0 1 0 633.9999)" gradientUnits="userSpaceOnUse"><stop offset="0" style="stop-color:#425b6a"/><stop offset="1" style="stop-color:#30414a"/></linearGradient><polygon points="1363.1 441.2 1349.3 441.3 1349.9 439.7 1396.4 414.1 1411.5 410.2 1415.6 402.8 1423.9 399.9 1430.5 395.6 1440.2 401.1 1444.2 402.1 1452.1 401 1470 387.8 1491.3 373 1498.3 374 1514.8 357.2 1521.3 360.2 1524.5 355.3 1531.7 352.4 1538.7 344.6 1545.4 340.4 1553.6 330.9 1559 333.5 1567.4 340.3 1576.1 347.4 1583.5 350 1587.6 353.4 1589 353.9 1595.2 352.1 1598.6 355.6 1602.3 359.4 1606.1 363.1 1608.4 361.7 1617.5 369.2 1627.8 376.5 1636.9 385.6 1637.3 387.8 1642.3 387.3 1647.4 390.7 1651.4 390.7 1667.8 402.5 1730 441.2" class="st3"/><linearGradient id="SVGID_2_" x1="1664.724" x2="1757.852" y1="-182.608" y2="-224.434" gradientTransform="matrix(1 0 0 1 0 633.9999)" gradientUnits="userSpaceOnUse"><stop offset="0" style="stop-color:#475e6d"/><stop offset="1" style="stop-color:#30414a"/></linearGradient><polygon points="1748.5 441.2 1777.4 441.2 1738.6 427.1 1707 410.3 1691.5 400.4 1683.2 402.7 1668.2 414.4 1659 420.4 1645.2 429.3 1634.2 434.7 1617.5 441.2 1619.8 441.2" class="st4"/><g class="st5"><linearGradient id="SVGID_3_" x1="1546.378" x2="1606.078" y1="-283.6" y2="-283.6" gradientTransform="matrix(1 0 0 1 0 633.9999)" gradientUnits="userSpaceOnUse"><stop offset="0" style="stop-color:#fdd8cd"/><stop offset="1" style="stop-color:#e9b8ad"/></linearGradient><polygon points="1565.9 352.3 1559.3 344.6 1556.3 333.4 1553.6 330.9 1559 333.5 1567.4 340.3 1576.1 347.4 1583.5 350 1587.6 353.4 1590.1 356 1592.8 357 1595.2 352.1 1606.1 363.1 1601.7 365.6 1600.3 368.7 1597.3 366.2 1591.7 368.5 1584.8 363.1 1578.7 359 1588.2 369.5 1586.8 369.9 1580.1 365.6 1574.9 360.4 1569.4 356 1571.7 361 1568.4 361.1 1555.4 348.9 1546.4 341.2 1552.4 343.9 1556.2 344.7" class="st6"/><polygon points="1568.5 369.5 1572.4 374.4 1568.3 372.5 1561.5 370.7 1568.6 377.8 1574.8 381.6 1574.8 381.6 1575.6 382.5 1580.7 380.4 1582.8 379.5" class="st7"/><linearGradient id="SVGID_4_" x1="1602.587" x2="1666.41" y1="-252.988" y2="-211.703" gradientTransform="matrix(1 0 0 1 0 633.9999)" gradientUnits="userSpaceOnUse"><stop offset="0" style="stop-color:#fdd8cd"/><stop offset="1" style="stop-color:#e9b8ad"/></linearGradient><polygon points="1671.3 404.8 1660.4 397.2 1651.4 390.7 1651.9 394.7 1647.4 390.7 1642.3 387.3 1640.7 387.3 1636.9 385.6 1631.6 380.2 1627.8 376.5 1620.4 371.2 1617.5 369.2 1608.4 361.7 1607.3 370 1609 375.9 1597.3 366.2 1595 371.7 1596.4 374 1606.6 383.4 1598 378.6 1589.6 376 1591.9 382 1596.7 385.4 1607.3 394.9 1604.3 394.6 1607.4 398 1594.2 393.4 1591.8 393.4 1581.5 386.7 1582.1 390.8 1594 398.5 1598.4 399.2 1626.7 406.9 1620 402.1 1636.5 409.1 1645.9 409.9 1648.9 410.2 1626.2 391.2 1654.5 409 1665.3 413 1668.2 414.4 1676.3 408.1" class="st8"/><linearGradient id="SVGID_5_" x1="1691.078" x2="1738.578" y1="-220.25" y2="-220.25" gradientTransform="matrix(1 0 0 1 0 633.9999)" gradientUnits="userSpaceOnUse"><stop offset="0" style="stop-color:#fdd8cd"/><stop offset="1" style="stop-color:#bf8980"/></linearGradient><polygon points="1700.1 418.6 1692 412.3 1700.4 416.9 1699.3 415.2 1702.8 417.1 1693 406.5 1691.1 402.9 1693 403.8 1691.5 400.4 1707 410.3 1738.6 427.1 1720.3 421.2 1711.1 416.1 1717.2 421.6 1711.6 420.1 1708 422.4" class="st9"/></g></g><g id="mountain_-_foreground_1_"><linearGradient id="SVGID_6_" x1="1345.678" x2="1625.778" y1="-220.45" y2="-220.45" gradientTransform="matrix(1 0 0 1 0 633.9999)" gradientUnits="userSpaceOnUse"><stop offset="0" style="stop-color:#3b4952"/><stop offset=".636" style="stop-color:#3f515e"/><stop offset="1" style="stop-color:#4e6271"/></linearGradient><polygon points="1625.8 441.2 1586.1 421.1 1570.8 412.1 1558.9 405.1 1554.8 402.5 1546.7 396.4 1536.7 388.3 1533.7 388.2 1529.7 385.9 1520.2 392 1518.7 390.9 1503.5 399.6 1501.1 399.6 1496.6 401.9 1496.6 403.8 1493 405.4 1486.6 409.3 1481.5 411.9 1475.9 414.7 1474.7 415.2 1468.5 416.8 1459.7 412.5 1453.4 408.3 1446.9 403.1 1443.6 402.1 1440.2 401.1 1430.6 395.6 1424.1 399.9 1415.7 402.8 1411.6 410.2 1397.1 413.8 1349.4 439.9 1345.7 441.2 1363 441.2" class="st10"/><linearGradient id="SVGID_7_" x1="1535" x2="1573.703" y1="-239.706" y2="-209.093" gradientTransform="matrix(1 0 0 1 0 633.9999)" gradientUnits="userSpaceOnUse"><stop offset=".029" style="stop-color:#fdd8cd"/><stop offset=".465" style="stop-color:#d9a499"/><stop offset="1" style="stop-color:#bf8980"/></linearGradient><polygon points="1588.8 422.8 1566.2 409.7 1554.7 401.9 1547.6 396.9 1536.7 388.3 1541 396.1 1535.7 393.4 1536.3 394.6 1536.1 395.6 1537.6 397 1541.2 401.2 1550.2 407.3 1550.9 409.7 1538.8 401.2 1535 399 1525.9 393 1526.8 395.1 1518.7 390.9 1519.6 393 1521.8 394.9 1522.6 396.7 1522.6 398.5 1546 412.5 1549.8 413.8 1543.8 408.6 1554.2 414 1562.6 416.3 1572.8 418.7 1566.8 413.8 1577 419.8" class="st11"/></g><path id="land-right3_1_" d="M2303.1,421.1h-34.4l-50.9-1.1h-8.7l-19.1-1.1l-29.4-3.4l-20.9,4.5l-17.5-3.5l-18.2,4.1	l-27.8-12l-32.9,7l-44.1,8.3l-46.6-2.3l-24.4,3l-11,7l-11.2-6.2l-48.4,3.9l-44.2-3.9l-41.6,8.9l-52.5,2.2l-58.8,3.8l-15.9,1	l12.8,4.2l7,1l20.5,2.5l35.9,3.8l75.1,10.5l80.3-1.6l318.6-7.6c0,0,116.7,5,116.7-23.7L2303.1,421.1z" class="st12"/><linearGradient id="SVGID_8_" x1="2298.681" x2="2068.429" y1="73.397" y2="-230.733" gradientTransform="matrix(1 0 0 -1 0 270)" gradientUnits="userSpaceOnUse"><stop offset="0" style="stop-color:#f4b49c"/><stop offset=".365" style="stop-color:#5a576c"/><stop offset=".995" style="stop-color:#3d4e59"/></linearGradient><polygon points="2537 394.7 2517.7 398.9 2509.4 394.9 2474.6 393.9 2427.8 402.2 2378.3 399.9 2352.4 402.9 2300.7 396.7 2245.9 409.1 2189.4 413.2 2138.3 411.2 2103.2 423.2 2053.7 425.2 2031.3 431.6 1990.7 436 1939.7 439.1 1909.5 445.3 1886.6 439 1864.3 445.3 1845.4 443 1823.1 445.3 1817 452.9 1773.1 456.7 1756.1 462.3 1736.7 468.2 1731.5 470.1 1661.7 477.9 1693.3 479.7 1884.6 478.2 1912.8 483.5 2060.2 483.5 2356.4 479.9 2356.4 453.7 2537.4 441.3" class="st13"/><linearGradient id="SVGID_9_" x1="2165.663" x2="2095.465" y1="35.629" y2="-628.546" gradientTransform="matrix(1 0 0 -1 0 270)" gradientUnits="userSpaceOnUse"><stop offset="0" style="stop-color:#f6d59b"/><stop offset=".147" style="stop-color:#bea39b"/><stop offset=".26" style="stop-color:#676279"/><stop offset=".402" style="stop-color:#3a4c57"/><stop offset="1" style="stop-color:#3a4850"/></linearGradient><polygon points="2514.2 389.7 2458.7 390.9 2429.8 399.7 2405.5 410.6 2389.3 410.7 2359.2 406.5 2329.1 421.2 2311.3 415.9 2291.1 425.2 2245.1 434.1 2228.9 437.2 2219.1 435 2219.1 434 2211.5 433.2 2209.2 432.7 2208.7 432.9 2190.8 430.9 2157.5 423.3 2142.6 427.9 2118.3 437.7 2103.2 450.3 2082.1 441.7 2065.9 441.9 2052 441.9 2035.7 437.7 2005.7 452.3 1987.9 447.1 1967.7 456.5 1945.7 460.7 1921.7 465.2 1905.5 468.5 1885.8 463.9 1870.9 469.5 1847.2 487.1 1823.1 496.7 1810.2 501.2 1794.5 501.2 1773.1 507.3 1758.2 507.9 1738.6 518.3 1728.3 518.3 1718.5 522.5 1790.2 523.2 1779 527.7 1767.5 527.7 1757.9 531.2 1742.8 533 1757.9 535.1 1776.2 539.1 1790.2 539.1 1803.8 539.1 1813.9 543.9 1835.9 549.9 1848.7 549.9 1859.7 549.9 1869.8 550.2 1873.3 550.7 1893.7 554 1907.2 556.5 1907.2 556 1935.7 560.3 2003.3 593.3 2033.5 589.4 2084.3 604.7 2137.4 608.5 2238.2 610.3 2542.5 611.5 2542.5 392.7" class="st14"/><path d="M1661.9,385.7l6.6-5.1h749c3.6,0,6.6,2.3,6.6,5.1l0,0c0,2.8-3,5.1-6.6,5.1h-749L1661.9,385.7z" class="st15"/><polygon points="848.4 412.2 1190.2 412.2 1196.1 407.7 1196.1 407.7 1190.2 403.2 848.4 403.2 842.5 407.7 842.5 407.7" class="st15"/><polygon points="1544.4 357.3 1843.4 357.3 1851.7 351.5 1851.7 351.5 1843.4 345.6 1544.4 345.6 1536 351.5 1536 351.5" class="st15"/><path d="M1933.8,350.3h539.3c3.2,0,5.9-1.7,5.9-3.7l0,0c0-2-2.7-3.7-5.9-3.7h-539.3l-5.9,3.7l0,0L1933.8,350.3z" class="st15"/><g id="stars_1_"><rect width="4.8" height="4.8" x="914.7" y="3.1" class="st16" transform="matrix(0.7071 0.7071 -0.7071 0.7071 272.4799 -646.902)"/><rect width="4" height="4" x="1058.5" y="-53.9" class="st16" transform="matrix(0.7071 0.7071 -0.7071 0.7071 273.8928 -765.1155)"/><rect width="2.8" height="2.8" x="1322.5" y="32.8" class="st16" transform="matrix(0.7071 0.7071 -0.7071 0.7071 411.9663 -926.1376)"/><rect width="4" height="4" x="1235.5" y="-105.8" class="st16" transform="matrix(0.7071 0.7071 -0.7071 0.7071 289.0789 -905.4186)"/><rect width="4.8" height="4.8" x="1197.4" y="-19.8" class="st17" transform="matrix(0.7071 0.7071 -0.7071 0.7071 339.1004 -853.5123)"/><rect width="4.8" height="4.8" x="1736.1" y="-100" class="st16" transform="matrix(0.7071 0.7071 -0.7071 0.7071 440.1968 -1257.8715)"/><rect width="4.8" height="4.8" x="1325" y="86.8" class="st16" transform="matrix(0.7071 0.7071 -0.7071 0.7071 451.8536 -912.5129)"/><rect width="4" height="4" x="1474.6" y="-128.5" class="st16" transform="matrix(0.7071 0.7071 -0.7071 0.7071 343.0322 -1081.1891)"/><rect width="4.8" height="4.8" x="1314.2" y="178.5" class="st16" transform="matrix(0.7071 0.7071 -0.7071 0.7071 513.582 -878.0123)"/><rect width="4" height="4" x="1345.1" y="-107.8" class="st16" transform="matrix(0.7071 0.7071 -0.7071 0.7071 319.7805 -983.5208)"/><rect width="4.8" height="4.8" x="1210.9" y="112.5" class="st16" transform="matrix(0.7071 0.7071 -0.7071 0.7071 436.6289 -824.2622)"/><rect width="4.8" height="4.8" x="1386.2" y="6.6" class="st16" transform="matrix(0.7071 0.7071 -0.7071 0.7071 413.0533 -979.2644)"/><rect width="4.8" height="4.8" x="884.8" y="119.4" class="st17" transform="matrix(0.7071 0.7071 -0.7071 0.7071 345.9662 -591.69)"/><rect width="4.8" height="4.8" x="987.1" y="-30.1" class="st16" transform="matrix(0.7071 0.7071 -0.7071 0.7071 270.1996 -707.7982)"/><rect width="4.8" height="4.8" x="1249.1" y="65.7" class="st16" transform="matrix(0.7071 0.7071 -0.7071 0.7071 414.7389 -865.0114)"/><rect width="4.8" height="4.8" x="1095.4" y="8.4" class="st16" transform="matrix(0.7071 0.7071 -0.7071 0.7071 329.1552 -773.0654)"/><rect width="4.8" height="4.8" x="858.7" y="164.8" class="st16" transform="matrix(0.7071 0.7071 -0.7071 0.7071 370.4439 -559.9187)"/><rect width="4.8" height="4.8" x="1190.2" y="78.9" class="st16" transform="matrix(0.7071 0.7071 -0.7071 0.7071 406.7671 -819.4604)"/><rect width="4.8" height="4.8" x="942.4" y="-57.6" class="st16" transform="matrix(0.7071 0.7071 -0.7071 0.7071 237.6964 -684.2123)"/><rect width="4" height="4" x="885.5" y="-107.9" class="st16" transform="matrix(0.7071 0.7071 -0.7071 0.7071 185.0784 -658.5656)"/><rect width="4.8" height="4.8" x="805.6" y="18.1" class="st16" transform="matrix(0.7071 0.7071 -0.7071 0.7071 251.1697 -565.2979)"/><rect width="4.8" height="4.8" x="804.3" y="-83" class="st16" transform="matrix(0.7071 0.7071 -0.7071 0.7071 179.2885 -594.0488)"/><rect width="4" height="4" x="951.1" y="-141.6" class="st16" transform="matrix(0.7071 0.7071 -0.7071 0.7071 180.4846 -714.835)"/><rect width="4.8" height="4.8" x="1053.5" y="-28.1" class="st17" transform="matrix(0.7071 0.7071 -0.7071 0.7071 291.093 -754.142)"/><rect width="4.8" height="4.8" x="1502.8" y="52.2" class="st16" transform="matrix(0.7071 0.7071 -0.7071 0.7071 479.4478 -1048.3812)"/><rect width="4.8" height="4.8" x="1125.4" y="135.5" class="st16" transform="matrix(0.7071 0.7071 -0.7071 0.7071 427.8467 -757.1192)"/><rect width="4.8" height="4.8" x="1075.4" y="-137.5" class="st16" transform="matrix(0.7071 0.7071 -0.7071 0.7071 220.1216 -801.7135)"/><rect width="4.8" height="4.8" x="1741.7" y="-116.5" class="st16" transform="matrix(0.7071 0.7071 -0.7071 0.7071 430.1729 -1266.7)"/><rect width="4.8" height="4.8" x="1178.8" y="-35.8" class="st16" transform="matrix(0.7071 0.7071 -0.7071 0.7071 322.3736 -844.989)"/><rect width="4.8" height="4.8" x="1049.3" y="110" class="st17" transform="matrix(0.7071 0.7071 -0.7071 0.7071 387.5323 -710.7198)"/><rect width="4.8" height="4.8" x="1001.1" y="19.1" class="st17" transform="matrix(0.7071 0.7071 -0.7071 0.7071 309.1427 -703.2905)"/><rect width="2.8" height="2.8" x="1279.6" y="-19" class="st16" transform="matrix(0.7071 0.7071 -0.7071 0.7071 362.7053 -910.9391)"/><rect width="4.8" height="4.8" x="765.5" y="82.8" class="st16" transform="matrix(0.7071 0.7071 -0.7071 0.7071 285.189 -518.0314)"/><rect width="4.8" height="4.8" x="1065.9" y="123.1" class="st16" transform="matrix(0.7071 0.7071 -0.7071 0.7071 401.6702 -718.6331)"/><rect width="4.8" height="4.8" x="1122" y="-4.6" class="st16" transform="matrix(0.7071 0.7071 -0.7071 0.7071 327.7968 -795.7223)"/><rect width="3.1" height="3.1" x="1079.7" y="-7.2" class="st16" transform="matrix(0.7071 0.7071 -0.7071 0.7071 312.6765 -766.2139)"/><rect width="3.1" height="3.1" x="895" y="97.8" class="st16" transform="matrix(0.7071 0.7071 -0.7071 0.7071 332.8624 -604.8391)"/><rect width="3.1" height="3.1" x="873.3" y="-37" class="st16" transform="matrix(0.7071 0.7071 -0.7071 0.7071 231.1885 -629.0029)"/><rect width="3.1" height="3.1" x="946.7" y="153.3" class="st16" transform="matrix(0.7071 0.7071 -0.7071 0.7071 387.2235 -625.1545)"/><rect width="3.1" height="3.1" x="932.9" y="66.4" class="st16" transform="matrix(0.1174 0.9931 -0.9931 0.1174 892.2942 -868)"/><rect width="4.8" height="4.8" x="1878.7" y="-108" class="st16" transform="matrix(0.7071 0.7071 -0.7071 0.7071 476.2693 -1361.0947)"/><rect width="4.8" height="4.8" x="1821.7" y="-158.7" class="st16" transform="matrix(0.7071 0.7071 -0.7071 0.7071 423.7437 -1335.6515)"/><rect width="4.8" height="4.8" x="1170.8" y="-119.9" class="st16" transform="matrix(0.7071 0.7071 -0.7071 0.7071 260.5522 -863.9481)"/><rect width="4.8" height="4.8" x="1295.9" y="-119.8" class="st16" transform="matrix(0.7071 0.7071 -0.7071 0.7071 297.2466 -952.4286)"/><rect width="3.4" height="3.4" x="902" y="52.3" class="st17" transform="matrix(0.7071 0.7071 -0.7071 0.7071 302.8994 -623.2158)"/><rect width="4.8" height="4.8" x="796.4" y="122.8" class="st16" transform="matrix(0.7071 0.7071 -0.7071 0.7071 322.4852 -528.189)"/><rect width="3.4" height="3.4" x="1012.8" y="79.1" class="st16" transform="matrix(0.7071 0.7071 -0.7071 0.7071 354.3089 -693.7159)"/><rect width="4.8" height="4.8" x="1121.2" y="16.3" class="st17" transform="matrix(0.7071 0.7071 -0.7071 0.7071 342.2973 -789.053)"/><rect width="3.4" height="3.4" x="935.6" y="59.1" class="st17" transform="matrix(0.7071 0.7071 -0.7071 0.7071 317.519 -644.987)"/><rect width="4.8" height="4.8" x="1365.4" y="96.9" class="st16" transform="matrix(0.7071 0.7071 -0.7071 0.7071 470.8369 -938.0589)"/><rect width="3.4" height="3.4" x="971.1" y="23.3" class="st17" transform="matrix(0.7071 0.7071 -0.7071 0.7071 302.6082 -680.5243)"/><rect width="4.8" height="4.8" x="1138.8" y="70.1" class="st17" transform="matrix(0.7071 0.7071 -0.7071 0.7071 385.4979 -785.7206)"/><rect width="4" height="4" x="1220.4" y="11.6" class="st16" transform="matrix(0.7071 0.7071 -0.7071 0.7071 367.6258 -860.3599)"/><rect width="4.8" height="4.8" x="1162.1" y="-89.3" class="st16" transform="matrix(0.7071 0.7071 -0.7071 0.7071 279.6059 -848.871)"/><rect width="4.8" height="4.8" x="1193.7" y="171.4" class="st16" transform="matrix(0.7071 0.7071 -0.7071 0.7071 473.2425 -794.8209)"/><rect width="4" height="4" x="1013.1" y="-93.4" class="st16" transform="matrix(0.7071 0.7071 -0.7071 0.7071 232.7 -744.5359)"/><rect width="3.4" height="3.4" x="961.7" y=".4" class="st16" transform="matrix(0.7071 0.7071 -0.7071 0.7071 283.6622 -680.589)"/><rect width="3.4" height="3.4" x="1063.7" y="142.9" class="st16" transform="matrix(0.7071 0.7071 -0.7071 0.7071 414.2668 -711.0265)"/><rect width="3.4" height="3.4" x="1035" y="24.7" class="st16" transform="matrix(0.7071 0.7071 -0.7071 0.7071 322.319 -725.2821)"/><rect width="4.8" height="4.8" x="921" y="-55.6" class="st16" transform="matrix(0.7071 0.7071 -0.7071 0.7071 232.7973 -668.511)"/><rect width="4.8" height="4.8" x="1486.4" y="126.4" class="st16" transform="matrix(0.7071 0.7071 -0.7071 0.7071 527.1331 -1014.9889)"/><rect width="4.8" height="4.8" x="1480.9" y="-41.6" class="st16" transform="matrix(0.7071 0.7071 -0.7071 0.7071 406.7085 -1060.3762)"/><rect width="3.4" height="3.4" x="890.2" y="25.7" class="st16" transform="matrix(0.7071 0.7071 -0.7071 0.7071 280.5663 -622.6441)"/><rect width="4.8" height="4.8" x="1327.5" y="-67.9" class="st16" transform="matrix(0.7071 0.7071 -0.7071 0.7071 343.2409 -959.5803)"/><rect width="2.8" height="2.8" x="1306" y="32.3" class="st16" transform="matrix(0.7071 0.7071 -0.7071 0.7071 406.7381 -914.6292)"/><rect width="3.1" height="3.1" x="834.9" y="64.3" class="st16" transform="matrix(0.7071 0.7071 -0.7071 0.7071 291.5146 -572.1728)"/><rect width="4.8" height="4.8" x="2016.2" y="-152.8" class="st16" transform="matrix(0.7071 0.7071 -0.7071 0.7071 484.8799 -1471.417)"/><rect width="3.1" height="3.1" x="1662.6" y="59.7" class="st16" transform="matrix(-0.9282 -0.3721 0.3721 -0.9282 3186.0105 737.3484)"/><rect width="3.1" height="3.1" x="1735.5" y="175.1" class="st16" transform="matrix(-0.9282 -0.3721 0.3721 -0.9282 3283.6335 987.0032)"/><rect width="3.1" height="3.1" x="1593.2" y="29" class="st16" transform="matrix(-0.9282 -0.3721 0.3721 -0.9282 3063.5947 652.3488)"/><rect width="3.1" height="3.1" x="1639.9" y="103.3" class="st16" transform="matrix(-0.4985 -0.8669 0.8669 -0.4985 2368.7632 1580.0732)"/><rect width="3.1" height="3.1" x="1925.5" y="69.3" class="st16" transform="matrix(-0.9282 -0.3721 0.3721 -0.9282 3689.3132 853.6772)"/><rect width="3.1" height="3.1" x="2015.2" y="49.1" class="st16" transform="matrix(-0.9282 -0.3721 0.3721 -0.9282 3869.7949 848.0624)"/><rect width="3.4" height="3.4" x="1973.3" y="82.5" class="st16" transform="matrix(-0.9282 -0.3721 0.3721 -0.9282 3776.8499 897.2556)"/><rect width="3.4" height="3.4" x="1561.1" y="123.2" class="st16" transform="matrix(-0.9282 -0.3721 0.3721 -0.9282 2966.8564 822.3589)"/><rect width="3.4" height="3.4" x="1844.1" y="133.3" class="st16" transform="matrix(-0.9282 -0.3721 0.3721 -0.9282 3508.8345 947.1085)"/><rect width="3.4" height="3.4" x="1906.2" y="132.2" class="st16" transform="matrix(-0.9282 -0.3721 0.3721 -0.9282 3628.9231 968.1314)"/><rect width="3.4" height="3.4" x="1639" y="175.2" class="st16" transform="matrix(-0.9282 -0.3721 0.3721 -0.9282 3097.7378 951.6014)"/><rect width="3.4" height="3.4" x="1562.2" y="181.7" class="st16" transform="matrix(-0.9282 -0.3721 0.3721 -0.9282 2947.2422 935.5461)"/><rect width="3.4" height="3.4" x="1694.9" y="124.1" class="st16" transform="matrix(-0.9282 -0.3721 0.3721 -0.9282 3224.5032 873.8909)"/><rect width="3.1" height="3.1" x="1730.9" y="66.8" class="st16" transform="matrix(-0.9282 -0.3721 0.3721 -0.9282 3315.0552 776.4493)"/><rect width="3.1" height="3.1" x="1971.9" y="67.6" class="st16" transform="matrix(-0.9282 -0.3721 0.3721 -0.9282 3779.4719 867.6328)"/><rect width="3.1" height="3.1" x="2006.1" y="0" class="st16" transform="matrix(-0.9282 -0.3721 0.3721 -0.9282 3870.5608 750.0505)"/><rect width="4.8" height="4.8" x="1902.6" y="-49.7" class="st16" transform="matrix(-0.9917 -0.1285 0.1285 -0.9917 3800.2014 150.569)"/><rect width="4.8" height="4.8" x="1578.4" y="-82.9" class="st16" transform="matrix(-0.9917 -0.1285 0.1285 -0.9917 3158.7678 42.7839)"/><rect width="4.8" height="4.8" x="1541.5" y="-12.3" class="st16" transform="matrix(-0.9917 -0.1285 0.1285 -0.9917 3076.2031 178.6555)"/><rect width="4.8" height="4.8" x="1432.2" y="23.2" class="st16" transform="matrix(-0.9917 -0.1285 0.1285 -0.9917 2853.949 235.3153)"/><rect width="4.8" height="4.8" x="1725.8" y="-7.9" class="st16" transform="matrix(-0.9917 -0.1285 0.1285 -0.9917 3442.7058 211.1016)"/><rect width="4.8" height="4.8" x="1593.5" y="-17.8" class="st16" transform="matrix(-0.9917 -0.1285 0.1285 -0.9917 3180.4768 174.3825)"/><rect width="4.8" height="4.8" x="1917.5" y="-20.1" class="st16" transform="matrix(-0.9917 -0.1285 0.1285 -0.9917 3826.0811 211.436)"/><rect width="4.8" height="4.8" x="1385.4" y="-85.4" class="st16" transform="matrix(-0.9917 -0.1285 0.1285 -0.9917 2774.6873 13.0056)"/><rect width="4.8" height="4.8" x="1800.6" y="-12.4" class="st16" transform="matrix(-0.9917 -0.1285 0.1285 -0.9917 3592.2563 211.7524)"/><rect width="4.8" height="4.8" x="1609.4" y="-32.5" class="st16" transform="matrix(-0.9917 -0.1285 0.1285 -0.9917 3214.0342 147.1479)"/><rect width="4.8" height="4.8" x="1917.7" y="23.9" class="st16" transform="matrix(-0.9917 -0.1285 0.1285 -0.9917 3820.8186 299.0979)"/><rect width="4.8" height="4.8" x="1837.8" y="50.3" class="st16" transform="matrix(0.7071 0.7071 -0.7071 0.7071 576.2314 -1285.8071)"/><rect width="4.8" height="4.8" x="1782.4" y="77.7" class="st16" transform="matrix(0.7071 0.7071 -0.7071 0.7071 579.3724 -1238.5763)"/><rect width="4.8" height="4.8" x="1935.7" y="161.3" class="st16" transform="matrix(0.7071 0.7071 -0.7071 0.7071 683.4379 -1322.5012)"/><rect width="4.8" height="4.8" x="1969.1" y="-71.2" class="st16" transform="matrix(0.7071 0.7071 -0.7071 0.7071 528.7885 -1414.2067)"/><rect width="4.8" height="4.8" x="1953.7" y="3.2" class="st16" transform="matrix(0.7071 0.7071 -0.7071 0.7071 576.8581 -1381.5236)"/><rect width="3.1" height="3.1" x="1790.4" y="-129.5" class="st16" transform="matrix(0.7071 0.7071 -0.7071 0.7071 434.3941 -1304.5446)"/><rect width="3.4" height="3.4" x="1807.3" y="-66.9" class="st16" transform="matrix(0.7071 0.7071 -0.7071 0.7071 483.6942 -1298.2327)"/><rect width="3.1" height="3.1" x="1752.1" y="-28" class="st16" transform="matrix(0.7071 0.7071 -0.7071 0.7071 494.9026 -1247.7555)"/><rect width="4.8" height="4.8" x="1857.8" y="-276" class="st16" transform="matrix(0.7071 0.7071 -0.7071 0.7071 351.3599 -1395.5374)"/><rect width="4.8" height="4.8" x="1802.3" y="-248.7" class="st16" transform="matrix(0.7071 0.7071 -0.7071 0.7071 354.4177 -1348.2236)"/><rect width="4.8" height="4.8" x="2489.2" y="-255.9" class="st16" transform="matrix(0.7071 0.7071 -0.7071 0.7071 550.494 -1836.1083)"/><rect width="4.8" height="4.8" x="2064.4" y="-252" class="st16" transform="matrix(0.7071 0.7071 -0.7071 0.7071 428.8622 -1534.5847)"/><rect width="4.8" height="4.8" x="1998.3" y="-277.5" class="st16" transform="matrix(0.7071 0.7071 -0.7071 0.7071 391.46 -1495.2983)"/><rect width="3.1" height="3.1" x="2231.9" y="-268.2" class="st16" transform="matrix(0.1174 0.9931 -0.9931 0.1174 1706.385 -2453.3784)"/><rect width="3.4" height="3.4" x="2311.9" y="-255.9" class="st16" transform="matrix(0.7071 0.7071 -0.7071 0.7071 497.9237 -1710.411)"/><rect width="3.1" height="3.1" x="2134" y="-270.4" class="st16" transform="matrix(0.7071 0.7071 -0.7071 0.7071 435.3532 -1588.809)"/><rect width="4.8" height="4.8" x="1505.6" y="-247.9" class="st16" transform="matrix(0.7071 0.7071 -0.7071 0.7071 268.1007 -1138.2291)"/><rect width="4.8" height="4.8" x="1429.6" y="-269" class="st16" transform="matrix(0.7071 0.7071 -0.7071 0.7071 230.8863 -1090.6863)"/><rect width="4.8" height="4.8" x="1370.7" y="-255.8" class="st16" transform="matrix(0.7071 0.7071 -0.7071 0.7071 222.9848 -1045.1886)"/><rect width="3.1" height="3.1" x="1614.2" y="-252.9" class="st16" transform="matrix(0.7071 0.7071 -0.7071 0.7071 295.4799 -1216.1394)"/><rect width="4.8" height="4.8" x="2070.5" y="73.2" class="st16" transform="matrix(0.7071 0.7071 -0.7071 0.7071 660.5725 -1443.6412)"/><rect width="4.8" height="4.8" x="2292.2" y="-13.6" class="st16" transform="matrix(0.7071 0.7071 -0.7071 0.7071 664.1308 -1625.8099)"/><rect width="4" height="4" x="2436" y="-70.6" class="st16" transform="matrix(0.7071 0.7071 -0.7071 0.7071 665.5845 -1743.9819)"/><rect width="3.4" height="3.4" x="2054.6" y="-140.6" class="st16" transform="matrix(0.7071 0.7071 -0.7071 0.7071 504.0193 -1494.688)"/><rect width="4.8" height="4.8" x="2364.5" y="-47.1" class="st16" transform="matrix(0.7071 0.7071 -0.7071 0.7071 661.6258 -1686.7643)"/><rect width="4.8" height="4.8" x="2472.7" y="-8.5" class="st16" transform="matrix(0.7071 0.7071 -0.7071 0.7071 720.6111 -1751.9855)"/><rect width="4.8" height="4.8" x="2236.1" y="147.9" class="st16" transform="matrix(0.7071 0.7071 -0.7071 0.7071 761.941 -1538.8557)"/><rect width="4.8" height="4.8" x="2085.9" y="-155.2" class="st16" transform="matrix(0.7071 0.7071 -0.7071 0.7071 503.5712 -1521.3861)"/><rect width="4.8" height="4.8" x="2319.9" y="-74.5" class="st16" transform="matrix(0.7071 0.7071 -0.7071 0.7071 629.2232 -1663.2206)"/><rect width="4" height="4" x="2263" y="-124.7" class="st16" transform="matrix(0.7071 0.7071 -0.7071 0.7071 576.629 -1637.5146)"/><rect width="4.8" height="4.8" x="2103.2" y="-121.6" class="st16" transform="matrix(0.7071 0.7071 -0.7071 0.7071 532.4045 -1523.8069)"/><rect width="4.8" height="4.8" x="2183" y="1.2" class="st16" transform="matrix(0.7071 0.7071 -0.7071 0.7071 642.6544 -1544.2887)"/><rect width="4.8" height="4.8" x="2181.9" y="-99.9" class="st16" transform="matrix(0.7071 0.7071 -0.7071 0.7071 570.8442 -1573.0687)"/><rect width="4" height="4" x="2328.6" y="-158.4" class="st16" transform="matrix(0.7071 0.7071 -0.7071 0.7071 572.0359 -1693.7844)"/><rect width="4.8" height="4.8" x="2452.7" y="-154.4" class="st16" transform="matrix(0.7071 0.7071 -0.7071 0.7071 611.5892 -1780.5802)"/><rect width="4.8" height="4.8" x="2142.8" y="66" class="st16" transform="matrix(0.7071 0.7071 -0.7071 0.7071 676.6862 -1496.8859)"/><rect width="4.8" height="4.8" x="2076.8" y="40.5" class="st16" transform="matrix(0.7071 0.7071 -0.7071 0.7071 639.3546 -1457.6525)"/><rect width="4.8" height="4.8" x="2443.3" y="106.2" class="st16" transform="matrix(0.7071 0.7071 -0.7071 0.7071 793.114 -1697.5829)"/><rect width="3.1" height="3.1" x="2457.2" y="-24.1" class="st16" transform="matrix(0.7071 0.7071 -0.7071 0.7071 704.2275 -1745.1637)"/><rect width="3.1" height="3.1" x="2272.5" y="81" class="st16" transform="matrix(0.7071 0.7071 -0.7071 0.7071 724.4131 -1583.7887)"/><rect width="3.1" height="3.1" x="2250.8" y="-53.8" class="st16" transform="matrix(0.7071 0.7071 -0.7071 0.7071 622.7393 -1607.9521)"/><rect width="3.1" height="3.1" x="2324.2" y="136.5" class="st16" transform="matrix(0.7071 0.7071 -0.7071 0.7071 778.7747 -1604.1045)"/><rect width="3.1" height="3.1" x="2310.4" y="49.7" class="st16" transform="matrix(0.1174 0.9931 -0.9931 0.1174 2091.4294 -2250.6499)"/><rect width="4.8" height="4.8" x="2174" y="105.8" class="st16" transform="matrix(0.7071 0.7071 -0.7071 0.7071 713.941 -1507.2267)"/><rect width="3.4" height="3.4" x="2390.3" y="62.3" class="st16" transform="matrix(0.7071 0.7071 -0.7071 0.7071 745.8597 -1672.6661)"/><rect width="3.4" height="3.4" x="2134.1" y="-58.6" class="st16" transform="matrix(0.7071 0.7071 -0.7071 0.7071 585.3597 -1526.8947)"/><rect width="3.4" height="3.4" x="2076.7" y="-81.8" class="st16" transform="matrix(0.7071 0.7071 -0.7071 0.7071 552.1229 -1493.1353)"/><rect width="4" height="4" x="2390.5" y="-110.4" class="st16" transform="matrix(0.7071 0.7071 -0.7071 0.7071 624.1263 -1723.5022)"/><rect width="3.4" height="3.4" x="2339.1" y="-16.4" class="st16" transform="matrix(0.7071 0.7071 -0.7071 0.7071 675.2299 -1659.4724)"/><rect width="3.4" height="3.4" x="2441.2" y="126" class="st16" transform="matrix(0.7071 0.7071 -0.7071 0.7071 805.8177 -1689.9761)"/><rect width="3.4" height="3.4" x="2412.4" y="7.9" class="st16" transform="matrix(0.7071 0.7071 -0.7071 0.7071 713.8693 -1704.2313)"/><rect width="4.8" height="4.8" x="2298.4" y="-72.5" class="st16" transform="matrix(0.7071 0.7071 -0.7071 0.7071 624.2947 -1647.4489)"/><rect width="3.4" height="3.4" x="2267.7" y="8.8" class="st16" transform="matrix(0.7071 0.7071 -0.7071 0.7071 672.1344 -1601.6104)"/><rect width="4.8" height="4.8" x="2103.4" y="5.7" class="st16" transform="matrix(0.7071 0.7071 -0.7071 0.7071 622.49 -1486.6326)"/><rect width="3.1" height="3.1" x="2212.5" y="47.5" class="st16" transform="matrix(0.7071 0.7071 -0.7071 0.7071 683.1776 -1551.193)"/><rect width="4.8" height="4.8" x="2521.8" y="-18.1" class="st16" transform="matrix(0.7071 0.7071 -0.7071 0.7071 728.2427 -1789.452)"/><rect width="3.4" height="3.4" x="2496.3" y="12.6" class="st16" transform="matrix(0.7071 0.7071 -0.7071 0.7071 741.7345 -1762.1724)"/><rect width="4.8" height="4.8" x="881.6" y="-284.6" class="st16" transform="matrix(0.7071 0.7071 -0.7071 0.7071 59.3679 -707.7463)"/><rect width="4.8" height="4.8" x="1062.1" y="-279.3" class="st16" transform="matrix(0.7071 0.7071 -0.7071 0.7071 115.9604 -833.8271)"/><rect width="4.8" height="4.8" x="772.3" y="-269.7" class="st16" transform="matrix(0.7071 0.7071 -0.7071 0.7071 37.9038 -626.0884)"/><rect width="3.1" height="3.1" x="899.7" y="-221.1" class="st16" transform="matrix(0.1174 0.9931 -0.9931 0.1174 577.3719 -1088.8101)"/><rect width="3.4" height="3.4" x="1001.7" y="-263.1" class="st16" transform="matrix(0.7071 0.7071 -0.7071 0.7071 109.0529 -786.0728)"/><rect width="3.4" height="3.4" x="856.9" y="-262.1" class="st16" transform="matrix(0.7071 0.7071 -0.7071 0.7071 67.3711 -683.4055)"/><rect width="3.1" height="3.1" x="801.7" y="-223.3" class="st16" transform="matrix(0.7071 0.7071 -0.7071 0.7071 78.456 -632.9464)"/><rect width="4.8" height="4.8" x="1219.4" y="-250.4" class="st16" transform="matrix(0.7071 0.7071 -0.7071 0.7071 182.5061 -936.5439)"/><rect width="4.8" height="4.8" x="1246" y="-263.5" class="st16" transform="matrix(0.7071 0.7071 -0.7071 0.7071 180.9943 -959.2298)"/><rect width="3.1" height="3.1" x="1203.7" y="-266" class="st16" transform="matrix(0.7071 0.7071 -0.7071 0.7071 166.0275 -929.6926)"/><rect width="3.4" height="3.4" x="1085.7" y="-258.3" class="st16" transform="matrix(0.7071 0.7071 -0.7071 0.7071 137.0543 -844.0842)"/><rect width="3.4" height="3.4" x="1158.9" y="-234" class="st16" transform="matrix(0.7071 0.7071 -0.7071 0.7071 175.6819 -888.7069)"/><rect width="2.8" height="2.8" x="1322.5" y="-219" class="st16" transform="matrix(0.7071 0.7071 -0.7071 0.7071 233.8672 -999.8772)"/><rect width="4.8" height="4.8" x="1325" y="-164.8" class="st16" transform="matrix(0.7071 0.7071 -0.7071 0.7071 273.9783 -986.1937)"/><rect width="4.8" height="4.8" x="1249" y="-186" class="st16" transform="matrix(0.7071 0.7071 -0.7071 0.7071 236.6931 -938.6802)"/><rect width="4.8" height="4.8" x="1190.3" y="-172.8" class="st16" transform="matrix(0.7071 0.7071 -0.7071 0.7071 228.8213 -893.2535)"/><rect width="4.8" height="4.8" x="1502.9" y="-199.6" class="st16" transform="matrix(0.7071 0.7071 -0.7071 0.7071 301.419 -1122.1744)"/><rect width="4.8" height="4.8" x="765.4" y="-168.7" class="st16" transform="matrix(0.7071 0.7071 -0.7071 0.7071 107.2848 -591.6416)"/><rect width="3.1" height="3.1" x="894.9" y="-153.9" class="st16" transform="matrix(0.7071 0.7071 -0.7071 0.7071 154.8162 -678.5079)"/><rect width="3.1" height="3.1" x="932.9" y="-185.1" class="st16" transform="matrix(0.1174 0.9931 -0.9931 0.1174 642.4843 -1089.9531)"/><rect width="3.4" height="3.4" x="1012.8" y="-172.7" class="st16" transform="matrix(0.7071 0.7071 -0.7071 0.7071 176.2094 -767.4558)"/><rect width="4.8" height="4.8" x="1365.4" y="-154.7" class="st16" transform="matrix(0.7071 0.7071 -0.7071 0.7071 292.8914 -1011.7692)"/><rect width="2.8" height="2.8" x="1306" y="-219.3" class="st16" transform="matrix(0.7071 0.7071 -0.7071 0.7071 228.8632 -988.3104)"/><rect width="3.1" height="3.1" x="835" y="-187.3" class="st16" transform="matrix(0.7071 0.7071 -0.7071 0.7071 113.6394 -645.9365)"/><rect width="3.1" height="3.1" x="1662.6" y="-192" class="st16" transform="matrix(-0.9282 -0.3721 0.3721 -0.9282 3279.6621 252.0057)"/><rect width="3.1" height="3.1" x="1639.8" y="-148.3" class="st16" transform="matrix(-0.4985 -0.8669 0.8669 -0.4985 2586.7957 1203.0243)"/><rect width="3.1" height="3.1" x="1925.6" y="-182.5" class="st16" transform="matrix(-0.9282 -0.3721 0.3721 -0.9282 3783.25 368.1938)"/><rect width="3.1" height="3.1" x="2015.4" y="-202.7" class="st16" transform="matrix(-0.9282 -0.3721 0.3721 -0.9282 3963.8972 362.6855)"/><rect width="3.4" height="3.4" x="1973.2" y="-169" class="st16" transform="matrix(-0.9282 -0.3721 0.3721 -0.9282 3870.1958 412.2847)"/><rect width="3.1" height="3.1" x="1730.8" y="-184.7" class="st16" transform="matrix(-0.9282 -0.3721 0.3721 -0.9282 3408.4014 291.4782)"/><rect width="3.1" height="3.1" x="1971.9" y="-184.1" class="st16" transform="matrix(-0.9282 -0.3721 0.3721 -0.9282 3873.1116 382.3183)"/><rect width="4.8" height="4.8" x="1837.9" y="-201.4" class="st16" transform="matrix(0.7071 0.7071 -0.7071 0.7071 398.2734 -1359.5713)"/><rect width="4.8" height="4.8" x="1782.3" y="-173.9" class="st16" transform="matrix(0.7071 0.7071 -0.7071 0.7071 401.4264 -1312.2037)"/><rect width="4.8" height="4.8" x="2070.6" y="-178.5" class="st16" transform="matrix(0.7071 0.7071 -0.7071 0.7071 482.6559 -1517.4219)"/><rect width="4.8" height="4.8" x="2142.9" y="-185.7" class="st16" transform="matrix(0.7071 0.7071 -0.7071 0.7071 498.7404 -1570.6791)"/><rect width="4.8" height="4.8" x="2076.8" y="-211.1" class="st16" transform="matrix(0.7071 0.7071 -0.7071 0.7071 461.4086 -1531.3629)"/><rect width="4.8" height="4.8" x="2443.4" y="-145.4" class="st16" transform="matrix(0.7071 0.7071 -0.7071 0.7071 615.2094 -1771.3347)"/><rect width="3.1" height="3.1" x="2272.5" y="-170.8" class="st16" transform="matrix(0.7071 0.7071 -0.7071 0.7071 546.3844 -1657.5818)"/><rect width="3.1" height="3.1" x="2310.3" y="-202" class="st16" transform="matrix(0.1174 0.9931 -0.9931 0.1174 1841.3744 -2472.8054)"/><rect width="4.8" height="4.8" x="2173.9" y="-145.8" class="st16" transform="matrix(0.7071 0.7071 -0.7071 0.7071 536.0365 -1580.8369)"/><rect width="3.4" height="3.4" x="2390.4" y="-189.5" class="st16" transform="matrix(0.7071 0.7071 -0.7071 0.7071 567.8314 -1746.4595)"/><rect width="3.1" height="3.1" x="2212.5" y="-204.2" class="st16" transform="matrix(0.7071 0.7071 -0.7071 0.7071 505.1899 -1624.8857)"/></g><path id="moon_1_" d="M1629.7,246.7c1.5,1.7,2.4,3.9,2.4,6.3c0,5.3-4.3,9.6-9.6,9.6c-1.7,0-3.3-0.4-4.6-1.2	c1.8,2,4.4,3.3,7.3,3.3c5.3,0,9.6-4.3,9.6-9.6C1634.7,251.6,1632.7,248.4,1629.7,246.7z" class="st18"/><linearGradient id="SVGID_10_" x1="1465.415" x2="1668.078" y1="196.614" y2="193.524" gradientTransform="matrix(0.999 4.384206e-02 4.384206e-02 -0.999 6.7642 -97.0066)" gradientUnits="userSpaceOnUse"><stop offset="0" style="stop-color:#f2fafe"/><stop offset=".209" style="stop-color:#f3c187"/><stop offset=".432" style="stop-color:#eb8d80"/><stop offset=".465" style="stop-color:#c77e75"/><stop offset=".512" style="stop-color:#996b66"/><stop offset=".562" style="stop-color:#705a59"/><stop offset=".613" style="stop-color:#504c4e"/><stop offset=".665" style="stop-color:#364146"/><stop offset=".719" style="stop-color:#243a41"/><stop offset=".775" style="stop-color:#19353d"/><stop offset=".84" style="stop-color:#16343c"/></linearGradient><path d="M1492.4-231.6c-3.8-0.2-7.6-0.3-11.4-0.5l-1.9,1l1.7,1.1c8.6,0.3,17.3,0.6,26.1,1c73,3.2,137.7,9.2,177.6,15.5	C1647.1-221,1575.2-228,1492.4-231.6z" class="st19"/><linearGradient id="SVGID_11_" x1="770.609" x2="1378.955" y1="434.175" y2="456.907" gradientUnits="userSpaceOnUse"><stop offset="0" style="stop-color:#404f58"/><stop offset=".342" style="stop-color:#41535d"/><stop offset=".882" style="stop-color:#445e6d"/><stop offset="1" style="stop-color:#456171"/></linearGradient><polygon points="1387.8 454.2 1387.4 453.9 1380.4 452.7 1371.4 448 1369.3 447.2 1379.8 446.5 1384 444.2 1393.1 444.9 1418.7 439.2 1401.5 439.2 1393.6 439.2 1375.3 437.6 1369.7 438.3 1363.8 437.6 1345.8 438.9 1322.6 434.3 1298.9 435 1290.3 437.2 1273.5 435.3 1266.9 432.7 1250.3 434.5 1236.1 434.7 1222.6 432.1 1200.2 432.1 1179.2 432.1 1167.8 426.7 1138.6 426.7 1100.8 426.7 1087.7 419.7 1041.9 427.3 1006.4 420.2 908.1 422.9 852.8 407.9 813.5 410.3 756.7 405.3 754.6 404.3 754.6 456 906.4 456 971.8 461.7 1013.6 472.6 1135.9 466.2 1186.3 474.2 1237.8 472.6 1282.9 475 1267.7 468.7 1284.9 462.3 1291.8 464.2 1298.3 461.3 1322.8 460.2 1327.3 459.3 1361.6 458.9 1383.3 458.9 1385.5 458.9 1387.8 458.5 1398 457.7 1394.5 456.2" class="st20"/><linearGradient id="SVGID_12_" x1="1211.904" x2="1106.644" y1="163.886" y2="424.112" gradientUnits="userSpaceOnUse"><stop offset=".114" style="stop-color:#334d5a"/><stop offset="1" style="stop-color:#384a56"/></linearGradient><polygon points="1424.9 480.9 1395.4 476.2 1354.9 473.7 1327.8 466.7 1306.5 464.7 1258.1 468.9 1186.6 454.3 1118 461.3 1057.6 452.7 1005.1 455 962.5 450.6 948.5 442.7 903.5 439.2 867.3 439.2 860.6 443.2 836 436.7 814.7 434.9 766.3 439 754.6 434 754.6 504.1 769 496.2 785.7 498.2 792.2 526.7 835.8 526.5 916.6 524.7 1014.3 526.2 1146.3 525.7 1192.4 526.2 1230.2 507.1 1267.6 508.7 1308 498.7 1325.7 490.3 1359.3 486.2 1407.1 487 1430.9 483" class="st21"/><linearGradient id="SVGID_13_" x1="1790.198" x2="969.533" y1="493.116" y2="537.942" gradientUnits="userSpaceOnUse"><stop offset="0" style="stop-color:#303d44"/><stop offset=".564" style="stop-color:#34424a"/><stop offset=".972" style="stop-color:#223239"/></linearGradient><polygon points="1270 542.9 1230.5 528.3 1196.1 530.2 1160.5 514 1100.1 502.7 1044.9 492.1 980.3 492.7 887.9 480.3 854.8 482.9 854.8 482.7 754.6 474.9 754.6 610.8 843.7 610.8 851.9 610.8 884 610.8 904.4 610.8 925.7 610.8 970.3 610.8 1012.1 610.4 1111.9 593.7 1157.5 590.5 1198.8 582.5 1230 569.3 1257.1 566.7 1271 568 1304.4 566 1334.2 561.5" class="st22"/><polygon points="1385.1 354.7 1378 350.7 754.6 350.7 754.6 366.6 1165.5 366.6 1175.9 360.7 1175.4 358.7 1378 358.7" class="st15"/><polygon points="1281.1 377.5 754.6 377.5 754.6 386 1281.1 386 1288.6 381.7" class="st15"/><g><defs><rect id="SVGID_14_" width="1780" height="850" x="754.6" y="-290.5"/></defs><clipPath id="SVGID_15_"><use xlink:href="#SVGID_14_" style="overflow:visible"/></clipPath><g class="st23"><g><g><linearGradient id="SVGID_16_" x1="14664.289" x2="14667.19" y1="579.379" y2="544.196" gradientTransform="matrix(-1 0 0 1 16546.832 0)" gradientUnits="userSpaceOnUse"><stop offset=".264" style="stop-color:#293942"/><stop offset="1" style="stop-color:#0f1b21"/></linearGradient><polygon points="1998.8 531.5 1991.2 561.4 1957.6 572.7 1846.1 582.5 1809.4 579.5 1780 572.1 1762.7 565.4 1760.2 553.5 1780 490 1954.2 464.2 1994.4 478.5" class="st24"/></g><linearGradient id="SVGID_17_" x1="14669.758" x2="14668.978" y1="457.273" y2="553.271" gradientTransform="matrix(-1 0 0 1 16546.832 0)" gradientUnits="userSpaceOnUse"><stop offset="0" style="stop-color:#4e5663"/><stop offset=".272" style="stop-color:#a6a8ab"/><stop offset=".809" style="stop-color:#a6a8ab"/><stop offset=".927" style="stop-color:#cfd0d2"/></linearGradient><polygon points="2023.1 440.3 2027.9 463.2 2025.1 488.9 2017.2 515.8 1997 546.1 1967.2 558.1 1927.5 571.9 1907.5 561.8 1844.9 541.8 1825.1 541.8 1793.3 552.9 1780.2 563.5 1770.7 568.5 1759.7 567.6 1745.6 535.7 1726.3 464.2 1731.7 434.2 1744.1 427.7 1796.7 424.3 1835.5 459 1994.6 435.2" class="st25"/><g><linearGradient id="SVGID_18_" x1="1817.274" x2="1786.508" y1="-3433.035" y2="-3414.224" gradientTransform="matrix(0.8368 -0.5475 0.5475 0.8368 2134.6272 4295.5913)" gradientUnits="userSpaceOnUse"><stop offset="0" style="stop-color:#929497"/><stop offset="1" style="stop-color:#293942"/></linearGradient><polygon points="1771.4 468.7 1766.4 454 1763.7 437.1 1764.9 427.3 1762.7 423.6 1760.4 435.6 1762.9 454.5 1767.2 470.5" class="st26"/><linearGradient id="SVGID_19_" x1="1887.013" x2="1850.559" y1="-3554.128" y2="-3512.332" gradientTransform="matrix(0.8223 -0.569 0.569 0.8223 2244.0215 4465.5752)" gradientUnits="userSpaceOnUse"><stop offset="0" style="stop-color:#5b3528"/><stop offset=".17" style="stop-color:#5b3427"/><stop offset=".206" style="stop-color:#743a21"/><stop offset=".253" style="stop-color:#8f411c"/><stop offset=".301" style="stop-color:#a24517"/><stop offset=".35" style="stop-color:#ad4815"/><stop offset=".402" style="stop-color:#b14914"/><stop offset=".572" style="stop-color:#5b3528"/></linearGradient><polygon points="1780.6 465.2 1785.1 477.7 1793.2 503.2 1765 509.7 1756.4 500.4 1749.3 483.5 1749.4 472.3 1772.8 463.4" class="st27"/><linearGradient id="SVGID_20_" x1="2274.602" x2="2235.463" y1="-4107.488" y2="-4063.543" gradientTransform="matrix(0.7678 -0.6407 0.6407 0.7678 2646.9338 5037.7534)" gradientUnits="userSpaceOnUse"><stop offset="0" style="stop-color:#cfd0d2"/><stop offset="1" style="stop-color:#293942"/></linearGradient><polygon points="1747.2 426.9 1746.6 438.7 1747.1 451.1 1749.3 462.9 1752.4 471.5 1759.2 490.6 1774.7 482.7 1767.5 465.4 1764.3 457.5 1762.3 447.6 1761.3 435.4 1762.7 423.6" class="st28"/><g><linearGradient id="SVGID_21_" x1="2259.389" x2="2249.12" y1="-4088.368" y2="-4099.118" gradientTransform="matrix(0.7678 -0.6407 0.6407 0.7678 2646.9338 5037.7534)" gradientUnits="userSpaceOnUse"><stop offset=".264" style="stop-color:#455a65"/><stop offset="1" style="stop-color:#0f1b21"/></linearGradient><polygon points="1762.5 448.9 1747.6 453 1747.2 451.6 1762.3 447.6" class="st29"/></g><g><linearGradient id="SVGID_22_" x1="2266.567" x2="2256.555" y1="-4098.678" y2="-4109.159" gradientTransform="matrix(0.7678 -0.6407 0.6407 0.7678 2646.9338 5037.7534)" gradientUnits="userSpaceOnUse"><stop offset=".264" style="stop-color:#455a65"/><stop offset="1" style="stop-color:#0f1b21"/></linearGradient><polygon points="1761.5 436.2 1746.6 440.2 1746.6 438.7 1761.4 435.4" class="st30"/></g><g><linearGradient id="SVGID_23_" x1="3236.263" x2="3225.5" y1="-5095.248" y2="-5106.517" gradientTransform="matrix(0.6238 -0.7816 0.7816 0.6238 3728.3506 6168.0278)" gradientUnits="userSpaceOnUse"><stop offset=".264" style="stop-color:#455a65"/><stop offset="1" style="stop-color:#0f1b21"/></linearGradient><polygon points="1764.5 458.6 1749.5 464.2 1749.3 462.9 1764.3 457.5" class="st31"/></g><linearGradient id="SVGID_24_" x1="1880.294" x2="1853.064" y1="-3554.217" y2="-3522.996" gradientTransform="matrix(0.8223 -0.569 0.569 0.8223 2244.0215 4465.5752)" gradientUnits="userSpaceOnUse"><stop offset="0" style="stop-color:#283840"/><stop offset="1" style="stop-color:#0f1b21"/></linearGradient><polygon points="1751.1 477.9 1774.7 469.4 1782.1 490.6 1773.8 504.5 1757.7 498.6" class="st32"/></g><g><linearGradient id="SVGID_25_" x1="14616.342" x2="14673.079" y1="497.561" y2="497.561" gradientTransform="matrix(-1 0 0 1 16546.832 0)" gradientUnits="userSpaceOnUse"><stop offset="0" style="stop-color:#3b2314"/><stop offset="1" style="stop-color:#754c28"/></linearGradient><polygon points="1926 467.9 1929.2 472.3 1930.5 477.5 1921 494.1 1924.7 508.6 1906.8 527.2 1875.7 515.6 1873.8 511.8 1903.5 519.7 1916.9 508.1 1913.1 492" class="st33"/><linearGradient id="SVGID_26_" x1="14517.023" x2="14640.12" y1="450.612" y2="450.612" gradientTransform="matrix(-1 0 0 1 16546.832 0)" gradientUnits="userSpaceOnUse"><stop offset="0" style="stop-color:#929497"/><stop offset="1" style="stop-color:#293942"/></linearGradient><polygon points="2025.1 437 2029.8 451.6 2027.9 463.2 2021.4 442.2 1994.9 435.7 1978.6 438.2 1964.4 442.7 1948.3 451.1 1934.8 461 1919.5 475.1 1914.5 474.4 1906.7 473.5 1931.7 445.9 1952.3 434.3 1970.2 428.8 1990 426.1 2010.1 429.9" class="st34"/><linearGradient id="SVGID_27_" x1="14649.131" x2="14642.102" y1="518.668" y2="465.4" gradientTransform="matrix(-1 0 0 1 16546.832 0)" gradientUnits="userSpaceOnUse"><stop offset="0" style="stop-color:#0f1b21"/><stop offset=".17" style="stop-color:#5b3427"/><stop offset=".182" style="stop-color:#683827"/><stop offset=".225" style="stop-color:#924625"/><stop offset=".268" style="stop-color:#b45124"/><stop offset=".312" style="stop-color:#cf5a23"/><stop offset=".356" style="stop-color:#e26023"/><stop offset=".402" style="stop-color:#ed6422"/><stop offset=".451" style="stop-color:#f16522"/><stop offset=".778" style="stop-color:#404041"/></linearGradient><polygon points="1926 467.9 1929.2 472.3 1916.1 493.4 1921.3 508 1905.5 523.8 1873.8 511.8 1874.3 503.9 1879.5 489.2 1892.6 467.9 1899.5 464.8" class="st35"/><linearGradient id="SVGID_28_" x1="14521.779" x2="14650.849" y1="453.045" y2="453.045" gradientTransform="matrix(-1 0 0 1 16546.832 0)" gradientUnits="userSpaceOnUse"><stop offset="0" style="stop-color:#fff"/><stop offset="1" style="stop-color:#293942"/></linearGradient><polygon points="1974.6 424 1954.6 427.1 1938.9 434.5 1924.7 443 1913.7 454.6 1903 466.7 1896 479.4 1910 482.1 1933.6 456.3 1943.2 447.3 1959.6 438.5 1978.9 432.2 1995.6 430.2 2025.1 437 2002.3 426.4" class="st36"/><linearGradient id="SVGID_29_" x1="14659.406" x2="14635.728" y1="498.442" y2="473.654" gradientTransform="matrix(-1 0 0 1 16546.832 0)" gradientUnits="userSpaceOnUse"><stop offset=".264" style="stop-color:#455a65"/><stop offset="1" style="stop-color:#0f1b21"/></linearGradient><polygon points="1921.4 475 1896.6 471.5 1885 490.6 1889.3 499.8 1906.9 495.3" class="st37"/><g><polygon points="1993.8 430.4 1995.6 430.2 1974.4 424 1973 424.2" class="st38"/></g><g><polygon points="1977.5 432.6 1978.9 432.2 1954.6 427.1 1953.5 427.7" class="st38"/></g><g><polygon points="1958.4 439.2 1959.4 438.5 1939.8 434.2 1938.6 434.7" class="st38"/></g><g><polygon points="1942 448.3 1943.2 447.3 1924.7 443 1924 444" class="st38"/></g><g><polygon points="1932.3 457.7 1933.6 456.3 1915.1 453.1 1914.1 454.2" class="st38"/></g></g><g id="left_arm_3_"><linearGradient id="SVGID_30_" x1="14786.423" x2="14662.33" y1="1239.925" y2="1315.796" gradientTransform="matrix(-0.9939 -0.1105 -0.1105 0.9939 16531.2168 861.026)" gradientUnits="userSpaceOnUse"><stop offset="0" style="stop-color:#f2c086"/><stop offset=".091" style="stop-color:#bbb3ae"/><stop offset=".316" style="stop-color:#caccce"/><stop offset=".75" style="stop-color:#9ea0a3"/></linearGradient><polygon points="1745 431.5 1744.1 427.7 1728.4 434.5 1718.2 444.8 1709.5 464.2 1706.9 501.4 1709 523.8 1720.5 544.2 1737.5 557.7 1764.7 569.9 1796.3 567.2 1828 554.3 1857.3 531.5 1832.8 510.5 1818.1 494.2 1785.5 488 1771.6 489.8 1757.3 493.6 1751.9 477.2 1749.3 466.9 1747.1 451.1 1746.8 434.9" class="st39"/><linearGradient id="SVGID_31_" x1="14732.171" x2="14785.733" y1="-56.992" y2="-56.992" gradientTransform="matrix(-0.9968 8.036253e-02 8.036253e-02 0.9968 16501.8516 -631.2833)" gradientUnits="userSpaceOnUse"><stop offset="0" style="stop-color:#794d3a"/><stop offset="1" style="stop-color:#36444c"/></linearGradient><polygon points="1811.6 492.8 1773.1 508 1758.4 495.3 1758.8 491.1 1811.7 489.2" class="st40"/><linearGradient id="SVGID_32_" x1="14755.667" x2="14782.35" y1="-67.136" y2="-45.974" gradientTransform="matrix(-0.9968 8.036253e-02 8.036253e-02 0.9968 16501.8516 -631.2833)" gradientUnits="userSpaceOnUse"><stop offset="0" style="stop-color:#5b3427"/><stop offset=".062" style="stop-color:#663827"/><stop offset=".171" style="stop-color:#844126"/><stop offset=".314" style="stop-color:#b45124"/><stop offset=".474" style="stop-color:#f16522"/><stop offset=".668" style="stop-color:#f28f3f"/><stop offset=".888" style="stop-color:#ed693c"/><stop offset="1" style="stop-color:#e83e39"/></linearGradient><polygon points="1795.3 479.9 1758.8 491.1 1773.3 503.8 1811.7 489.2" class="st41"/><g><linearGradient id="SVGID_33_" x1="16055.239" x2="16017.841" y1="443.508" y2="457.693" gradientTransform="matrix(-0.8525 -4.484851e-03 -6.155488e-03 1.1701 15395.2881 3.6908)" gradientUnits="userSpaceOnUse"><stop offset="0" style="stop-color:#ce9179"/><stop offset=".643" style="stop-color:#929497"/><stop offset="1" style="stop-color:#293942"/></linearGradient><polygon points="1744.1 427.7 1727.5 441.5 1722.1 451.1 1720.2 454.4 1718.1 461.7 1711.6 485.3 1707.4 495 1705.3 493.9 1707.9 470 1716.3 447.1 1729.6 430.9" class="st42"/><linearGradient id="SVGID_34_" x1="17338.209" x2="17298.707" y1="443.509" y2="458.492" gradientTransform="matrix(-0.7379 -3.882011e-03 -6.155459e-03 1.1701 14501.6562 -1.01)" gradientUnits="userSpaceOnUse"><stop offset="0" style="stop-color:#f2c086"/><stop offset=".081" style="stop-color:#f3a98c"/><stop offset=".184" style="stop-color:#d37a6d"/><stop offset=".466" style="stop-color:#cfd0d2"/><stop offset=".777" style="stop-color:#ccd1d0"/></linearGradient><polygon points="1739.8 428.7 1725.8 440.2 1720.1 449.3 1716 459.3 1709.5 483.3 1705.3 493.9 1704.1 490.9 1707.4 470.5 1714.3 449.1 1722 437.5 1729.6 430.9" class="st43"/></g><linearGradient id="SVGID_35_" x1="14703.936" x2="14759.711" y1="523.442" y2="523.442" gradientTransform="matrix(-1 0 0 1 16546.832 0)" gradientUnits="userSpaceOnUse"><stop offset="0" style="stop-color:#4e5663"/><stop offset="1" style="stop-color:#a6a8ab"/></linearGradient><polygon points="1842.9 542.9 1823.5 527.2 1799.9 497.5 1787 502.4 1812 531.5 1834.5 549.4" class="st44"/></g><g id="right_arm_3_"><linearGradient id="SVGID_36_" x1="14547.665" x2="14700.648" y1="543.535" y2="441.193" gradientTransform="matrix(-1 0 0 1 16546.832 0)" gradientUnits="userSpaceOnUse"><stop offset="0" style="stop-color:#f2c086"/><stop offset=".091" style="stop-color:#947f7e"/><stop offset=".316" style="stop-color:#cfd0d2"/><stop offset=".717" style="stop-color:#a6a8ab"/><stop offset=".746" style="stop-color:#aaacaf"/><stop offset=".869" style="stop-color:#b5b7b9"/><stop offset="1" style="stop-color:#b9bbbd"/></linearGradient><path d="M2023.3,484.5l-7.4,20l-21.8,29.1l-32.5,16.9l-40.8,17.8l-54.3-6.7l-42.8-34.5l-22.6-28.9l-18.9-14.4 l12.2-4.3l32.4-10.9l22.8,6.5l63.6,11.2l5.8-11.6l17.8-19.4c0,0,24.4-13.9,33.1-15.9c8.5-2,30-2.3,30-2.3l23.7,21.3 L2023.3,484.5L2023.3,484.5z" class="st45"/><linearGradient id="SVGID_37_" x1="14697.411" x2="14764.988" y1="492.695" y2="492.695" gradientTransform="matrix(-1 0 0 1 16546.832 0)" gradientUnits="userSpaceOnUse"><stop offset="0" style="stop-color:#293942"/><stop offset="1" style="stop-color:#0f1b21"/></linearGradient><path d="M1849.4,475.1c0,0-10.7,5.3-19.8,17.6c-7.7,10.5-12.5,26.8-12.5,26.8l-17.3-21.9l-18-13.5l20.2-16 l23.8-2.1L1849.4,475.1z" class="st46"/><linearGradient id="SVGID_38_" x1="1914.528" x2="1967.209" y1="4297.257" y2="4297.257" gradientTransform="matrix(0.8356 0.5493 -0.5493 0.8356 2618.5334 -4168.0083)" gradientUnits="userSpaceOnUse"><stop offset="0" style="stop-color:#3b2314"/><stop offset="1" style="stop-color:#754c28"/></linearGradient><polygon points="1866.1 475 1849.5 487.1 1849.4 491.6 1894.7 504.9 1910 490.9 1910 486.1" class="st47"/><linearGradient id="SVGID_39_" x1="1878.516" x2="1922.023" y1="4228.242" y2="4248.98" gradientTransform="matrix(0.841 0.5411 -0.5411 0.841 2575.6907 -4105.5039)" gradientUnits="userSpaceOnUse"><stop offset="0" style="stop-color:#5b3427"/><stop offset=".164" style="stop-color:#914625"/><stop offset=".341" style="stop-color:#c55723"/><stop offset=".474" style="stop-color:#e56122"/><stop offset=".548" style="stop-color:#f16522"/><stop offset=".701" style="stop-color:#f28f3f"/><stop offset=".888" style="stop-color:#ed693c"/><stop offset="1" style="stop-color:#e83e39"/></linearGradient><polygon points="1866.1 475 1849.5 487.1 1894.7 499.9 1910 486.1" class="st48"/></g><g><g id="neck_tube_3_"><linearGradient id="SVGID_40_" x1="14809.48" x2="14532.669" y1="419.772" y2="433.476" gradientTransform="matrix(-1 0 0 1 16546.832 0)" gradientUnits="userSpaceOnUse"><stop offset=".264" style="stop-color:#293942"/><stop offset="1" style="stop-color:#29373e"/></linearGradient><polygon points="1733.8 410.1 1743.2 424.1 1745 431.5 1748.8 438.7 1753.2 443.4 1755 451.1 1768.1 460.4 1790.8 459.4 1825.9 465.9 1840.1 470.5 1903.7 460.5 1936.4 444.1 1965.8 430.9 1989.8 427.1 2010.7 430.6 2021.3 435.2 2012.9 424.1 2017.9 407 2010.9 403 2004.7 387.4 2002.6 398 1961.3 408.3 1800.6 414.3 1764.7 410.1" class="st49"/><linearGradient id="SVGID_41_" x1="14648.305" x2="14747.734" y1="428.989" y2="428.989" gradientTransform="matrix(-1 0 0 1 16546.832 0)" gradientUnits="userSpaceOnUse"><stop offset="0" style="stop-color:#293942"/><stop offset="1" style="stop-color:#0f1b21"/></linearGradient><polygon points="1799.1 425.3 1818.1 429 1851.4 433.1 1873.4 432.4 1891.7 428.3 1898.5 424.9 1884.9 425.9 1875.2 428.8 1847.7 428.5 1820.6 427.1" class="st50"/><linearGradient id="SVGID_42_" x1="14579.623" x2="14693.982" y1="436.621" y2="436.621" gradientTransform="matrix(-1 0 0 1 16546.832 0)" gradientUnits="userSpaceOnUse"><stop offset="0" style="stop-color:#293942"/><stop offset="1" style="stop-color:#162329"/></linearGradient><polygon points="1929.6 426.1 1892.3 429.4 1865 438.8 1852.8 447.1 1865.8 446.8 1890.7 440.5 1904.8 440.8 1948.4 437 1967.2 429.3" class="st51"/><linearGradient id="SVGID_43_" x1="14634.038" x2="14745.854" y1="457.966" y2="457.966" gradientTransform="matrix(-1 0 0 1 16546.832 0)" gradientUnits="userSpaceOnUse"><stop offset="0" style="stop-color:#293942"/><stop offset="1" style="stop-color:#0f1b21"/></linearGradient><polygon points="1912.8 456 1889.2 457.6 1869.8 456.5 1847.4 459.2 1801 450.1 1817.7 457.6 1843.6 465.8 1903.7 460.5" class="st52"/><linearGradient id="SVGID_44_" x1="14745.522" x2="14795.734" y1="432.639" y2="432.639" gradientTransform="matrix(-1 0 0 1 16546.832 0)" gradientUnits="userSpaceOnUse"><stop offset="0" style="stop-color:#293942"/><stop offset="1" style="stop-color:#0f1b21"/></linearGradient><polygon points="1751.1 421.2 1784.8 435.2 1801.3 444 1779.2 437.1 1767 432.1" class="st53"/></g></g><g id="space_yeti"><path d="M1715.5,152.5l82-16.8l107.3,30L1973,221l-9.4,75.5l-56.4,27.2l-21.5,55l-32.1,2.5l-70-0.7l-51.8-9 l-1.9-0.3c-22.6-24.3-42.6-72.2-42-120c0.2-25.7,2.4-45.9,11.5-66.6L1715.5,152.5z" class="st54"/><linearGradient id="SVGID_45_" x1="14788.498" x2="14804.494" y1="283.219" y2="283.219" gradientTransform="matrix(-1 0 0 1 16546.832 0)" gradientUnits="userSpaceOnUse"><stop offset=".339" style="stop-color:#0d1d24"/><stop offset=".757" style="stop-color:#322e2f"/></linearGradient><polygon points="1758.3 280.8 1758.3 288.9 1742.7 285.7 1742.4 277.6" class="st55"/><linearGradient id="SVGID_46_" x1="296.114" x2="357.031" y1="189.319" y2="189.319" gradientTransform="matrix(1 9.884079e-03 -9.884079e-03 1 1429.0698 -73.2802)" gradientUnits="userSpaceOnUse"><stop offset="0" style="stop-color:#4e5663"/><stop offset=".582" style="stop-color:#0d1c21"/></linearGradient><path d="M1745.7,74.6c0.3-7.3-4.6-7.3-9.2-0.1c-5.1,8-10.3,20.9-11.7,27.9c-5.4,26.1,4.5,48.6,30.7,66.6 c0.1,0,0.1,0.1,0.1,0.1l0,0c0.1,0.1,0.1,0.1,0.1,0.1c1.7,1.2,9.4-7,17-18.1c7.7-11.3,12.5-21.3,10.8-22.5 c-0.1-0.1-0.2-0.1-0.3-0.1C1764.3,115.3,1744.4,98.1,1745.7,74.6z" class="st56"/><linearGradient id="SVGID_47_" x1="14523.353" x2="14816.778" y1="479.131" y2="479.131" gradientTransform="matrix(-1 -9.884079e-03 -9.884079e-03 1 16548.248 76.1606)" gradientUnits="userSpaceOnUse"><stop offset="0" style="stop-color:#c9a170"/><stop offset=".095" style="stop-color:#b2675c"/><stop offset=".356" style="stop-color:#273d44"/><stop offset=".469" style="stop-color:#3a484e"/><stop offset=".623" style="stop-color:#4d5458"/><stop offset=".782" style="stop-color:#585b5e"/><stop offset=".951" style="stop-color:#5c5d60"/></linearGradient><path d="M2020.3,397.4l-0.1,11.6c-0.1,9.5-65.8,16.5-146.9,15.7c-81-0.8-146.7-9.1-146.5-18.6l0.1-11.6 L2020.3,397.4z" class="st57"/><linearGradient id="SVGID_48_" x1="14826.441" x2="14519.072" y1="464.649" y2="464.649" gradientTransform="matrix(-1 -9.884079e-03 -9.884079e-03 1 16548.248 76.1606)" gradientUnits="userSpaceOnUse"><stop offset="0" style="stop-color:#929592"/><stop offset=".389" style="stop-color:#7b797a"/><stop offset="1" style="stop-color:#273d44"/></linearGradient><path d="M1726.9,394.4c-0.1,9.5,65.6,17.8,146.5,18.6c81,0.9,146.8-6.2,146.9-15.7c0.1-9.5-65.6-17.8-146.5-18.6 S1727.1,385,1726.9,394.4z" class="st58"/><linearGradient id="SVGID_49_" x1="14763.041" x2="14839.962" y1="321.575" y2="335.312" gradientTransform="matrix(-1 -9.884079e-03 -9.884079e-03 1 16548.248 76.1606)" gradientUnits="userSpaceOnUse"><stop offset="0" style="stop-color:#0f1b21"/><stop offset="1" style="stop-color:#293942"/></linearGradient><polygon points="1729.6 371.1 1724.9 322.8 1766 291.5 1764.1 252.7 1764.1 246.5 1730.9 220.5 1711.8 200 1701.9 182.9 1700.2 179.1 1702.8 168.9 1723.4 141 1778.5 93.1 1863.4 72.3 1936.1 105.6 2024.1 179 2020.6 265.4 1977.4 354.6 1906.4 396.7 1832.6 402.3" class="st59"/><linearGradient id="SVGID_50_" x1="14527.234" x2="14804.892" y1="460.252" y2="460.252" gradientTransform="matrix(-1 -9.884079e-03 -9.884079e-03 1 16548.248 76.1606)" gradientUnits="userSpaceOnUse"><stop offset="0" style="stop-color:#f2c086"/><stop offset=".091" style="stop-color:#d37a6d"/><stop offset=".316" style="stop-color:#cfd0d2"/><stop offset=".96" style="stop-color:#a6a8ab"/><stop offset=".964" style="stop-color:#b5ada3"/><stop offset=".972" style="stop-color:#d0b596"/><stop offset=".981" style="stop-color:#e3bb8d"/><stop offset=".99" style="stop-color:#eebf87"/><stop offset="1" style="stop-color:#f2c085"/></linearGradient><path d="M2012.4,377.7l-0.1,17c-0.1,7.3-61.6,12.5-137.5,11.8c-75.9-0.7-137.4-7.2-137.3-14.5l0.1-17l23.8,3.6 l23,2.7L2012.4,377.7z" class="st60"/><path d="M1944.3,364c41.5,3.2,68.1,7.7,68,12.5c-0.1,4.8-26.7,8.7-68,10.9V364L1944.3,364z" class="st61"/><linearGradient id="SVGID_51_" x1="14522.352" x2="14804.866" y1="421.211" y2="421.211" gradientTransform="matrix(-1 -9.884079e-03 -9.884079e-03 1 16548.248 76.1606)" gradientUnits="userSpaceOnUse"><stop offset="0" style="stop-color:#f2c086"/><stop offset=".091" style="stop-color:#c68269"/><stop offset=".316" style="stop-color:#cfd0d2"/><stop offset=".967" style="stop-color:#a6a8ab"/></linearGradient><path d="M1785.7,388.2l100.3-5.4l9.2-23.9l14-36.5l27.6-13.5l31.4-11.7l49.1,35.2l-10.8,16.6 c0,0-17.9,18.4-24.4,24.6l-17.9,4.4l-15.3,3.6l-3.5,6c48.9-2.4,66.8-7.4,66.9-10.8l-0.1,18.4c-0.1,7.3-61.6,14.3-137.5,13.5 c-75.9-0.8-137.4-6.5-137.3-13.8l0.1-19.4C1737.7,375.6,1785.4,387.4,1785.7,388.2z" class="st62"/><linearGradient id="SVGID_52_" x1="14513.25" x2="14651.767" y1="148.069" y2="247.204" gradientTransform="matrix(-1 -9.884079e-03 -9.884079e-03 1 16548.248 76.1606)" gradientUnits="userSpaceOnUse"><stop offset="0" style="stop-color:#f2c086"/><stop offset=".081" style="stop-color:#f3a98c"/><stop offset=".184" style="stop-color:#a79189"/><stop offset=".668" style="stop-color:#bdbfc1"/><stop offset=".846" style="stop-color:#ccd1d0"/><stop offset="1" style="stop-color:#a6a8ab"/></linearGradient><path d="M1983.8,208.5l-163.9-91.6l-69.6-2.5c15.5-35.6,65.6-55.7,122.4-52.6c96.1,5.3,174.9,87.9,174,184.3 C2046.6,265.4,1983.8,208.5,1983.8,208.5z" class="st63"/><linearGradient id="SVGID_53_" x1="14498.943" x2="14564.395" y1="186.996" y2="186.996" gradientTransform="matrix(-1 -9.884079e-03 -9.884079e-03 1 16548.248 76.1606)" gradientUnits="userSpaceOnUse"><stop offset="0" style="stop-color:#6c6f71"/><stop offset=".427" style="stop-color:#4e5663"/><stop offset="1" style="stop-color:#0d1c21"/></linearGradient><path d="M2024.7,71.9c0.1-6.4,4.9-7.3,9.7,0.1c5.9,8.7,10.4,22.3,11.7,29.6c5.2,27.9-5.8,51.2-34,69.8 c-0.1,0-1.3,0.9-1.4,0.9c-1.9,1.2-11.5-7-19.4-19c-8-12.1-10.9-23.3-9.1-24.4c0.1-0.1,1.1-0.9,1.2-0.9 C2004,114.6,2024.1,96.9,2024.7,71.9z" class="st64"/><linearGradient id="SVGID_54_" x1="14530.951" x2="14594.785" y1="429.025" y2="429.025" gradientTransform="matrix(-1 -9.884079e-03 -9.884079e-03 1 16548.248 76.1606)" gradientUnits="userSpaceOnUse"><stop offset=".416" style="stop-color:#4e5663"/><stop offset=".668" style="stop-color:#273d44"/><stop offset="1" style="stop-color:#273d44"/></linearGradient><path d="M2013.4,339c0,0-5.2,30.2-5.8,33.5s-0.7,3.2-2.7,4.1c-2.4,1-8.3,2.1-14.3,2.9c-11.8,1.8-41.6,4.1-41.6,4.1 v-2.3c0,0,25.9-7.4,37.1-14.6C2001.8,356.4,2013.4,339,2013.4,339z" class="st65"/><linearGradient id="SVGID_55_" x1="14796.238" x2="14711.101" y1="159.955" y2="297.737" gradientTransform="matrix(-1 0 0 1 16546.832 0)" gradientUnits="userSpaceOnUse"><stop offset="0" style="stop-color:#273d44"/><stop offset=".205" style="stop-color:#be918a"/><stop offset=".373" style="stop-color:#c7c9cb"/><stop offset=".687" style="stop-color:#ccd1d0"/></linearGradient><path d="M1772.9,176.9l-17-5.2l-21.3,6.9l15.8,12.2l-19.7,3.6l-9.5,11.3l16,7.2l6,7.2c0,0,8.8,47.2,9.7,73.1 c0.9,25.9-2,84.1-2,84.1l31.2,4.9h68.4l32-3.6l20.7-61.5L1926,306c0,0,7.6-51.1,7.1-57.6s-9.7-25.9-11.4-28.4 c-2-3-17-14.3-17-14.3s-27.9-17-37.6-20.9s-17.4-4.6-17.4-4.6l-66.8-19.1L1772.9,176.9z" class="st66"/><radialGradient id="SVGID_56_" cx="14710.974" cy="328.187" r="116.297" gradientTransform="matrix(-0.9991 -9.874878e-03 -9.874878e-03 0.9991 16537.5898 76.4275)" gradientUnits="userSpaceOnUse"><stop offset="0" style="stop-color:#0f1b21;stop-opacity:0"/><stop offset=".676" style="stop-color:#0f1b21;stop-opacity:.6512"/><stop offset=".758" style="stop-color:#19272e;stop-opacity:.7396"/><stop offset=".886" style="stop-color:#24343b;stop-opacity:.8777"/><stop offset="1" style="stop-color:#283840"/></radialGradient><path d="M1925.1,312.2c0,0,8.7-57.3,8-63.8c-0.9-6.4-9.1-25.1-11.4-28.4c-2.3-3.4-17-14.3-17-14.3 s-28.6-17.3-37.6-20.9c-9-3.6-39.5-10.5-39.5-10.5l-42.6-2l-12.1,4.8c0,0-12.5-1.9-18-1.9c-5.5,0-20.4,3.6-20.4,3.6l15.8,12.2 l-19.7,3.6l-9.5,11.3l16,7.2l6,7.2l1.9,11.5l-14-10.9l-19.1-20.5l-10-17.1l-1.1-2.4l9.4-22.8l34.2-17.7l38.8-3.9l23.7,1.1 l21.1,1.7l34.5,10.5l102.3,40.8l3.8,29.6l-9,78L1925.1,312.2z" class="st67"/><g class="st2"><polygon points="1808.3 360 1803.6 363.8 1797.7 354 1797.1 354.6 1803 368.7 1808.6 365.7 1815.6 371.8 1828.2 366.3 1831.6 370.6 1844.4 352.3 1833.3 362.2 1829.5 359.3 1816.2 365.8" class="st68"/></g><linearGradient id="SVGID_57_" x1="14653.514" x2="14746.193" y1="94.926" y2="161.256" gradientTransform="matrix(-1 -9.884079e-03 -9.884079e-03 1 16548.248 76.1606)" gradientUnits="userSpaceOnUse"><stop offset="0" style="stop-color:#f2c086"/><stop offset="1" style="stop-color:#f1f1f2"/></linearGradient><path d="M1844,65.7l-32.5,8l-20,11.4l-28.4,29.9l-12.7-0.4c15.5-35.6,65.6-55.7,122.4-52.6c1.5,0.1,3,0.1,4.5,0.3 L1844,65.7z" class="st69"/><g class="st5"><path d="M1779.9,304c-3.9,0-7.4,0.7-10,1.8c-0.1,0-0.3,0.1-0.4,0.1c-3.8-3.2-6.3-9.2-6.3-16 c0-10.3,5.6-18.6,12.5-18.6s12.5,8.3,12.5,18.6c0,5.9-1.9,11.1-4.6,14.5C1782.3,304.2,1781.1,304,1779.9,304z" class="st70"/><linearGradient id="SVGID_58_" x1="14761.303" x2="14775.098" y1="289.191" y2="289.191" gradientTransform="matrix(-1 0 0 1 16546.832 0)" gradientUnits="userSpaceOnUse"><stop offset="0" style="stop-color:#293942"/><stop offset="1" style="stop-color:#0f1b21"/></linearGradient><ellipse cx="1778.6" cy="289.2" class="st71" rx="7" ry="11.3"/><ellipse cx="1781.2" cy="280.8" class="st70" rx="2.5" ry="4.3"/></g><g class="st2"><path d="M1854,306.3c-2.2,0-4.3,0.1-6.3,0.3c-3.3-4.2-5.4-10.2-5.4-16.8c0-12.6,7.4-22.9,16.6-22.9 c9.2,0,16.6,10.3,16.6,22.9c0,7.7-2.9,14.6-7.1,18.7C1864.4,307.1,1859.4,306.3,1854,306.3z" class="st70"/><linearGradient id="SVGID_59_" x1="14673.964" x2="14691.881" y1="289.191" y2="289.191" gradientTransform="matrix(-1 0 0 1 16546.832 0)" gradientUnits="userSpaceOnUse"><stop offset="0" style="stop-color:#293942"/><stop offset="1" style="stop-color:#0f1b21"/></linearGradient><ellipse cx="1863.9" cy="289.2" class="st72" rx="9" ry="13.2"/><ellipse cx="1868" cy="279.8" class="st70" rx="3.3" ry="5"/></g><path d="M1856.5,248.6c-6.4,0.9-12.2,3.3-16.6,6.7c2.1-7.1,8-12.6,15.6-13.6c7.5-1.1,14.7,2.7,18.7,8.8 C1869.1,248.5,1863,247.7,1856.5,248.6z" class="st68"/><linearGradient id="SVGID_60_" x1="14758.794" x2="14786.368" y1="256.864" y2="256.864" gradientTransform="matrix(-1 0 0 1 16546.832 0)" gradientUnits="userSpaceOnUse"><stop offset="0" style="stop-color:#a0a2a4"/><stop offset="1" style="stop-color:#9d867b"/></linearGradient><path d="M1775.3,256.6c-5.2-1.4-10.4-1.1-14.8,0.6c4.2-5.8,10.5-8.8,16.6-7.3c6.1,1.5,10.2,7.4,10.9,14.5 C1784.9,260.7,1780.5,257.8,1775.3,256.6z" class="st73"/><path d="M1837.3,340.4c0.9-0.3-14.4,0-38.5-4.5c0,0,0.1-1.9-0.1-4.1c-0.1-1.3-0.4-2.7-1.1-3.8c0,0-2.1,8.1-4.3,9.5 c0,0,4.6,4.5,16.3,6.5c0,0-6.4-2.9-9.1-4.9C1800.8,339.3,1827.2,343.9,1837.3,340.4z" class="st74"/><path d="M1766.9,378.3l-7.3-1.1l-8.7-1.7c0,0,1.2-20.8,1.8-46.3c0.2,1.9,0.6,3.8,0.9,5.6 C1756.4,354.4,1760.7,370.9,1766.9,378.3z" class="st75"/><radialGradient id="SVGID_61_" cx="14695.92" cy="262.238" r="98.27" gradientTransform="matrix(-0.9991 0 0 1.413 16536.1738 -77.2033)" gradientUnits="userSpaceOnUse"><stop offset="0" style="stop-color:#e6e7e8"/><stop offset=".17" style="stop-color:#e3e4e5"/><stop offset=".316" style="stop-color:#d8dbdc"/><stop offset=".454" style="stop-color:#c6cbcd"/><stop offset=".586" style="stop-color:#adb5b7"/><stop offset=".714" style="stop-color:#8d989c"/><stop offset=".84" style="stop-color:#66757a"/><stop offset=".961" style="stop-color:#384c52"/><stop offset="1" style="stop-color:#273d44"/></radialGradient><path d="M1892.1,326.1l10.7-25.5l6.4-29.8l2.5-26.9l-7.9-21.5l-7.7-11.3l-14-10.9l-14-9.4l-18.8-10.8 c0,0,2.4,0.3,5.5,1.1c1.9,0.4,4.1,1.2,6,1.7c5.6,1.5,10.5,3.9,10.5,3.9l9.7,5.2l23.4,13.6c0,0,15.6,11.7,17,14.3 s10.5,20.6,11.4,28.4c0.9,7.9-7.1,57.6-7.1,57.6l-22.9,10.9l-20.4,60.3l-20.6,2.9l-17.1,0.7l24.9-14.6L1892.1,326.1z" class="st76"/><polygon points="1802.2 185.2 1786.5 193.5 1765.3 210.1 1766.6 191.9 1769.8 177.5 1773.2 173.2 1804.6 181.7 1808.3 183.3" class="st75"/><g><linearGradient id="SVGID_62_" x1="14788.432" x2="14712.857" y1="245.68" y2="259.978" gradientTransform="matrix(-1 -9.884079e-03 -9.884079e-03 1 16548.248 76.1606)" gradientUnits="userSpaceOnUse"><stop offset="0" style="stop-color:#f2c086"/><stop offset=".081" style="stop-color:#f3a98c"/><stop offset=".184" style="stop-color:#df9283"/><stop offset=".466" style="stop-color:#cfd0d2"/></linearGradient><path d="M1800.6,184c0,0-11.5,2.7-17.4,5.9c-6,3.2-17.6,14.3-17.6,14.3s1.1-17.9,2.3-21.5 c1.5-4.3,3.6-11.4,9-17.5c2-2.2,9.7-9.4,9.7-9.4s23.2,3.9,28.2,4.5c7.9,1.1,34.8,19.9,34.8,19.9" class="st77"/></g><g class="st5"><linearGradient id="SVGID_63_" x1="14792.329" x2="14622.094" y1="295.929" y2="295.929" gradientTransform="matrix(-1 0 0 1 16546.832 0)" gradientUnits="userSpaceOnUse"><stop offset="0" style="stop-color:#e6968b"/><stop offset=".466" style="stop-color:#a4a7a9"/><stop offset=".709" style="stop-color:#a8acad"/><stop offset=".976" style="stop-color:#293942"/></linearGradient><path d="M1793,283.6c0,0,2.4,0.8,3.9,2.1l4.2,2.7l8-2.2l0,0c0.7-0.1,1.4-0.3,2.2-0.3c3.9,0,9,2.9,9,2.9l2.9,16.4 c0,0,1.5,5.4,4.3,8.6c2.8,3.2,7.6,4.3,7.6,4.3l23.2,3.2c0,0,11.5-0.3,17.6-0.9c6.1-0.7,12.2-3.4,13.3-7 c1.2-3.6,5.6-21.6,5.6-21.6l1.2-7.9l3.5,0.1l28.6,5.3l1.4-8.3l-21.8-4.3c0,0-25.1-4.3-39.8-5.4c-38.2-3.1-48.4,7.4-48.4,7.4 s-4.2-0.7-8.1-0.7s-8.4,1.5-8.4,1.5s-13.1-4.3-19.4-5c-6.3-0.7-18.1-0.1-18.1-0.1l-10.4,1.8l-3.6,0.9l0.7,7.7 c4.4-2.8,14.9-4.4,14.9-4.4s9.5-0.1,15.3,0.8C1788.5,281.8,1793,283.6,1793,283.6z M1827.4,283.6c0.6-1.2,7.7-2.8,7.7-2.8 s16.3-3.9,27.9-3.5c11.7,0.3,21.8,3.8,21.8,3.8s3.2,1.4,3.2,4.8c0.1,3.3-5.1,21.3-5.6,23.4c-0.9,3-6.2,4.2-6.2,4.2l-17.4,1.1 c0,0-22.1-2.2-25.2-4.4c-3.1-2.1-4.3-8-4.8-12.3C1828.4,293.4,1827,284.8,1827.4,283.6z" class="st78"/><linearGradient id="SVGID_64_" x1="14798.341" x2="14728.975" y1="318.024" y2="296.361" gradientTransform="matrix(-1 0 0 1 16546.832 0)" gradientUnits="userSpaceOnUse"><stop offset="0" style="stop-color:#e6968b"/><stop offset=".466" style="stop-color:#a4a7a9"/><stop offset=".709" style="stop-color:#a8acad"/><stop offset=".976" style="stop-color:#293942"/></linearGradient><path d="M1752.9,305.3c0.7,0.9,5.6,2.9,6.3,3.2c5.8,3.4,25.9,6,31.7,0.1c0.1-0.1,5.4-4.3,5.5-4.4l-3.3,11.2 c-2.5,0.6-10,1.7-10,1.7s-7.2,0.7-10.9,0.3c-3-0.1-15.7-2.9-19.6-4.3L1752.9,305.3z" class="st79"/></g><linearGradient id="SVGID_65_" x1="14622.64" x2="14813.866" y1="120.322" y2="120.322" gradientTransform="matrix(-0.9997 2.462571e-02 2.462571e-02 0.9997 16545.625 -190.3642)" gradientUnits="userSpaceOnUse"><stop offset=".339" style="stop-color:#0d1d24"/><stop offset=".757" style="stop-color:#322e2f"/></linearGradient><path d="M1738.9,276.3c-0.9,1.1,1.4,5.8,1.4,5.8l2.9,4c0,0,2.9,12.1,3.9,14.5c1,2.5,3.2,7.1,5.6,9.1 c1.7,1.3,12.8,4.2,16.6,4.4c3.8,0.2,10.9-0.3,10.9-0.3s8.8-0.9,11.8-3.4c2.9-2.5,3.8-4.5,5-7.4c1.2-2.9,4.6-18,4.6-18 s2.8-2.4,6.7-2.4c3.9,0,9,2.9,9,2.9l4.2,16.6c0,0,0.7,5.9,3.4,9c2.8,3.1,4.4,3.4,8.5,4.6c4,1.1,13.1,2.2,20.2,2.2 s12.8-0.6,17.6-0.9s12.4-3.3,14.3-10.2c1-3.6,4-11.7,4.8-18.4c0.4-4.2,1.2-7.9,1.2-7.9l3.5,0.1l33.7,6l1.1-8.1 c0,0-17-3.5-24.1-4.5c-8.5-1.2-14.2-2.4-19.1-3.2c-7.6-1.4-13.8-3.2-22.8-3.9c-38.2-3.1-45.9,8.7-45.9,8.7s-6.4-1.4-10.3-1.4 s-7.6,1.9-7.6,1.9s-9.4-4.3-15.6-5.2c-8.1-1.2-15.3-1.2-22.8-0.7c-7.4,0.6-18.4,4-18.4,4S1739.8,275,1738.9,276.3z M1824.5,280.2c0.6-1.2,5.3-3.3,8.4-4c3-0.7,13.9-2.7,25.7-2.2c11.7,0.3,21.8,3.8,21.8,3.8s2.5,0.9,2.4,4.3 c-0.3,7.4-3.6,19.8-4.3,21.8c-2,5.6-8.7,6.3-8.7,6.3l-15.4,0.9c0,0-18.9,0.1-22.7-2.7c-3-2.1-4.2-9.7-5.3-14.3 C1825.3,289.9,1823.7,282.1,1824.5,280.2z M1749.3,287.1c-0.9-3.6-1.7-5.6,1.7-7.3c3.2-1.7,8.1-2.7,13.7-3.2 c5.1-0.4,9.2-0.6,15,0.3c6,0.9,10.3,3.2,10.3,3.2s4.9,1.5,5.2,4.1c0.3,2.5-3.2,17.1-7.1,20.9c-6,5.8-26,3.3-31.7-0.1 C1752.1,302.6,1750.4,292.3,1749.3,287.1z" class="st80"/><path d="M1715.5,152.5l82-16.8l107.3,30L1973,221l-9.4,75.5l-56.4,27.2l-21.5,55l-32.1,2.5l-70-0.7l-51.8-9 l-1.9-0.3c-22.6-24.3-42.6-72.2-42-120c0.2-25.7,2.4-45.9,11.5-66.6L1715.5,152.5z" class="st54"/><linearGradient id="SVGID_66_" x1="14821.559" x2="14578.256" y1="408.363" y2="412.548" gradientTransform="matrix(-1 -9.884079e-03 -9.884079e-03 1 16548.248 76.1606)" gradientUnits="userSpaceOnUse"><stop offset=".381" style="stop-color:#293942"/><stop offset="1" style="stop-color:#1f2c32"/></linearGradient><path d="M1958.5,290.3l-55.5,26.5l-20.4,60.3c0,0-21.3,2.7-37.7,3.6c-16.3,1.1-46.3,0.2-62.7-0.7 c-16.3-0.9-52.5-9.1-52.5-9.1l8.1,13.3c0,0,27.8,7.3,45.7,8.7c18,1.4,47.8,2.5,69.9,1.2c22.1-1.2,43-2.7,43-2.7l20.6-66.8 l60.6-28.4L1958.5,290.3z" class="st81"/><linearGradient id="SVGID_67_" x1="14691.403" x2="14783.765" y1="908.382" y2="908.382" gradientTransform="matrix(-0.9619 -9.226510e-02 -9.727631e-02 1.0142 16263.8145 700.1709)" gradientUnits="userSpaceOnUse"><stop offset=".264" style="stop-color:#455a65"/><stop offset="1" style="stop-color:#19262c"/></linearGradient><path d="M2007.6,188.1c3.2,0.1,11.7,0.8,11.7,0.8l7.7,10.3c12.5,13.8,19.5,39.3,16.8,67.7 c-2.5,27-13.3,49.8-27.2,61.5l-4.2,5.2c0,0-16.8,2.4-19.9,2.2c-24-2.3-39.3-36.3-37.4-77.4 C1956.9,217,1983.6,187.2,2007.6,188.1z" class="st82"/><linearGradient id="SVGID_68_" x1="15215.923" x2="15317.089" y1="804.811" y2="877.288" gradientTransform="matrix(-0.8946 -7.587446e-02 -8.664025e-02 0.9962 15751.8193 576.5587)" gradientUnits="userSpaceOnUse"><stop offset="0" style="stop-color:#f2c086"/><stop offset=".072" style="stop-color:#f2c085"/><stop offset=".146" style="stop-color:#e2b39b"/><stop offset=".202" style="stop-color:#daaca6"/><stop offset=".223" style="stop-color:#d9aea8"/><stop offset=".508" style="stop-color:#d2c7c7"/><stop offset=".668" style="stop-color:#cfd0d2"/><stop offset=".726" style="stop-color:#c4c7c9"/><stop offset=".828" style="stop-color:#a7aeb2"/><stop offset=".961" style="stop-color:#78858d"/><stop offset=".997" style="stop-color:#6a7982"/></linearGradient><path d="M1973.5,257.4c-3.9,40,11.1,74.1,33.3,76.2c22.2,2.1,43.4-28.6,47.1-68.6c3.9-39.9-11.1-74.1-33.3-76.2 C1998.5,186.8,1977.4,217.5,1973.5,257.4z" class="st83"/><linearGradient id="SVGID_69_" x1="14551.234" x2="14505.111" y1="261.379" y2="268.439" gradientTransform="matrix(-1 0 0 1 16546.832 0)" gradientUnits="userSpaceOnUse"><stop offset="0" style="stop-color:#4d6370"/><stop offset="1" style="stop-color:#212e34"/></linearGradient><path d="M2024.7,229.9l-0.8,7.7c9.5,0.9,16.1,14,14.7,29.3c-1.4,15.3-10.5,26.9-20,26l-0.8,7.7 c-12.3-1.2-20.7-18-18.8-37.5C2001.1,243.5,2012.4,228.7,2024.7,229.9z" class="st84"/><linearGradient id="SVGID_70_" x1="14695.703" x2="14415.432" y1="217.261" y2="217.261" gradientTransform="matrix(-1.0216 -1.009815e-02 -9.884084e-03 0.9999 16716.9551 77.8308)" gradientUnits="userSpaceOnUse"><stop offset="0" style="stop-color:#5b3528"/><stop offset="1" style="stop-color:#19262c"/></linearGradient><path d="M1809.5,77.9c88.4-8.7,157.6,47.9,182.8,114.6c-9.1,3.6-16.7,27.4-16.7,27.4l-7.2,0.2c0,0-2.1-0.1-2.1-0.2 c-42.8-45.9-102.3-75.9-184.7-76.6c-19-0.1-48.1,4-69.3,16l-0.1,0.1l-5,9.2l-5,9.3l-1.3,2.8c0,0-5.2-8-2.8-15.3 C1711.7,129,1751.9,83.5,1809.5,77.9z" class="st85"/><linearGradient id="SVGID_71_" x1="14456.035" x2="14644.204" y1="323.051" y2="156.154" gradientTransform="matrix(-1.0216 -1.009815e-02 -9.884084e-03 0.9999 16716.9551 77.8308)" gradientUnits="userSpaceOnUse"><stop offset="0" style="stop-color:#273d44"/><stop offset=".487" style="stop-color:#f16522"/><stop offset=".668" style="stop-color:#f28f3f"/><stop offset=".888" style="stop-color:#ed693c"/><stop offset="1" style="stop-color:#e83e39"/></linearGradient><path d="M1809.6,73c88.4-8.7,164.1,52.2,189.3,118.8c-10.2,6-16.8,15.6-23.2,28.2 c-43.2-48.4-107.4-81.7-192.4-82.5c-13.7-0.1-33.6,2.4-51.7,8.4c-7.7,2.5-15.3,5.9-21.7,9.7c-5.4,3.3-12.7,10.7-12.1,17.5 c-3.2-7.4,2.4-15.8,5.2-21C1721.1,118.1,1759.6,77.9,1809.6,73z" class="st86"/><linearGradient id="SVGID_72_" x1="14732.239" x2="14848.905" y1="192.765" y2="192.765" gradientTransform="matrix(-1 -9.884079e-03 -9.884079e-03 1 16548.248 76.1606)" gradientUnits="userSpaceOnUse"><stop offset=".057" style="stop-color:#f16522"/><stop offset="1" style="stop-color:#f3ddbd"/></linearGradient><path d="M1702.9,152.2c17.7-34.1,55.3-74.2,104.2-79.2c2.5-0.2,5-0.4,7.4-0.6c0,0-40.9,13.5-65.4,35.6 c-24.1,21.9-33.7,44.4-33.7,44.4c-2,1-3.9,2.1-5.6,3.2c-5.3,3.3-12.5,10.7-11.8,17.5C1694.8,165.5,1700.2,157.4,1702.9,152.2z" class="st87"/><path d="M1701.4,179.5l10.7-20.1l5-2.7l6.5-2.9l-12.8,25.9c-9.2,21-13.5,43.6-13.7,69.6 c-0.6,48.4,19.7,96.9,42.6,121.5l2.5,3l-9.7-2l-2.7-0.7c-22.9-24.7-42.5-73.7-42-122C1687.9,223.2,1692.3,200.5,1701.4,179.5z" class="st88"/></g><g><linearGradient id="SVGID_73_" x1="14524.024" x2="14590.887" y1="499.286" y2="462.781" gradientTransform="matrix(-1 0 0 1 16546.832 0)" gradientUnits="userSpaceOnUse"><stop offset="0" style="stop-color:#f3a98c"/><stop offset=".86" style="stop-color:#929497"/><stop offset="1" style="stop-color:#6e7482"/></linearGradient><path d="M2009.9,503c5-6,8.1-10.5,9.7-19.2c1.7-8.7,3.6-17.4,1.2-25.2c-2.5-7.9-3.4-9.8-8.1-13.8 c-4.6-3.9-7-5.4-12.9-6.7c-6-1.2-10.7-1.1-17.4,1.1c-7.9,2.5-13.9,10.2-18.8,18c-4.8,7.9-7.7,12.7-9.7,25.9 c-2,13.2,1.9,23.3,5,28.2c3,5,7.3,8.7,14.3,9.6c8.2,1,14.5-1.3,20-4.1C1998.8,513.8,2005,508.8,2009.9,503z" class="st89"/><linearGradient id="SVGID_74_" x1="14519.857" x2="14586.722" y1="499.266" y2="462.76" gradientTransform="matrix(-1 0 0 1 16546.832 0)" gradientUnits="userSpaceOnUse"><stop offset="0" style="stop-color:#e8cfbe"/><stop offset=".668" style="stop-color:#d0d2d3"/><stop offset=".997" style="stop-color:#beb0ad"/></linearGradient><path d="M2014.1,503c5-6,8.1-10.5,9.7-19.2c1.7-8.7,3.6-17.4,1.2-25.2c-2.5-7.9-3.4-9.8-8.1-13.8 c-4.6-3.9-7-5.4-12.9-6.7c-6.1-1.2-10.7-1.1-17.4,1.1c-7.9,2.5-13.9,10.2-18.8,18c-4.8,7.9-7.7,12.7-9.7,25.9 c-2,13.2,1.9,23.3,5,28.2c3,5,7.3,8.7,14.3,9.6c8.2,1,14.5-1.3,20-4.1C2002.9,513.9,2009.1,508.8,2014.1,503z" class="st90"/></g><g><linearGradient id="SVGID_75_" x1="2072.426" x2="2109.212" y1="181.691" y2="181.691" gradientTransform="matrix(1.0102 -5.115486e-02 0.1058 1.0536 -136.261 395.0413)" gradientUnits="userSpaceOnUse"><stop offset="0" style="stop-color:#4f5764"/><stop offset=".668" style="stop-color:#293942"/><stop offset="1" style="stop-color:#0f1c20"/></linearGradient><path d="M1982.6,473.3c6.2-11.8,15.5-19,24.1-14.8c3.6,1.9,5.5,5,6,8.7l-5.2,4.2c-0.4-3-1.4-5.2-4.2-6.6 c-5-2.4-11.2,2.5-14.9,9.7c-0.1,0.2-0.4,0.8-0.6,1.2c2.9-2,7.4-3.6,10.9-1.9c5.3,2.7,7.5,9.5,2.9,18.2 c-4.1,7.5-11.5,11.7-18,8.5C1975,496.2,1976.5,484.7,1982.6,473.3z M1996.2,489.8c2.7-5,1-8.8-2.1-10.4c-2.5-1.2-6-0.7-8.8,1.7 c-2.1,4.5-3.1,10.6,1.4,12.8C1990.4,496,1994.4,493.1,1996.2,489.8z" class="st91"/></g></g><linearGradient id="SVGID_76_" x1="14585.631" x2="14748.097" y1="80.927" y2="545.54" gradientTransform="matrix(-1 0 0 1 16546.832 0)" gradientUnits="userSpaceOnUse"><stop offset="0" style="stop-color:#4e5663"/><stop offset=".668" style="stop-color:#283841"/><stop offset="1" style="stop-color:#0f1b21"/></linearGradient><path d="M1729.6,371.1l7.9,12.9l-0.1,4.1c-6.7,1.9-10.5,4-10.6,6.3l-0.1,11.6c0,1.4,1.3,2.7,3.9,3.9 c1.5,0.9,3.1,1.2,4.3,1.8l8.3,12.3l0.9,3.6h-0.1l-4.3,0.9l0,0l-10.3,2.2l-7.7,6.5l-7.7,11.7l-6.9,21.3l-3.2,20.5l1.1,3l2.1,1.1 l-0.4,6.4l2.1,22.3l11.5,20.5l0.3,0.3l-0.3-0.1c0,0,16,12.7,16.4,13.1c0,0,0.1,0.1,0.3,0.1l0.2,0.1l6.4,2.9c2.7,1.2,5.8,2.7,8.7,4 l0.7,9l5.2,3.6l1.9,30.7l4.9,32.4l1.4,25.1l-6.9,6.2l-0.1,2.3l-6,6.7l-3.6,4.6h-2l-8.2,10.6l-1.4,12.4l5.8,11.5l18.2,5l4.3-0.1 l20.4-0.7l14.9-6.7v-0.9l26.5-12.7l21-16.3l1.8-28.2l2.9-15.6l0.1-0.1l3-11.3l4.4-7.1l9.1,0.1l9.7,25.7l9.5,29.1l-0.3,0.1 l-3.2,7.2l0.7,1.7l0.6-1.5l-1.9,5.5l-6.6,16.3l-0.9,0.2l-3.6,9.6l3.6,13.5l11.5,8.5l0.3,0.1v0.1l3.9,0.9l14.8,4.2l2.5-0.2l1.9-0.1 v-0.1l16.9-1.9v0.1l1.2-0.1l1.9-0.1l19.6-6l7.6-10.2l5.8-6.6l9-12.2l6.4-11.3l3.2-37.1l0.9-16.8h-0.1l4.6-35.5l0.3-32.6l0.1-0.1 l4.8-2.9v-17.1l-3.1-1.1l2.1-8l2.2-0.9l20.2-30.3l7.9-26.9l2.8-25.8l1.9-11.5l-4.6-14.5l-3.9-1.9l-8.4-10.9l3.2-11.4 c2.7-1.2,4.1-2.2,4.1-3.9l0.1-10.5c0-1,0.3-2.1-0.7-2.9c-1-1.2-4.3-2.9-7.3-4l0.1-13.1c0,0,0-1.3-0.1-2.7 c-0.3-0.9-1.4-1.9-4.8-3.2c0.9-5.2,6-33.8,6-33.8s-0.6,0.9-1.5,2.2l5.9-9l0,0c17.7-6.7,33.7-32,36.7-65c0.7-8,0.7-15.8,0-23.1 c-1.2-16.6-5.6-31-12.5-40.8c-3.4-14.2-9.4-29.5-16-42.4c11.3-10.8,18.4-21.6,20.5-34.7c1.5-7.7,1.4-15.9-0.1-24.6 c-1.4-7.4-6-21.1-11.7-29.6c-5-7.4-9.6-6.6-9.7-0.1c0,0.1,0,0.1,0,0.3c-0.3,0.9-0.7,1.9-0.7,3.2c-0.1,1.8-0.1,3.5-0.4,5.2 c-3.4,15.8-14.6,28.2-27.8,38.5c-30.5-32.1-72.4-53.5-118.6-57.3c-1.5-0.1-3-0.2-4.5-0.3c-8.8-0.6-17.6-0.3-26.1,0.1 c-5.1,0.3-10.1,0.9-14.9,1.7c-1.7,0.2-3.2,0.6-4.9,0.9c-9.5,1.8-18.6,4.3-26.9,7.4c-1.4,0.6-2.8,1.1-4.1,1.7 c-1.9,0.9-3.9,1.7-5.6,2.5c-14.6,4-28,11.1-39.8,19.8c-1-1.9-1.9-3.9-2.7-6c-0.7-3.2-1-6.4-0.9-10c0.1-2.5-0.4-4.2-1.4-5 c0-0.1,0-0.1,0-0.3c0.3-7.3-4.6-7.3-9.2-0.1c-5.1,8-10.3,20.9-11.7,27.9c-1.4,6.6-1.8,12.9-1.2,19c-8.4,10.1-15.4,20.6-20.6,30.6 c-2.7,5.2-8.1,13.5-5,21v-0.1v0.1l0,0c0.7,3.2,2.1,5.8,2.7,6.9l0.2,0.6l0.1,0.2c-1,2.3-1.9,4.6-2.9,7c-5.8,14.2-8.4,28.2-9.5,44 c-0.6,5.6-0.8,11.5-0.9,17.4c-0.1,4.6,0.1,9.3,0.3,13.9c1.7,28.2,10,55.9,21.2,77.9c0.1,0.3,0.3,0.8,0.6,1.1 c0.1,0.1,0.1,0.3,0.3,0.6C1716.1,353.9,1722.8,363.6,1729.6,371.1z M1737.2,212.9l-16-7.2l9.5-11.3l19.7-3.6l-15.8-12.2l21.3-6.9 l14.5,4.3c1.3-3.3,3.2-7.2,6.6-10.9c0.1-0.1,0.3-0.4,0.7-0.7c0.1-0.1,0.1-0.1,0.1-0.1c0.2-0.2,0.6-0.6,0.9-0.9l0,0l0,0 c2.9-3,8-7.7,8-7.7s23.2,3.9,28.2,4.5c7.9,1.1,34.8,19.9,34.8,19.9s7.6,0.8,17.4,4.6c9.7,3.9,37.6,20.9,37.6,20.9s15,11.3,17,14.3 c1.7,2.5,10.8,21.9,11.4,28.4c0.6,6.5-7.1,57.6-7.1,57.6l-22.9,10.9l-20.7,61.5l-32,3.6H1782l-31.2-4.9c0,0,2.9-58.3,2-84.1 c-0.9-25.9-9.7-73.1-9.7-73.1L1737.2,212.9z" class="st92"/></g></g></svg>