<svg xmlns="http://www.w3.org/2000/svg" xmlns:xlink="http://www.w3.org/1999/xlink" id="Layer_1" width="270" height="270" x="0" style="enable-background:new 0 0 270 270" y="0" version="1.1" viewBox="0 0 270 270" xml:space="preserve"><style type="text/css">.st0{opacity:.16}.st1{fill:none;stroke:#26373e;stroke-width:.6356;stroke-miterlimit:10}.st2{fill:#4f5764}.st3{fill:url(#SVGID_1_)}.st4{fill:url(#SVGID_2_)}.st5{fill:url(#SVGID_3_)}.st6{fill:url(#SVGID_4_)}.st7{fill:url(#SVGID_5_)}.st8{fill:url(#SVGID_6_)}.st9{fill:#fff}.st10{fill:url(#SVGID_7_)}.st11{fill:url(#SVGID_8_)}.st12{fill:url(#SVGID_9_)}.st13{fill:url(#SVGID_10_)}.st14{fill:url(#SVGID_11_)}.st15{fill:url(#SVGID_12_)}.st16{fill:url(#SVGID_13_)}</style><g class="st0"><polyline points="14.5 191.2 237.4 214.9 156.5 11.6 14.5 187.7 49.4 38.9 263.3 173.2 109.7 255.8 8.7 77.7" class="st1"/><polyline points="49.4 38.9 156.5 11.6 263.3 173.2" class="st1"/><g><circle cx="49.4" cy="38.9" r="5.1" class="st2"/><circle cx="156.5" cy="11.6" r="5.1" class="st2"/><circle cx="263.3" cy="173.2" r="5.7" class="st2"/><circle cx="237.4" cy="214.9" r="5.1" class="st2"/><circle cx="109.7" cy="255.8" r="4.8" class="st2"/><circle cx="8.7" cy="77.7" r="5.9" class="st2"/><circle cx="14.5" cy="187.7" r="6.7" class="st2"/></g></g><g><linearGradient id="SVGID_1_" x1="89.847" x2="163.246" y1="134.696" y2="134.696" gradientUnits="userSpaceOnUse"><stop offset="0" style="stop-color:#4f5764"/><stop offset=".668" style="stop-color:#293942"/><stop offset="1" style="stop-color:#111c21"/></linearGradient><rect width="73.4" height="106.6" x="89.8" y="81.4" class="st3"/><g><linearGradient id="SVGID_2_" x1="90.633" x2="156.17" y1="179.444" y2="81.795" gradientUnits="userSpaceOnUse"><stop offset="0" style="stop-color:#d0d1d3"/><stop offset=".496" style="stop-color:#cdd2d1"/><stop offset=".994" style="stop-color:#f2f2f2"/></linearGradient><rect width="66.6" height="99.2" x="89.8" y="81.4" class="st4"/></g><g><linearGradient id="SVGID_3_" x1="172.326" x2="190.02" y1="178.44" y2="114.214" gradientUnits="userSpaceOnUse"><stop offset="0" style="stop-color:#3d96d2"/><stop offset="1" style="stop-color:#069fb0"/></linearGradient><polygon points="186.2 180.6 175.7 180.6 175.7 113.7 180.9 100.8 186.2 113.7" class="st5"/></g><g><path d="M111.3,132.4v-17.8h12.6v3.3h-8.8v3.7h8.6v3.3h-8.6v7.4H111.3z" class="st9"/><path d="M125.7,123.6c0-5.4,3-9.2,8.3-9.2c2.2,0,4,0.7,5.3,1.8l-1.7,2.9c-1-0.9-2-1.4-3.5-1.4c-2.6,0-4.5,2.2-4.5,5 c0,0.1,0,0.2,0,0.4c0.8-1.2,2.6-2.3,4.6-2.3c3.2,0,6.1,2,6.1,5.8c0,3.5-2.8,6.1-6.8,6.1C128,132.8,125.7,128.6,125.7,123.6z M136.4,126.8c0-1.9-1.6-2.7-3.3-2.7c-1.3,0-2.6,0.6-3.5,1.7c0.2,1.7,1.1,3.6,3.6,3.6C135.2,129.4,136.4,128,136.4,126.8z" class="st9"/></g><g><linearGradient id="SVGID_4_" x1="83.621" x2="95.586" y1="91.602" y2="91.602" gradientUnits="userSpaceOnUse"><stop offset="0" style="stop-color:#3d96d2"/><stop offset="1" style="stop-color:#069fb0"/></linearGradient><rect width="12" height="4.4" x="83.6" y="89.4" class="st6"/></g><g><linearGradient id="SVGID_5_" x1="83.621" x2="95.586" y1="100.461" y2="100.461" gradientUnits="userSpaceOnUse"><stop offset="0" style="stop-color:#3d96d2"/><stop offset="1" style="stop-color:#069fb0"/></linearGradient><rect width="12" height="4.4" x="83.6" y="98.2" class="st7"/></g><g><linearGradient id="SVGID_6_" x1="83.621" x2="95.586" y1="127.039" y2="127.039" gradientUnits="userSpaceOnUse"><stop offset="0" style="stop-color:#3d96d2"/><stop offset="1" style="stop-color:#069fb0"/></linearGradient><rect width="12" height="4.4" x="83.6" y="124.8" class="st8"/></g><g><linearGradient id="SVGID_7_" x1="83.621" x2="95.586" y1="135.899" y2="135.899" gradientUnits="userSpaceOnUse"><stop offset="0" style="stop-color:#3d96d2"/><stop offset="1" style="stop-color:#069fb0"/></linearGradient><rect width="12" height="4.4" x="83.6" y="133.7" class="st10"/></g><g><linearGradient id="SVGID_8_" x1="83.621" x2="95.586" y1="162.477" y2="162.477" gradientUnits="userSpaceOnUse"><stop offset="0" style="stop-color:#3d96d2"/><stop offset="1" style="stop-color:#069fb0"/></linearGradient><rect width="12" height="4.4" x="83.6" y="160.3" class="st11"/></g><g><linearGradient id="SVGID_9_" x1="83.621" x2="95.586" y1="171.337" y2="171.337" gradientUnits="userSpaceOnUse"><stop offset="0" style="stop-color:#3d96d2"/><stop offset="1" style="stop-color:#069fb0"/></linearGradient><rect width="12" height="4.4" x="83.6" y="169.1" class="st12"/></g><g><linearGradient id="SVGID_10_" x1="83.621" x2="95.586" y1="109.32" y2="109.32" gradientUnits="userSpaceOnUse"><stop offset="0" style="stop-color:#3d96d2"/><stop offset="1" style="stop-color:#069fb0"/></linearGradient><rect width="12" height="4.4" x="83.6" y="107.1" class="st13"/></g><g><linearGradient id="SVGID_11_" x1="83.621" x2="95.586" y1="118.18" y2="118.18" gradientUnits="userSpaceOnUse"><stop offset="0" style="stop-color:#3d96d2"/><stop offset="1" style="stop-color:#069fb0"/></linearGradient><rect width="12" height="4.4" x="83.6" y="116" class="st14"/></g><g><linearGradient id="SVGID_12_" x1="83.621" x2="95.586" y1="144.758" y2="144.758" gradientUnits="userSpaceOnUse"><stop offset="0" style="stop-color:#3d96d2"/><stop offset="1" style="stop-color:#069fb0"/></linearGradient><rect width="12" height="4.4" x="83.6" y="142.5" class="st15"/></g><g><linearGradient id="SVGID_13_" x1="83.621" x2="95.586" y1="153.618" y2="153.618" gradientUnits="userSpaceOnUse"><stop offset="0" style="stop-color:#3d96d2"/><stop offset="1" style="stop-color:#069fb0"/></linearGradient><rect width="12" height="4.4" x="83.6" y="151.4" class="st16"/></g></g></svg>