<svg xmlns="http://www.w3.org/2000/svg" xmlns:xlink="http://www.w3.org/1999/xlink" id="Layer_1" width="270" height="270" x="0" style="enable-background:new 0 0 270 270" y="0" version="1.1" viewBox="0 0 270 270" xml:space="preserve"><style type="text/css">.st0{opacity:.2}.st1{fill:none;stroke:#3f5d69;stroke-width:.5134;stroke-miterlimit:10}.st2{fill:#4f5764}.st3{fill:url(#SVGID_1_)}.st4{fill:url(#SVGID_2_)}.st5{fill:url(#SVGID_3_)}.st6{fill:url(#SVGID_4_)}.st7{fill:url(#SVGID_5_)}.st8{fill:url(#SVGID_6_)}.st9{fill:url(#SVGID_7_)}</style><g class="st0"><polyline points="91.2 27.9 250.6 116.3 13.7 117.1 208.2 54.1" class="st1"/><polyline points="181.5 227.2 258.7 182.9 7.3 179.2 179.2 228.8" class="st1"/><polyline points="7.3 179.2 91.2 27.9 208.2 54.1 258.7 182.9" class="st1"/><g><circle cx="7.3" cy="179.2" r="4.1" class="st2"/><circle cx="91.2" cy="27.9" r="4.6" class="st2"/><circle cx="258.7" cy="182.9" r="4.1" class="st2"/><circle cx="208.2" cy="54.1" r="3.3" class="st2"/><circle cx="250.6" cy="116.3" r="3.9" class="st2"/><circle cx="13.7" cy="117.1" r="4.7" class="st2"/><circle cx="179.2" cy="228.8" r="5.4" class="st2"/></g></g><g><linearGradient id="SVGID_1_" x1="127.172" x2="152.018" y1="187.377" y2="156.89" gradientUnits="userSpaceOnUse"><stop offset="0" style="stop-color:#d0d1d3"/><stop offset=".522" style="stop-color:#cdd2d1"/><stop offset=".994" style="stop-color:#f2f2f2"/></linearGradient><polygon points="145.4 169.2 145.4 154.5 133.9 154.5 133.9 169.2 112.5 169.2 112.5 174.9 166.9 174.9 166.9 169.2" class="st3"/><linearGradient id="SVGID_2_" x1="85.1" x2="194.29" y1="118.486" y2="118.486" gradientUnits="userSpaceOnUse"><stop offset="0" style="stop-color:#d0d1d3"/><stop offset=".522" style="stop-color:#cdd2d1"/><stop offset=".994" style="stop-color:#f2f2f2"/></linearGradient><rect width="109.2" height="75.6" x="85.1" y="80.7" class="st4"/><linearGradient id="SVGID_3_" x1="91.138" x2="188.794" y1="149.882" y2="86.74" gradientUnits="userSpaceOnUse"><stop offset="0" style="stop-color:#3d96d2"/><stop offset="1" style="stop-color:#069fb0"/></linearGradient><rect width="99.6" height="64.1" x="89.9" y="86.4" class="st5"/><linearGradient id="SVGID_4_" x1="58.898" x2="119.288" y1="153.359" y2="153.359" gradientUnits="userSpaceOnUse"><stop offset="0" style="stop-color:#4f5764"/><stop offset=".668" style="stop-color:#293942"/><stop offset="1" style="stop-color:#111c21"/></linearGradient><rect width="60.4" height="78" x="58.9" y="114.3" class="st6"/><linearGradient id="SVGID_5_" x1="63.337" x2="114.438" y1="184.134" y2="121.431" gradientUnits="userSpaceOnUse"><stop offset="0" style="stop-color:#3d96d2"/><stop offset="1" style="stop-color:#069fb0"/></linearGradient><rect width="50.4" height="61.6" x="63.9" y="121.7" class="st7"/><g><linearGradient id="SVGID_6_" x1="180.405" x2="210.41" y1="159.832" y2="159.832" gradientUnits="userSpaceOnUse"><stop offset="0" style="stop-color:#4f5764"/><stop offset=".668" style="stop-color:#293942"/><stop offset="1" style="stop-color:#111c21"/></linearGradient><rect width="30" height="45.1" x="180.4" y="137.3" class="st8"/><linearGradient id="SVGID_7_" x1="184.97" x2="206.619" y1="174.527" y2="142.202" gradientUnits="userSpaceOnUse"><stop offset="0" style="stop-color:#3d96d2"/><stop offset="1" style="stop-color:#069fb0"/></linearGradient><rect width="21" height="30.9" x="184.9" y="143.5" class="st9"/></g></g></svg>