<svg xmlns="http://www.w3.org/2000/svg" xmlns:xlink="http://www.w3.org/1999/xlink" id="Layer_1" width="270" height="270" x="0" style="enable-background:new 0 0 270 270" y="0" version="1.1" viewBox="0 0 270 270" xml:space="preserve"><style type="text/css">.st0{opacity:.2}.st1{fill:none;stroke:#3f5d69;stroke-width:.5162;stroke-miterlimit:10}.st2{fill:#4f5764}.st3{fill:url(#SVGID_1_)}.st4{fill:url(#SVGID_2_)}.st5{fill:url(#SVGID_3_)}</style><g class="st0"><polyline points="171 16.5 8.5 102.5 160.1 236.6 173.5 17.8 264.4 151.9 79.7 241.1 248 86.7 90.2 25.6 19.2 186.2" class="st1"/><polyline points="264.4 151.9 160.1 236.6 79.7 241.1 19.2 186.2 8.5 102.5" class="st1"/><g><circle cx="264.4" cy="151.9" r="4.1" class="st2"/><circle cx="160.1" cy="236.6" r="4.1" class="st2"/><circle cx="79.7" cy="241.1" r="4.6" class="st2"/><circle cx="8.5" cy="102.5" r="4.1" class="st2"/><circle cx="19.2" cy="186.2" r="3.4" class="st2"/><circle cx="248" cy="86.7" r="3.9" class="st2"/><circle cx="90.2" cy="25.6" r="4.8" class="st2"/><circle cx="173.5" cy="17.8" r="5.4" class="st2"/></g></g><g><linearGradient id="SVGID_1_" x1="50.958" x2="104.538" y1="135.136" y2="135.136" gradientUnits="userSpaceOnUse"><stop offset="0" style="stop-color:#4f5764"/><stop offset=".668" style="stop-color:#293942"/><stop offset="1" style="stop-color:#111c21"/></linearGradient><path d="M51,140.7v-11.1l53.6-23.9V117l-42.6,18.3l42.6,18v11.3L51,140.7z" class="st3"/><linearGradient id="SVGID_2_" x1="112.512" x2="156.683" y1="135" y2="135" gradientUnits="userSpaceOnUse"><stop offset="0" style="stop-color:#3d96d2"/><stop offset="1" style="stop-color:#069fb0"/></linearGradient><path d="M112.5,185.8l33.1-101.5h11.1l-33.1,101.5H112.5z" class="st4"/><linearGradient id="SVGID_3_" x1="165.462" x2="219.042" y1="135.136" y2="135.136" gradientUnits="userSpaceOnUse"><stop offset="0" style="stop-color:#4f5764"/><stop offset=".668" style="stop-color:#293942"/><stop offset="1" style="stop-color:#111c21"/></linearGradient><path d="M165.5,164.6v-11.3l42.6-18L165.5,117v-11.3l53.6,23.9v11.1L165.5,164.6z" class="st5"/></g></svg>